<svg id="Layer_1" xmlns="http://www.w3.org/2000/svg" viewBox="-252.2 367.9 61.9 57.7"><style>.st0{fill:#333}</style><path class="st0" d="M-236.7 412.6h.5v-7h1v-2h-2c-.6 0-1 .4-1 1v7.9c.5-.1 1-.1 1.5.1zM-190.8 392.6c-.4-.2-.8-.1-1.1.2l-8.3 8.3v-7.6c0-.4-.2-.8-.6-.9-.4-.2-.8-.1-1.1.2l-8.3 8.3v-7.6c0-.4-.2-.8-.6-.9-.4-.2-.8-.1-1.1.2l-10.7 10.8h-2.1c.2.6.2 1.3.1 2h2.4c.3 0 .5-.1.7-.3l9.3-9.3v7.6c0 .4.2.8.6.9.4.2.8.1 1.1-.2l8.3-8.3v7.6c0 .4.2.8.6.9.4.2.8.1 1.1-.2l8.3-8.3v27.6h-42.4c-.1.2-.4.3-.7.2-.1 0-.2-.1-.3-.1-.1.1-.2.1-.3.1-.8.1-1.6.1-2.4.1v.7c0 .6.4 1 1 1h46c.6 0 1-.4 1-1v-31c.1-.4-.1-.8-.5-1z"/><path class="st0" d="M-224.2 412.6h-13c-.3 0-.6-.1-.8-.3s-.3-.5-.2-.8l3-21c.1-.5.5-.9 1-.9h8c.5 0 .9.4 1 .9l2 20.8v.3c0 .5-.4 1-1 1zm-11.8-2h10.7l-1.8-19h-6.2l-2.7 19z"/><path class="st0" d="M-237.2 412.6h-12c-.3 0-.5-.1-.7-.3s-.3-.5-.3-.8l2.8-39c0-.5.5-.9 1-.9h7.4c.5 0 1 .4 1 1l1.8 38.8v.2c0 .5-.4 1-1 1zm-10.9-2h9.9l-1.8-37h-5.5l-2.6 37zM-194.7 420.6h-5c-.3 0-.5-.2-.5-.5v-12c0-.3.2-.5.5-.5h5c.3 0 .5.2.5.5v12c0 .2-.2.5-.5.5zm-4.5-1h4v-11h-4v11zM-203.7 420.6h-5c-.3 0-.5-.2-.5-.5v-12c0-.3.2-.5.5-.5h5c.3 0 .5.2.5.5v12c0 .2-.2.5-.5.5zm-4.5-1h4v-11h-4v11zM-212.7 420.6h-5c-.3 0-.5-.2-.5-.5v-12c0-.3.2-.5.5-.5h5c.3 0 .5.2.5.5v12c0 .2-.2.5-.5.5zm-4.5-1h4v-11h-4v11z"/><path class="st0" d="M-221.2 410.6h-30c-.6 0-1 .4-1 1v13c0 .6.4 1 1 1h30c.6 0 1-.4 1-1v-13c0-.6-.4-1-1-1zm-1 2v7h-28v-7h28zm-28 11v-3h28.1v3h-28.1zM-229.1 385.8c-.2-4.4 5.3-3.8 8.1-3.3 1.2.2 2.4.7 3.6.2 2.5-1 2.3-4.2 1.9-6.4-.1-.5-.8-.3-.7.2.2.8.2 1.6.2 2.4.2 1.7-.6 2.5-2.2 2.5-1.9.6-2.2.3-3.9.1-1.5-.2-3.1-.1-4.6.1-2.4.4-3.2 1.7-3.1 4.1 0 .6.7.6.7.1z"/><g><path class="st0" d="M-220.8 377.9c-.5-1.7-1.2-4.9.7-6.2 1-.7 2.7-.8 3.9-.8 1.3 0 2.5.4 3.7 1 .7.3 1.2.8 2 .9 2.6.3 3.2-2.5 3.2-4.5 0-.5-.8-.5-.8 0 .3 1.8-.8 2.9-3.4 3.3-.4-.3-.8-.5-1.3-.8-.6-.3-1-.5-1.7-.6-1.6-.3-3.9-.2-5.4.5-2.9 1.2-2.5 4.9-1.7 7.4.2.4.9.2.8-.2z"/></g></svg>