<svg id="Layer_1" xmlns="http://www.w3.org/2000/svg" viewBox="257 370.3 1077.4 51"><style>.st0{fill:none}.st0,.st1,.st2{stroke:#000;stroke-miterlimit:10}.st2{stroke-linejoin:round}</style><path class="st0" d="M265.8 394.6h26.4v18h-26.4zM277.5 394.6v-5"/><circle class="st0" cx="278.1" cy="381.5" r="8.4"/><path class="st0" d="M279.1 380.5l3.7-3.6M292 400.1h3M292 406.1h3M295.3 387.2h52.5v31.5h-52.5zM347 402.1h240M1257 402.1h-78M989.5 397v9l9.9-4.5zM1010.5 397v9l-9.9-4.5z"/><path class="st1" d="M1328.5 399.4l4.8 2.7-4.8 2.8z"/><path class="st0" d="M703.5 398v9l9.9-4.5zM873.5 398v9l9.9-4.5zM894.5 398v9l-9.9-4.5zM724.5 398v9l-9.9-4.5zM844.9 398.1l2-3.4 1.9 3.4zM850.9 398.1l2-3.4 1.9 3.4zM854.8 407.1l-1.9 3.4-2-3.4zM848.8 407.1l-1.9 3.4-2-3.4zM746.9 398.1l2-3.4 1.9 3.4zM752.9 398.1l2-3.4 1.9 3.4zM756.8 407.1l-1.9 3.4-2-3.4zM750.8 407.1l-1.9 3.4-2-3.4zM686 402.1h18M725 402.1h24M837 402.1h9M852 402.1h21M755 402.1h11M766.3 384.2h70.5v36.3h-70.5zM748.5 397.6v9M754.5 397.6v9M846.5 397.6v9M852.5 397.6v9M587.5 398v9l9.9-4.5zM608.5 398v9l-9.9-4.5zM609 402.1h38M951 402.1h38M265 402.1h-8"/><path class="st0" d="M819.9 412.3h-36.5c-5.3 0-9.6-4.3-9.6-9.6v-1.3c0-5.3 4.3-9.6 9.6-9.6h36.5c5.3 0 9.6 4.3 9.6 9.6v1.3c0 5.3-4.3 9.6-9.6 9.6zM778.1 403.6l-2.6-1.5M801.5 398.6v-2M785.1 401l-2.1-2M793.2 399.3l-.7-2M810.6 399.7l1.4-2.1M818.3 401.4l2.4-1.7M781.7 402.1l-2.5-1.6M789.3 400l-1.7-2M797.6 399l-.5-2.1M806.3 399l.9-2.1M814.6 400.5l1.9-1.9M821.7 402.9l2.8-1.9M824.5 404l2.9-1.4M801.5 412.3l-3.5-11.8"/><circle class="st0" cx="667.8" cy="401.6" r="11.8"/><path class="st2" d="M662.5 411.3l16.8-9.7-16.8-9.7z"/><path class="st1" d="M412 388.1l7 12.1 7-12.1zM412 416.1l7-12.1 7 12.1zM402.5 395l12.1 7-12.1 7zM1187.5 388.1l-7 12.1-7-12.1zM1187.5 416.1l-7-12.1-7 12.1zM1197.5 395l-12.1 7 12.1 7z"/><path class="st0" d="M651.5 398.6v7M647.5 398.6v7M649.5 394.6v14M686.5 398.6v7M682.5 398.6v7M684.5 394.6v14M895 402.1h16"/><circle class="st0" cx="931.8" cy="401.6" r="11.8"/><path class="st2" d="M926.5 391.8l16.8 9.7-16.8 9.7z"/><path class="st0" d="M915.5 398.6v7M911.5 398.6v7M913.5 394.6v14M950.5 398.6v7M946.5 398.6v7M948.5 394.6v14M1011 402.1h168M1333 402.1h-153"/></svg>