<svg id="Layer_1" xmlns="http://www.w3.org/2000/svg" viewBox="-263 359.7 84.5 75.3"><style>.st0{fill:#fff}.st1{stroke-width:2}.st1,.st2,.st3{fill:none;stroke:#333;stroke-miterlimit:10}.st3{stroke-width:.5}</style><path class="st0" d="M-250.7 416.1h66.1c3.2 0 3.2-.1 4.3-3.1 0-.1 0-.2.1-.2 1-3.1 1.3-6.3 1.3-9.5 0-1.4-.1-2.8-.1-4.2-5.1.3-10.1.5-15.1-.6 5 .4 9.9-.2 14.8-1.1-.2-1-.3-1.9-.5-2.7-4.8.2-9.4.4-14 .6v-.1c4.5-.7 9.1-1.4 13.7-2-.7-2.8-1.7-5.2-2.8-7.7-.3-.7-.8-.9-1.5-.7-2.5.4-5.1.8-7.6 1.2-1.4.2-2.8.4-4.1.6.3-2 .6-3.9.8-5.8.1-1-.3-1.6-1.3-1.8-1-.2-2-.2-3-.2-.3 0-.8.3-1 .5-1.7 1.9-3.3 3.8-4.9 5.7-.6.7-1.1 1.3-1.7 2 1.4 1.7 3.3 2.6 5.2 3.5-2.1-.4-4.1-1.1-5.9-2.3-.4-.3-.9-.4-1.4-.5-6.2-.3-12.5-.4-18.7-.8-6.2-.4-12.5-1-18.7-1.6-.6 0-1.2-.1-1.7-.2-.6-.1-1.2-.1-2-.2 2 1.2 3.1 2.9 3.9 4.8 1.7 4.1 2.1 8.5 1.9 12.9 0 .7-.1 1.5-.2 2.3 3.4.5 6.8 1.1 10.2 1.5 3.4.4 6.8.7 10.1 1-6.8.4-13.7-.4-20.6-1-.3 1-.5 1.9-.8 3 4.5.7 9 1.3 13.5 2-.6.1-1.2.1-1.7 0-3.8-.2-7.6-.3-11.5-.5-.7 0-1 .1-1.3.7-1.2 2-1.8 3.6-3.8 4.5z"/><path class="st0" d="M-261.5 400.3c.3 2.2.5 4.5.9 6.6.5 2.6 1.4 5 3.1 7.1 2.4 2.4 5.1 2.7 7.3 0 .8-1 1.5-2.2 2-3.4 2.3-6 2.4-12.2.8-18.4-.6-2.2-1.5-4.3-3.2-6-2-2.1-4.5-2.1-6.4 0-1 1.1-1.8 2.5-2.4 3.8-1.5 3.3-1.9 6.8-2.1 10.3z"/><path class="st1" d="M-251.3 416.1c2.6-.9 3.2-2.5 4.1-4.4.3-.6.6-.7 1.3-.7 3.8.2 7.6.4 11.5.5h1.7c-4.5-.7-8.9-1.3-13.5-2 .3-1 .5-2 .8-3 6.9.6 13.8 1.4 20.6 1-3.3-.3-6.7-.6-10.1-1-3.4-.4-6.8-1-10.2-1.5.1-.9.2-1.6.2-2.3.3-4.4-.1-8.7-1.9-12.9-.8-1.9-1.9-3.6-3.9-4.8.8.1 1.4.1 2 .2.6.1 1.2.1 1.7.2 6.2.5 12.5 1.2 18.7 1.6 6.2.4 12.5.5 18.7.8.5 0 1 .2 1.4.5 1.8 1.3 3.8 2 5.9 2.3-1.9-.9-3.7-1.8-5.2-3.5.6-.7 1.1-1.3 1.7-2 1.6-1.9 3.3-3.8 4.9-5.7.2-.3.7-.5 1-.5 1 0 2 0 3 .2s1.4.8 1.3 1.8c-.2 1.9-.5 3.8-.8 5.8 1.3-.2 2.7-.4 4.1-.6 2.5-.4 5.1-.8 7.6-1.2.7-.1 1.2 0 1.5.7 1.1 2.4 2.1 4.9 2.8 7.7-4.6.7-9.1 1.4-13.7 2v.1c4.6-.2 9.3-.4 14-.6.2.8.3 1.7.5 2.7-5 .9-9.9 1.4-14.8 1.1 4.9 1.1 9.9.9 15.1.6 0 1.4.1 2.8.1 4.2 0 3.2-.3 6.4-1.3 9.5 0 .1 0 .2-.1.2-1 3-1.1 3.1-4.3 3.1h-65.8c0-.1-.3-.1-.6-.1z"/><path class="st1" d="M-261.5 400.3c.2-3.5.6-7 2-10.2.6-1.4 1.4-2.7 2.4-3.8 1.9-2.2 4.4-2.1 6.4 0 1.7 1.7 2.6 3.8 3.2 6 1.7 6.2 1.6 12.4-.8 18.4-.5 1.2-1.2 2.4-2 3.4-2.2 2.7-5.1 2.7-7.3 0-1.7-2.1-2.6-4.5-3.1-7.1-.3-2.2-.5-4.5-.8-6.7zm13.1.1c-.2-1.5-.3-3.1-.5-4.6-.3-2.1-.9-4.1-2.2-5.8-1.6-2.1-3.9-2.2-5.5 0-.7.9-1.2 2-1.6 3.2-1.4 4.3-1.4 8.6-.4 13 .4 1.7 1 3.4 2.2 4.8 1.5 1.7 3.5 1.8 5 0 .6-.8 1.1-1.6 1.5-2.6 1.1-2.5 1.4-5.2 1.5-8z"/><path class="st0" d="M-248.4 400.4c-.1 2.7-.4 5.4-1.5 8-.4.9-.9 1.8-1.5 2.6-1.5 1.8-3.5 1.7-5 0-1.2-1.4-1.8-3-2.2-4.8-1-4.3-1-8.7.4-13 .4-1.1.9-2.2 1.6-3.2 1.6-2.2 3.8-2.1 5.5 0 1.3 1.7 1.9 3.7 2.2 5.8.3 1.6.4 3.1.5 4.6zm-9.6-.1c.2 1.8.4 3.6.7 5.3.3 1.6.9 3.2 2 4.5.9 1 2 1.1 2.8 0 .6-.7 1.1-1.6 1.4-2.5 1.7-4.9 1.7-9.8-.1-14.7-.3-.9-.9-1.7-1.5-2.5-.8-.9-1.8-.9-2.6 0-.6.6-1 1.4-1.4 2.2-.9 2.5-1.2 5.1-1.3 7.7z"/><path class="st2" d="M-258 400.3c.2-2.7.5-5.3 1.5-7.7.3-.8.8-1.5 1.4-2.2.8-.9 1.8-.9 2.6 0 .6.7 1.2 1.6 1.5 2.5 1.7 4.9 1.7 9.8.1 14.7-.3.9-.8 1.8-1.4 2.5-.9 1.1-1.9 1-2.8 0-1.2-1.3-1.7-2.9-2-4.5-.5-1.7-.7-3.5-.9-5.3zm1.8.1c.3 1.2.5 2.4.9 3.6.2.6.7 1.2 1.5 1.2s1.2-.5 1.5-1.2c1-2.4 1-4.8 0-7.2-.3-.6-.7-1.2-1.5-1.2s-1.3.5-1.5 1.2c-.4 1.2-.6 2.4-.9 3.6z"/><path class="st0" d="M-256 401.1c-.1-.3-.1-.7 0-1 .2-1.1.5-2.1.8-3.1.2-.6.7-1.2 1.5-1.2s1.2.5 1.5 1.2c1 2.4 1 4.8 0 7.2-.3.6-.8 1.5-1.6 1.5s-1.2-.8-1.4-1.5c-.3-1-.5-2-.8-3.1zm2.2 2.8c1.1-1.3 1.1-5.3 0-6.6-1.1 1.3-1.1 5.3 0 6.6z"/><path class="st3" d="M-253.8 403.7c-1.1-1.3-1.1-5.3 0-6.6 1.1 1.3 1.1 5.3 0 6.6z"/></svg>