<svg id="Layer_1" xmlns="http://www.w3.org/2000/svg" viewBox="-257.6 331.6 105.4 95.9"><style>.st0{fill:#fff;stroke:#333;stroke-width:2;stroke-miterlimit:10}.st1{fill:#333}</style><path class="st0" d="M-206.8 407.5s25.6-7.2 20.9-32.2c-4.9-25-11.1-28.9-5.6-39.3 5.5-10.5-24.7 18.1-32.6 39.5-6.2 16.5-.4 29.2 16.5 32.3"/><path class="st0" d="M-213.3 414.6s-19 6.6-27.2-15-6.2-27.5-14.2-33.1c-8.1-5.5 23.3 2.2 37.8 15 11.1 9.9 13.4 22.3 4.3 32.8M-157.4 369.5c7.3 7.6 1.7 25.7-8.2 35.9-9.9 10.2-21.6 10-28.9 2.5-7.3-7.5-7.5-19.7 2.4-30.1 10-10.3 27.4-15.8 34.7-8.3z"/><path class="st0" d="M-176.2 416.7c0-3.3 2.3-6.1 5.3-6.6-3.6-14.5-14.4-25.4-14.4-25.4-6.8.3-19 6.1-30.3 12.7 1 1.2 1.6 2.7 1.6 4.3 0 3.6-2.7 6.4-6.2 6.4-2.9 0-5.2-1.9-5.9-4.6-6.8 4.2-12.7 7.9-15.7 9.9-1.4.9-.3 2.2.7 2.7 21.9 7.6 70.7 10.2 70.7 10.2.3-.9.3-1.8.4-2.7-3.3-.3-6.2-3.3-6.2-6.9zm-15.4 4.7c-2.6 0-4.5-2.1-4.5-4.6 0-2.7 2-4.6 4.5-4.6s4.5 2.1 4.5 4.6c0 2.5-2 4.6-4.5 4.6zm4.5-22.3c-1.6 0-3-1.3-3-3.1s1.3-3.1 3-3.1 3 1.3 3 3.1c0 1.7-1.4 3.1-3 3.1z"/><path class="st1" d="M-205.1 390.7c-1.7-13.2 1.3-25.6 6.2-37.7.3-.6-.7-.9-1-.3-5 12.3-7.9 25-6.2 38.3 0 .7 1.2.4 1-.3zM-216.3 405.7c-.9-5.5-3-10.6-6.6-15-4.2-5.1-9.6-7.3-15-10.9-.6-.4-1.2.6-.6.9 4.7 3.1 9.8 5.1 13.8 9.6 3.9 4.3 6.2 9.7 7.2 15.6.3.8 1.3.5 1.2-.2z"/><path class="st1" d="M-218.6 395.9c.6-3.9.1-7.6-1.4-11.2-.3-.6-1.2-.1-.9.6 1.4 3.3 1.9 6.9 1.3 10.3-.2.6 1 .9 1 .3zM-226.4 386.2c-.4-2.1-1.4-4-2.7-5.7-.4-.6-1.2.3-.7.7 1.2 1.5 2 3.3 2.4 5.2.2.9 1.2.6 1-.2zM-219.6 398.3c-4.3 0-8.2-2.5-11.4-5.2-.6-.4-1.3.3-.7.7 3.5 3 7.6 5.5 12.2 5.5.6.2.6-.8-.1-1zM-225.8 387.9c-2.7.3-5.5.1-8.2-.6-.7-.1-1 .9-.3 1 2.9.6 5.6.9 8.5.6.7 0 .7-1 0-1zM-205.1 387c0-6.9 7-13.6 11.9-17.7.6-.4-.3-1.2-.7-.7-5 4-12.2 11.2-12.2 18.4-.1.6 1 .6 1 0z"/><path class="st1" d="M-206 384.6c.3-7.3-3.9-12.9-8.2-18.2-.4-.6-1.2.3-.7.7 4.2 5.1 8.2 10.5 7.8 17.4 0 .8 1.1.8 1.1.1zM-204.2 369.8c1-2.5 3.2-4 5.3-5.5.6-.4 0-1.3-.6-.9-2.4 1.6-4.7 3.3-5.9 6.1-.1.6.9.9 1.2.3z"/><g><path class="st1" d="M-203.8 368.1c.1-2.4.3-4.6-.6-6.9-.6-1.6-.9-3.9-2-5.1-.4-.4-1.3.3-.7.7 1 1 1.3 3.4 1.9 4.8.7 2.1.6 4.2.4 6.4-.1.7 1 .7 1 .1z"/></g></svg>