<svg id="Layer_1" xmlns="http://www.w3.org/2000/svg" viewBox="-248 364.5 53.8 67.9"><style>.st0{stroke-width:2}.st0,.st1{fill:none;stroke:#333;stroke-miterlimit:10}</style><path class="st0" d="M-219.1 424.3v3.7c0 1.9-.5 2.7-1.8 2.7s-1.8-.8-1.8-2.8v-3.3c0-.1 0-.1-.1-.3-1.1-.1-2.3-.2-3.4-.5-7.2-1.4-12.4-7.9-11.4-16.5.2-1.6 1.4-1.8 2.4-1.8-.8-2.2-1.7-4.4-2.2-6.6-.3-1.4-.2-3-.1-4.5.1-1.2.7-1.6 2.4-1.8-.7-2.2-1.7-4.3-2.2-6.6-.3-1.4-.2-3-.1-4.5 0-1.1.7-1.6 1.8-1.8 2.7-.3 5.2.1 7.9 1 0-1.5-.1-2.9 0-4.3.5-4 2.6-7.2 5.6-9.7 1-.8 1.8-.8 2.8 0 4.3 3.6 6.3 8.1 5.7 13.8 1.5-.3 3-.7 4.5-.9 1.1-.1 2.2-.1 3.2 0 1.3.1 1.8.7 1.9 2 .3 3.7-.4 7.2-2.5 10.3-.1.1-.1.3-.2.5.4.1.7.1.9.1 1.1.2 1.7.8 1.8 1.9.3 3.7-.3 7.1-2.4 10.2-.1.2-.2.4-.4.7.4 0 .7.1 1 .1 1.1.1 1.7.7 1.8 1.8 1.2 8.6-4.8 16.1-13.5 16.7-.5.3-1 .4-1.6.4zm-1.8-37.7c5.6-5.3 3.9-13-.1-16-4.7 4.3-4.7 11.9.1 16zm1.9 8.1c6.5.3 12.4-5.8 11.2-11.4-6.3-.4-11.9 5.3-11.2 11.4zm0 12.9c7.7.2 11.8-6.4 11.2-11.3-6-.6-11.9 5.3-11.2 11.3zm-3.9-12.9c.9-5.6-4.6-12-11.2-11.3-.4 5.1 3.4 11.4 11.2 11.3zm.1 25.9c.7-6.2-5.8-12.6-11.3-11.2-.4 6.2 5 11.6 11.3 11.2zm-11.3-24.3c-.3 7.5 6 11.8 11.3 11.3.8-5.9-5.1-11.8-11.3-11.3zm15.2 24.2c6.6.5 11.9-5.4 11.2-11.3-6.4-.4-12.1 5.4-11.2 11.3z"/><path class="st1" d="M-210.5 375.2l3.8-6.6M-209.5 376.5l8.8-5.9M-231.1 375.2l-3.8-6.6M-232.1 376.5l-8.9-5.9M-202 389.1l3.3-2.5M-202 391.1l5-.6M-199.5 402.2l3.3-2.5M-199.5 404.2l4.9-.6M-242.3 402.2l-3.3-2.5M-242.3 404.2l-4.9-.6M-240.7 389.1l-3.3-2.5M-240.7 391.1l-4.9-.6"/></svg>