<?xml version="1.0" encoding="utf-8"?>
<!-- Generator: Adobe Illustrator 19.1.1, SVG Export Plug-In . SVG Version: 6.00 Build 0)  -->
<svg version="1.1" id="Layer_1" xmlns="http://www.w3.org/2000/svg" xmlns:xlink="http://www.w3.org/1999/xlink" x="0px" y="0px"
	 viewBox="-252.2 367.9 61.9 57.7" style="enable-background:new -252.2 367.9 61.9 57.7;" xml:space="preserve">
<style type="text/css">
	.st0{fill:#333333;}
</style>
<g>
	<g>
		<path class="st0" d="M-236.7,412.6c0.2,0,0.3,0,0.5,0v-7h1c0-0.7,0-1.3,0-2h-2c-0.6,0-1,0.4-1,1v7.9
			C-237.7,412.4-237.2,412.4-236.7,412.6z"/>
		<path class="st0" d="M-190.8,392.6c-0.4-0.2-0.8-0.1-1.1,0.2l-8.3,8.3v-7.6c0-0.4-0.2-0.8-0.6-0.9c-0.4-0.2-0.8-0.1-1.1,0.2
			l-8.3,8.3v-7.6c0-0.4-0.2-0.8-0.6-0.9c-0.4-0.2-0.8-0.1-1.1,0.2l-10.7,10.8h-2.1c0.2,0.6,0.2,1.3,0.1,2h2.4c0.3,0,0.5-0.1,0.7-0.3
			l9.3-9.3v7.6c0,0.4,0.2,0.8,0.6,0.9c0.4,0.2,0.8,0.1,1.1-0.2l8.3-8.3v7.6c0,0.4,0.2,0.8,0.6,0.9c0.4,0.2,0.8,0.1,1.1-0.2l8.3-8.3
			v27.6h-42.4c-0.1,0.2-0.4,0.3-0.7,0.2c-0.1,0-0.2-0.1-0.3-0.1c-0.1,0.1-0.2,0.1-0.3,0.1c-0.8,0.1-1.6,0.1-2.4,0.1v0.7
			c0,0.6,0.4,1,1,1h46c0.6,0,1-0.4,1-1v-31C-190.2,393.2-190.4,392.8-190.8,392.6z"/>
	</g>
	<g>
		<path class="st0" d="M-224.2,412.6L-224.2,412.6h-13c-0.3,0-0.6-0.1-0.8-0.3s-0.3-0.5-0.2-0.8l3-21c0.1-0.5,0.5-0.9,1-0.9h8
			c0.5,0,0.9,0.4,1,0.9l2,20.8c0,0.1,0,0.2,0,0.3C-223.2,412.1-223.6,412.6-224.2,412.6z M-236,410.6h10.7l-1.8-19h-6.2L-236,410.6z
			"/>
	</g>
	<g>
		<path class="st0" d="M-237.2,412.6L-237.2,412.6h-12c-0.3,0-0.5-0.1-0.7-0.3s-0.3-0.5-0.3-0.8l2.8-39c0-0.5,0.5-0.9,1-0.9h7.4
			c0.5,0,1,0.4,1,1l1.8,38.8c0,0.1,0,0.2,0,0.2C-236.2,412.1-236.6,412.6-237.2,412.6z M-248.1,410.6h9.9l-1.8-37h-5.5L-248.1,410.6
			z"/>
	</g>
	<g>
		<path class="st0" d="M-194.7,420.6h-5c-0.3,0-0.5-0.2-0.5-0.5v-12c0-0.3,0.2-0.5,0.5-0.5h5c0.3,0,0.5,0.2,0.5,0.5v12
			C-194.2,420.3-194.4,420.6-194.7,420.6z M-199.2,419.6h4v-11h-4C-199.2,408.6-199.2,419.6-199.2,419.6z"/>
	</g>
	<g>
		<path class="st0" d="M-203.7,420.6h-5c-0.3,0-0.5-0.2-0.5-0.5v-12c0-0.3,0.2-0.5,0.5-0.5h5c0.3,0,0.5,0.2,0.5,0.5v12
			C-203.2,420.3-203.4,420.6-203.7,420.6z M-208.2,419.6h4v-11h-4V419.6z"/>
	</g>
	<g>
		<path class="st0" d="M-212.7,420.6h-5c-0.3,0-0.5-0.2-0.5-0.5v-12c0-0.3,0.2-0.5,0.5-0.5h5c0.3,0,0.5,0.2,0.5,0.5v12
			C-212.2,420.3-212.4,420.6-212.7,420.6z M-217.2,419.6h4v-11h-4V419.6z"/>
	</g>
	<path class="st0" d="M-221.2,410.6h-30c-0.6,0-1,0.4-1,1v13c0,0.6,0.4,1,1,1h30c0.6,0,1-0.4,1-1v-13
		C-220.2,411-220.6,410.6-221.2,410.6z M-222.2,412.6v7h-28v-7H-222.2z M-250.2,423.6v-3h7.2h0.7h3h0.8h3.5c0.7,0,1.3,0,2,0h1.9h1.9
		h4.9h1.6h0.6v3H-250.2z"/>
	<g>
		<g>
			<path class="st0" d="M-229.1,385.8c-0.2-4.4,5.3-3.8,8.1-3.3c1.2,0.2,2.4,0.7,3.6,0.2c2.5-1,2.3-4.2,1.9-6.4
				c-0.1-0.5-0.8-0.3-0.7,0.2c0.2,0.8,0.2,1.6,0.2,2.4c0.2,1.7-0.6,2.5-2.2,2.5c-1.9,0.6-2.2,0.3-3.9,0.1c-1.5-0.2-3.1-0.1-4.6,0.1
				c-2.4,0.4-3.2,1.7-3.1,4.1C-229.8,386.3-229.1,386.3-229.1,385.8L-229.1,385.8z"/>
		</g>
	</g>
	<g>
		<g>
			<path class="st0" d="M-220.8,377.9c-0.5-1.7-1.2-4.9,0.7-6.2c1-0.7,2.7-0.8,3.9-0.8c1.3,0,2.5,0.4,3.7,1c0.7,0.3,1.2,0.8,2,0.9
				c2.6,0.3,3.2-2.5,3.2-4.5c0-0.5-0.8-0.5-0.8,0c0.3,1.8-0.8,2.9-3.4,3.3c-0.4-0.3-0.8-0.5-1.3-0.8c-0.6-0.3-1-0.5-1.7-0.6
				c-1.6-0.3-3.9-0.2-5.4,0.5c-2.9,1.2-2.5,4.9-1.7,7.4C-221.4,378.5-220.7,378.3-220.8,377.9L-220.8,377.9z"/>
		</g>
	</g>
</g>
</svg>
