<?xml version="1.0" encoding="utf-8"?>
<!-- Generator: Adobe Illustrator 19.1.1, SVG Export Plug-In . SVG Version: 6.00 Build 0)  -->
<svg version="1.1" id="Layer_1" xmlns="http://www.w3.org/2000/svg" xmlns:xlink="http://www.w3.org/1999/xlink" x="0px" y="0px"
	 viewBox="257 370.3 1077.4 51" style="enable-background:new 257 370.3 1077.4 51;" xml:space="preserve">
<style type="text/css">
	.st0{fill:none;stroke:#000000;stroke-miterlimit:10;}
	.st1{stroke:#000000;stroke-miterlimit:10;}
	.st2{stroke:#000000;stroke-linejoin:round;stroke-miterlimit:10;}
</style>
<rect x="265.8" y="394.6" class="st0" width="26.4" height="18"/>
<line class="st0" x1="277.5" y1="394.6" x2="277.5" y2="389.6"/>
<circle class="st0" cx="278.1" cy="381.5" r="8.4"/>
<line class="st0" x1="279.1" y1="380.5" x2="282.8" y2="376.9"/>
<line class="st0" x1="292" y1="400.1" x2="295" y2="400.1"/>
<line class="st0" x1="292" y1="406.1" x2="295" y2="406.1"/>
<rect x="295.3" y="387.2" class="st0" width="52.5" height="31.5"/>
<line class="st0" x1="347" y1="402.1" x2="587" y2="402.1"/>
<line class="st0" x1="1257" y1="402.1" x2="1179" y2="402.1"/>
<polygon class="st0" points="989.5,397 989.5,406 999.4,401.5 "/>
<polygon class="st0" points="1010.5,397 1010.5,406 1000.6,401.5 "/>
<polygon class="st1" points="1328.5,399.4 1333.3,402.1 1328.5,404.9 "/>
<polygon class="st0" points="703.5,398 703.5,407 713.4,402.5 "/>
<polygon class="st0" points="873.5,398 873.5,407 883.4,402.5 "/>
<polygon class="st0" points="894.5,398 894.5,407 884.6,402.5 "/>
<polygon class="st0" points="724.5,398 724.5,407 714.6,402.5 "/>
<polygon class="st0" points="844.9,398.1 846.9,394.7 848.8,398.1 "/>
<polygon class="st0" points="850.9,398.1 852.9,394.7 854.8,398.1 "/>
<polygon class="st0" points="854.8,407.1 852.9,410.5 850.9,407.1 "/>
<polygon class="st0" points="848.8,407.1 846.9,410.5 844.9,407.1 "/>
<polygon class="st0" points="746.9,398.1 748.9,394.7 750.8,398.1 "/>
<polygon class="st0" points="752.9,398.1 754.9,394.7 756.8,398.1 "/>
<polygon class="st0" points="756.8,407.1 754.9,410.5 752.9,407.1 "/>
<polygon class="st0" points="750.8,407.1 748.9,410.5 746.9,407.1 "/>
<line class="st0" x1="686" y1="402.1" x2="704" y2="402.1"/>
<line class="st0" x1="725" y1="402.1" x2="749" y2="402.1"/>
<line class="st0" x1="837" y1="402.1" x2="846" y2="402.1"/>
<line class="st0" x1="852" y1="402.1" x2="873" y2="402.1"/>
<line class="st0" x1="755" y1="402.1" x2="766" y2="402.1"/>
<rect x="766.3" y="384.2" class="st0" width="70.5" height="36.3"/>
<line class="st0" x1="748.5" y1="397.6" x2="748.5" y2="406.6"/>
<line class="st0" x1="754.5" y1="397.6" x2="754.5" y2="406.6"/>
<line class="st0" x1="846.5" y1="397.6" x2="846.5" y2="406.6"/>
<line class="st0" x1="852.5" y1="397.6" x2="852.5" y2="406.6"/>
<polygon class="st0" points="587.5,398 587.5,407 597.4,402.5 "/>
<polygon class="st0" points="608.5,398 608.5,407 598.6,402.5 "/>
<line class="st0" x1="609" y1="402.1" x2="647" y2="402.1"/>
<line class="st0" x1="951" y1="402.1" x2="989" y2="402.1"/>
<line class="st0" x1="265" y1="402.1" x2="257" y2="402.1"/>
<path class="st0" d="M819.9,412.3h-36.5c-5.3,0-9.6-4.3-9.6-9.6v-1.3c0-5.3,4.3-9.6,9.6-9.6h36.5c5.3,0,9.6,4.3,9.6,9.6v1.3
	C829.5,408,825.2,412.3,819.9,412.3z"/>
<line class="st0" x1="778.1" y1="403.6" x2="775.5" y2="402.1"/>
<line class="st0" x1="801.5" y1="398.6" x2="801.5" y2="396.6"/>
<line class="st0" x1="785.1" y1="401" x2="783" y2="399"/>
<line class="st0" x1="793.2" y1="399.3" x2="792.5" y2="397.3"/>
<line class="st0" x1="810.6" y1="399.7" x2="812" y2="397.6"/>
<line class="st0" x1="818.3" y1="401.4" x2="820.7" y2="399.7"/>
<line class="st0" x1="781.7" y1="402.1" x2="779.2" y2="400.5"/>
<line class="st0" x1="789.3" y1="400" x2="787.6" y2="398"/>
<line class="st0" x1="797.6" y1="399" x2="797.1" y2="396.9"/>
<line class="st0" x1="806.3" y1="399" x2="807.2" y2="396.9"/>
<line class="st0" x1="814.6" y1="400.5" x2="816.5" y2="398.6"/>
<line class="st0" x1="821.7" y1="402.9" x2="824.5" y2="401"/>
<line class="st0" x1="824.5" y1="404" x2="827.4" y2="402.6"/>
<line class="st0" x1="801.5" y1="412.3" x2="798" y2="400.5"/>
<circle class="st0" cx="667.8" cy="401.6" r="11.8"/>
<polygon class="st2" points="662.5,411.3 679.3,401.6 662.5,391.9 "/>
<polygon class="st1" points="412,388.1 419,400.2 426,388.1 "/>
<polygon class="st1" points="412,416.1 419,404 426,416.1 "/>
<polygon class="st1" points="402.5,395 414.6,402 402.5,409 "/>
<polygon class="st1" points="1187.5,388.1 1180.5,400.2 1173.5,388.1 "/>
<polygon class="st1" points="1187.5,416.1 1180.5,404 1173.5,416.1 "/>
<polygon class="st1" points="1197.5,395 1185.4,402 1197.5,409 "/>
<line class="st0" x1="651.5" y1="398.6" x2="651.5" y2="405.6"/>
<line class="st0" x1="647.5" y1="398.6" x2="647.5" y2="405.6"/>
<line class="st0" x1="649.5" y1="394.6" x2="649.5" y2="408.6"/>
<line class="st0" x1="686.5" y1="398.6" x2="686.5" y2="405.6"/>
<line class="st0" x1="682.5" y1="398.6" x2="682.5" y2="405.6"/>
<line class="st0" x1="684.5" y1="394.6" x2="684.5" y2="408.6"/>
<line class="st0" x1="895" y1="402.1" x2="911" y2="402.1"/>
<circle class="st0" cx="931.8" cy="401.6" r="11.8"/>
<polygon class="st2" points="926.5,391.8 943.3,401.5 926.5,411.2 "/>
<line class="st0" x1="915.5" y1="398.6" x2="915.5" y2="405.6"/>
<line class="st0" x1="911.5" y1="398.6" x2="911.5" y2="405.6"/>
<line class="st0" x1="913.5" y1="394.6" x2="913.5" y2="408.6"/>
<line class="st0" x1="950.5" y1="398.6" x2="950.5" y2="405.6"/>
<line class="st0" x1="946.5" y1="398.6" x2="946.5" y2="405.6"/>
<line class="st0" x1="948.5" y1="394.6" x2="948.5" y2="408.6"/>
<line class="st0" x1="1011" y1="402.1" x2="1179" y2="402.1"/>
<line class="st0" x1="1333" y1="402.1" x2="1180" y2="402.1"/>
</svg>
