<?xml version="1.0" encoding="utf-8"?>
<!-- Generator: Adobe Illustrator 19.1.1, SVG Export Plug-In . SVG Version: 6.00 Build 0)  -->
<svg version="1.1" id="Layer_1" xmlns="http://www.w3.org/2000/svg" xmlns:xlink="http://www.w3.org/1999/xlink" x="0px" y="0px"
	 viewBox="-263 359.7 84.5 75.3" style="enable-background:new -263 359.7 84.5 75.3;" xml:space="preserve">
<style type="text/css">
	.st0{fill:#FFFFFF;}
	.st1{fill:none;stroke:#333333;stroke-width:2;stroke-miterlimit:10;}
	.st2{fill:none;stroke:#333333;stroke-miterlimit:10;}
	.st3{fill:none;stroke:#333333;stroke-width:0.5;stroke-miterlimit:10;}
</style>
<g>
	<path class="st0" d="M-250.7,416.1c0.3,0,0,0,0.3,0c21.9,0,43.9,0,65.8,0c3.2,0,3.2-0.1,4.3-3.1c0-0.1,0-0.2,0.1-0.2
		c1-3.1,1.3-6.3,1.3-9.5c0-1.4-0.1-2.8-0.1-4.2c-5.1,0.3-10.1,0.5-15.1-0.6c5,0.4,9.9-0.2,14.8-1.1c-0.2-1-0.3-1.9-0.5-2.7
		c-4.8,0.2-9.4,0.4-14,0.6v-0.1c4.5-0.7,9.1-1.4,13.7-2c-0.7-2.8-1.7-5.2-2.8-7.7c-0.3-0.7-0.8-0.9-1.5-0.7
		c-2.5,0.4-5.1,0.8-7.6,1.2c-1.4,0.2-2.8,0.4-4.1,0.6c0.3-2,0.6-3.9,0.8-5.8c0.1-1-0.3-1.6-1.3-1.8c-1-0.2-2-0.2-3-0.2
		c-0.3,0-0.8,0.3-1,0.5c-1.7,1.9-3.3,3.8-4.9,5.7c-0.6,0.7-1.1,1.3-1.7,2c1.4,1.7,3.3,2.6,5.2,3.5c-2.1-0.4-4.1-1.1-5.9-2.3
		c-0.4-0.3-0.9-0.4-1.4-0.5c-6.2-0.3-12.5-0.4-18.7-0.8c-6.2-0.4-12.5-1-18.7-1.6c-0.6,0-1.2-0.1-1.7-0.2c-0.6-0.1-1.2-0.1-2-0.2
		c2,1.2,3.1,2.9,3.9,4.8c1.7,4.1,2.1,8.5,1.9,12.9c0,0.7-0.1,1.5-0.2,2.3c3.4,0.5,6.8,1.1,10.2,1.5c3.4,0.4,6.8,0.7,10.1,1
		c-6.8,0.4-13.7-0.4-20.6-1c-0.3,1-0.5,1.9-0.8,3c4.5,0.7,9,1.3,13.5,2c-0.6,0.1-1.2,0.1-1.7,0c-3.8-0.2-7.6-0.3-11.5-0.5
		c-0.7,0-1,0.1-1.3,0.7C-248.1,413.6-248.7,415.2-250.7,416.1z"/>
	<path class="st0" d="M-261.5,400.3c0.3,2.2,0.5,4.5,0.9,6.6c0.5,2.6,1.4,5,3.1,7.1c2.4,2.4,5.1,2.7,7.3,0c0.8-1,1.5-2.2,2-3.4
		c2.3-6,2.4-12.2,0.8-18.4c-0.6-2.2-1.5-4.3-3.2-6c-2-2.1-4.5-2.1-6.4,0c-1,1.1-1.8,2.5-2.4,3.8
		C-260.9,393.3-261.3,396.8-261.5,400.3z"/>
	<path class="st1" d="M-251.3,416.1c2.6-0.9,3.2-2.5,4.1-4.4c0.3-0.6,0.6-0.7,1.3-0.7c3.8,0.2,7.6,0.4,11.5,0.5c0.6,0,1.2,0,1.7,0
		c-4.5-0.7-8.9-1.3-13.5-2c0.3-1,0.5-2,0.8-3c6.9,0.6,13.8,1.4,20.6,1c-3.3-0.3-6.7-0.6-10.1-1c-3.4-0.4-6.8-1-10.2-1.5
		c0.1-0.9,0.2-1.6,0.2-2.3c0.3-4.4-0.1-8.7-1.9-12.9c-0.8-1.9-1.9-3.6-3.9-4.8c0.8,0.1,1.4,0.1,2,0.2c0.6,0.1,1.2,0.1,1.7,0.2
		c6.2,0.5,12.5,1.2,18.7,1.6c6.2,0.4,12.5,0.5,18.7,0.8c0.5,0,1,0.2,1.4,0.5c1.8,1.3,3.8,2,5.9,2.3c-1.9-0.9-3.7-1.8-5.2-3.5
		c0.6-0.7,1.1-1.3,1.7-2c1.6-1.9,3.3-3.8,4.9-5.7c0.2-0.3,0.7-0.5,1-0.5c1,0,2,0,3,0.2c1,0.2,1.4,0.8,1.3,1.8
		c-0.2,1.9-0.5,3.8-0.8,5.8c1.3-0.2,2.7-0.4,4.1-0.6c2.5-0.4,5.1-0.8,7.6-1.2c0.7-0.1,1.2,0,1.5,0.7c1.1,2.4,2.1,4.9,2.8,7.7
		c-4.6,0.7-9.1,1.4-13.7,2v0.1c4.6-0.2,9.3-0.4,14-0.6c0.2,0.8,0.3,1.7,0.5,2.7c-5,0.9-9.9,1.4-14.8,1.1c4.9,1.1,9.9,0.9,15.1,0.6
		c0,1.4,0.1,2.8,0.1,4.2c0,3.2-0.3,6.4-1.3,9.5c0,0.1,0,0.2-0.1,0.2c-1,3-1.1,3.1-4.3,3.1c-21.9,0-43.9,0-65.8,0
		C-250.7,416.1-251,416.1-251.3,416.1z"/>
	<path class="st1" d="M-261.5,400.3c0.2-3.5,0.6-7,2-10.2c0.6-1.4,1.4-2.7,2.4-3.8c1.9-2.2,4.4-2.1,6.4,0c1.7,1.7,2.6,3.8,3.2,6
		c1.7,6.2,1.6,12.4-0.8,18.4c-0.5,1.2-1.2,2.4-2,3.4c-2.2,2.7-5.1,2.7-7.3,0c-1.7-2.1-2.6-4.5-3.1-7.1
		C-261,404.8-261.2,402.5-261.5,400.3z M-248.4,400.4c-0.2-1.5-0.3-3.1-0.5-4.6c-0.3-2.1-0.9-4.1-2.2-5.8c-1.6-2.1-3.9-2.2-5.5,0
		c-0.7,0.9-1.2,2-1.6,3.2c-1.4,4.3-1.4,8.6-0.4,13c0.4,1.7,1,3.4,2.2,4.8c1.5,1.7,3.5,1.8,5,0c0.6-0.8,1.1-1.6,1.5-2.6
		C-248.8,405.9-248.5,403.2-248.4,400.4z"/>
	<path class="st0" d="M-248.4,400.4c-0.1,2.7-0.4,5.4-1.5,8c-0.4,0.9-0.9,1.8-1.5,2.6c-1.5,1.8-3.5,1.7-5,0c-1.2-1.4-1.8-3-2.2-4.8
		c-1-4.3-1-8.7,0.4-13c0.4-1.1,0.9-2.2,1.6-3.2c1.6-2.2,3.8-2.1,5.5,0c1.3,1.7,1.9,3.7,2.2,5.8
		C-248.6,397.4-248.5,398.9-248.4,400.4z M-258,400.3c0.2,1.8,0.4,3.6,0.7,5.3c0.3,1.6,0.9,3.2,2,4.5c0.9,1,2,1.1,2.8,0
		c0.6-0.7,1.1-1.6,1.4-2.5c1.7-4.9,1.7-9.8-0.1-14.7c-0.3-0.9-0.9-1.7-1.5-2.5c-0.8-0.9-1.8-0.9-2.6,0c-0.6,0.6-1,1.4-1.4,2.2
		C-257.6,395.1-257.9,397.7-258,400.3z"/>
	<path class="st2" d="M-258,400.3c0.2-2.7,0.5-5.3,1.5-7.7c0.3-0.8,0.8-1.5,1.4-2.2c0.8-0.9,1.8-0.9,2.6,0c0.6,0.7,1.2,1.6,1.5,2.5
		c1.7,4.9,1.7,9.8,0.1,14.7c-0.3,0.9-0.8,1.8-1.4,2.5c-0.9,1.1-1.9,1-2.8,0c-1.2-1.3-1.7-2.9-2-4.5
		C-257.6,403.9-257.8,402.1-258,400.3z M-256.2,400.4c0.3,1.2,0.5,2.4,0.9,3.6c0.2,0.6,0.7,1.2,1.5,1.2s1.2-0.5,1.5-1.2
		c1-2.4,1-4.8,0-7.2c-0.3-0.6-0.7-1.2-1.5-1.2s-1.3,0.5-1.5,1.2C-255.7,398-255.9,399.2-256.2,400.4z"/>
	<path class="st0" d="M-256,401.1c-0.1-0.3-0.1-0.7,0-1c0.2-1.1,0.5-2.1,0.8-3.1c0.2-0.6,0.7-1.2,1.5-1.2s1.2,0.5,1.5,1.2
		c1,2.4,1,4.8,0,7.2c-0.3,0.6-0.8,1.5-1.6,1.5s-1.2-0.8-1.4-1.5C-255.5,403.2-255.7,402.2-256,401.1z M-253.8,403.9
		c1.1-1.3,1.1-5.3,0-6.6C-254.9,398.6-254.9,402.6-253.8,403.9z"/>
	<path class="st3" d="M-253.8,403.7c-1.1-1.3-1.1-5.3,0-6.6C-252.7,398.4-252.7,402.4-253.8,403.7z"/>
</g>
</svg>
