<?xml version="1.0" encoding="utf-8"?>
<!-- Generator: Adobe Illustrator 19.1.1, SVG Export Plug-In . SVG Version: 6.00 Build 0)  -->
<svg version="1.1" id="Layer_1" xmlns="http://www.w3.org/2000/svg" xmlns:xlink="http://www.w3.org/1999/xlink" x="0px" y="0px"
	 viewBox="-257.6 331.6 105.4 95.9" style="enable-background:new -257.6 331.6 105.4 95.9;" xml:space="preserve">
<style type="text/css">
	.st0{fill:#FFFFFF;stroke:#333333;stroke-width:2;stroke-miterlimit:10;}
	.st1{fill:#333333;}
</style>
<g>
	<g>
		<path class="st0" d="M-206.8,407.5c0,0,25.6-7.2,20.9-32.2c-4.9-25-11.1-28.9-5.6-39.3c5.5-10.5-24.7,18.1-32.6,39.5
			c-6.2,16.5-0.4,29.2,16.5,32.3"/>
		<path class="st0" d="M-213.3,414.6c0,0-19,6.6-27.2-15s-6.2-27.5-14.2-33.1c-8.1-5.5,23.3,2.2,37.8,15
			c11.1,9.9,13.4,22.3,4.3,32.8"/>
	</g>
	<path class="st0" d="M-157.4,369.5c7.3,7.6,1.7,25.7-8.2,35.9c-9.9,10.2-21.6,10-28.9,2.5c-7.3-7.5-7.5-19.7,2.4-30.1
		C-182.1,367.5-164.7,362-157.4,369.5z"/>
	<path class="st0" d="M-176.2,416.7c0-3.3,2.3-6.1,5.3-6.6c-3.6-14.5-14.4-25.4-14.4-25.4c-6.8,0.3-19,6.1-30.3,12.7
		c1,1.2,1.6,2.7,1.6,4.3c0,3.6-2.7,6.4-6.2,6.4c-2.9,0-5.2-1.9-5.9-4.6c-6.8,4.2-12.7,7.9-15.7,9.9c-1.4,0.9-0.3,2.2,0.7,2.7
		c21.9,7.6,70.7,10.2,70.7,10.2c0.3-0.9,0.3-1.8,0.4-2.7C-173.3,423.3-176.2,420.3-176.2,416.7z M-191.6,421.4
		c-2.6,0-4.5-2.1-4.5-4.6c0-2.7,2-4.6,4.5-4.6s4.5,2.1,4.5,4.6C-187.1,419.3-189.1,421.4-191.6,421.4z M-187.1,399.1
		c-1.6,0-3-1.3-3-3.1c0-1.8,1.3-3.1,3-3.1c1.7,0,3,1.3,3,3.1C-184.1,397.7-185.5,399.1-187.1,399.1z"/>
	<g>
		<g>
			<path class="st1" d="M-205.1,390.7c-1.7-13.2,1.3-25.6,6.2-37.7c0.3-0.6-0.7-0.9-1-0.3c-5,12.3-7.9,25-6.2,38.3
				C-206.1,391.7-204.9,391.4-205.1,390.7L-205.1,390.7z"/>
		</g>
	</g>
	<g>
		<g>
			<path class="st1" d="M-216.3,405.7c-0.9-5.5-3-10.6-6.6-15c-4.2-5.1-9.6-7.3-15-10.9c-0.6-0.4-1.2,0.6-0.6,0.9
				c4.7,3.1,9.8,5.1,13.8,9.6c3.9,4.3,6.2,9.7,7.2,15.6C-217.2,406.7-216.2,406.4-216.3,405.7L-216.3,405.7z"/>
		</g>
	</g>
	<g>
		<g>
			<path class="st1" d="M-218.6,395.9c0.6-3.9,0.1-7.6-1.4-11.2c-0.3-0.6-1.2-0.1-0.9,0.6c1.4,3.3,1.9,6.9,1.3,10.3
				C-219.8,396.2-218.6,396.5-218.6,395.9L-218.6,395.9z"/>
		</g>
	</g>
	<g>
		<g>
			<path class="st1" d="M-226.4,386.2c-0.4-2.1-1.4-4-2.7-5.7c-0.4-0.6-1.2,0.3-0.7,0.7c1.2,1.5,2,3.3,2.4,5.2
				C-227.2,387.3-226.2,387-226.4,386.2L-226.4,386.2z"/>
		</g>
	</g>
	<g>
		<g>
			<path class="st1" d="M-219.6,398.3c-4.3,0-8.2-2.5-11.4-5.2c-0.6-0.4-1.3,0.3-0.7,0.7c3.5,3,7.6,5.5,12.2,5.5
				C-218.9,399.5-218.9,398.5-219.6,398.3L-219.6,398.3z"/>
		</g>
	</g>
	<g>
		<g>
			<path class="st1" d="M-225.8,387.9c-2.7,0.3-5.5,0.1-8.2-0.6c-0.7-0.1-1,0.9-0.3,1c2.9,0.6,5.6,0.9,8.5,0.6
				C-225.1,388.9-225.1,387.9-225.8,387.9L-225.8,387.9z"/>
		</g>
	</g>
	<g>
		<g>
			<path class="st1" d="M-205.1,387c0-6.9,7-13.6,11.9-17.7c0.6-0.4-0.3-1.2-0.7-0.7c-5,4-12.2,11.2-12.2,18.4
				C-206.2,387.6-205.1,387.6-205.1,387L-205.1,387z"/>
		</g>
	</g>
	<g>
		<g>
			<path class="st1" d="M-206,384.6c0.3-7.3-3.9-12.9-8.2-18.2c-0.4-0.6-1.2,0.3-0.7,0.7c4.2,5.1,8.2,10.5,7.8,17.4
				C-207.1,385.3-206,385.3-206,384.6L-206,384.6z"/>
		</g>
	</g>
	<g>
		<g>
			<path class="st1" d="M-204.2,369.8c1-2.5,3.2-4,5.3-5.5c0.6-0.4,0-1.3-0.6-0.9c-2.4,1.6-4.7,3.3-5.9,6.1
				C-205.5,370.1-204.5,370.4-204.2,369.8L-204.2,369.8z"/>
		</g>
	</g>
	<g>
		<g>
			<path class="st1" d="M-203.8,368.1c0.1-2.4,0.3-4.6-0.6-6.9c-0.6-1.6-0.9-3.9-2-5.1c-0.4-0.4-1.3,0.3-0.7,0.7
				c1,1,1.3,3.4,1.9,4.8c0.7,2.1,0.6,4.2,0.4,6.4C-204.9,368.7-203.8,368.7-203.8,368.1L-203.8,368.1z"/>
		</g>
	</g>
</g>
</svg>
