<?xml version="1.0" encoding="utf-8"?>
<!-- Generator: Adobe Illustrator 19.1.1, SVG Export Plug-In . SVG Version: 6.00 Build 0)  -->
<svg version="1.1" id="Layer_1" xmlns="http://www.w3.org/2000/svg" xmlns:xlink="http://www.w3.org/1999/xlink" x="0px" y="0px"
	 viewBox="-248 364.5 53.8 67.9" style="enable-background:new -248 364.5 53.8 67.9;" xml:space="preserve">
<style type="text/css">
	.st0{fill:none;stroke:#333333;stroke-width:2;stroke-miterlimit:10;}
	.st1{fill:none;stroke:#333333;stroke-miterlimit:10;}
</style>
<g>
	<path class="st0" d="M-219.1,424.3c0,1.3,0,2.5,0,3.7c0,1.9-0.5,2.7-1.8,2.7c-1.3,0-1.8-0.8-1.8-2.8c0-1.1,0-2.2,0-3.3
		c0-0.1,0-0.1-0.1-0.3c-1.1-0.1-2.3-0.2-3.4-0.5c-7.2-1.4-12.4-7.9-11.4-16.5c0.2-1.6,1.4-1.8,2.4-1.8c-0.8-2.2-1.7-4.4-2.2-6.6
		c-0.3-1.4-0.2-3-0.1-4.5c0.1-1.2,0.7-1.6,2.4-1.8c-0.7-2.2-1.7-4.3-2.2-6.6c-0.3-1.4-0.2-3-0.1-4.5c0-1.1,0.7-1.6,1.8-1.8
		c2.7-0.3,5.2,0.1,7.9,1c0-1.5-0.1-2.9,0-4.3c0.5-4,2.6-7.2,5.6-9.7c1-0.8,1.8-0.8,2.8,0c4.3,3.6,6.3,8.1,5.7,13.8
		c1.5-0.3,3-0.7,4.5-0.9c1.1-0.1,2.2-0.1,3.2,0c1.3,0.1,1.8,0.7,1.9,2c0.3,3.7-0.4,7.2-2.5,10.3c-0.1,0.1-0.1,0.3-0.2,0.5
		c0.4,0.1,0.7,0.1,0.9,0.1c1.1,0.2,1.7,0.8,1.8,1.9c0.3,3.7-0.3,7.1-2.4,10.2c-0.1,0.2-0.2,0.4-0.4,0.7c0.4,0,0.7,0.1,1,0.1
		c1.1,0.1,1.7,0.7,1.8,1.8c1.2,8.6-4.8,16.1-13.5,16.7C-218,424.2-218.5,424.3-219.1,424.3z M-220.9,386.6c5.6-5.3,3.9-13-0.1-16
		C-225.7,374.9-225.7,382.5-220.9,386.6z M-219,394.7c6.5,0.3,12.4-5.8,11.2-11.4C-214.1,382.9-219.7,388.6-219,394.7z M-219,407.6
		c7.7,0.2,11.8-6.4,11.2-11.3C-213.8,395.7-219.7,401.6-219,407.6z M-222.9,394.7c0.9-5.6-4.6-12-11.2-11.3
		C-234.5,388.5-230.7,394.8-222.9,394.7z M-222.8,420.6c0.7-6.2-5.8-12.6-11.3-11.2C-234.5,415.6-229.1,421-222.8,420.6z
		 M-234.1,396.3c-0.3,7.5,6,11.8,11.3,11.3C-222,401.7-227.9,395.8-234.1,396.3z M-218.9,420.5c6.6,0.5,11.9-5.4,11.2-11.3
		C-214.1,408.8-219.8,414.6-218.9,420.5z"/>
	<line class="st1" x1="-210.5" y1="375.2" x2="-206.7" y2="368.6"/>
	<line class="st1" x1="-209.5" y1="376.5" x2="-200.7" y2="370.6"/>
	<line class="st1" x1="-231.1" y1="375.2" x2="-234.9" y2="368.6"/>
	<line class="st1" x1="-232.1" y1="376.5" x2="-241" y2="370.6"/>
	<line class="st1" x1="-202" y1="389.1" x2="-198.7" y2="386.6"/>
	<line class="st1" x1="-202" y1="391.1" x2="-197" y2="390.5"/>
	<line class="st1" x1="-199.5" y1="402.2" x2="-196.2" y2="399.7"/>
	<line class="st1" x1="-199.5" y1="404.2" x2="-194.6" y2="403.6"/>
	<line class="st1" x1="-242.3" y1="402.2" x2="-245.6" y2="399.7"/>
	<line class="st1" x1="-242.3" y1="404.2" x2="-247.2" y2="403.6"/>
	<line class="st1" x1="-240.7" y1="389.1" x2="-244" y2="386.6"/>
	<line class="st1" x1="-240.7" y1="391.1" x2="-245.6" y2="390.5"/>
</g>
</svg>
