<?xml version="1.0" encoding="utf-8"?>
<!-- Generator: Adobe Illustrator 19.1.1, SVG Export Plug-In . SVG Version: 6.00 Build 0)  -->
<svg version="1.1" id="Layer_1" xmlns="http://www.w3.org/2000/svg" xmlns:xlink="http://www.w3.org/1999/xlink" x="0px" y="0px"
	 viewBox="0 0 6.7 15.9" style="enable-background:new 0 0 6.7 15.9;" xml:space="preserve">
<style type="text/css">
	.st0{fill:#F93F26;}
	.st1{fill:#FFFFFF;}
	.st2{fill:#39B54A;}
</style>
<g>
	<rect x="-236" y="-9.3" class="st1" width="250" height="60.4"/>
	<path class="st2" d="M14.1,44.1l-0.2,0.2l0-0.1l0.1,0.2c0,0.2,0.1,0.3,0.1,0.4c0,0.1,0,0.2,0,0.3L14.1,44.1L12.9,43
		c0,0,0.1-0.1,0.1-0.1c-0.2-0.1-0.3-0.2-0.6-0.4l0.7-0.4l0.3,0.5c0.3-0.2,0.1-0.4,0.2-0.4c0.1,0,0.4,0.2,0.4,0.6V40c0,0,0,0,0,0
		c0,0,0,0,0,0V18c0,0,0.1-0.1-0.1-0.4c-0.3-0.3-0.3-0.6-0.3-0.9c0.1-0.1,0-0.3,0.2-0.6c0.1-0.2,0.2-0.4,0.2-0.6v-1
		c0,0.1,0.2,0.1,0.2,0.1c0,0,0-0.1-0.3-0.4l0.3-0.5c0,0-0.3,0-0.3,0v-23h-44.6c0.4,1,0.8,0.8,1.3,1.3l-0.3,0.3
		c-0.1,0-0.3,0.1-0.5,0.3l-2.4-1.9h-4c-0.2,1-0.4,1.2-0.8,2.1l-1.5-1.9l0.1-0.1h-4.5l0.7,2.1c0.1,0-0.2,0-0.1,0L-43-7.1v-0.1l0-0.2
		l-0.6-1.9H-48v0.1l0.8-0.1h-3.7l0.9,1.6c0,0-0.1,0.3-0.5,0.8L-52-9.3h-5.4l0.2,0.4c-0.1,0.1-0.2,0.5-0.3,0.7
		C-57.7-8-57.9-7.3-58-7.3c0,0,0,0,0,0h0.2c0.1,0,0.1,0.5,0.1,0.8c0,0-0.1,0.2-0.2,0.2h-0.2c0,0-0.2-0.7-0.3-1.2
		c0,0,0.1-0.1,0.1-0.1c-0.4-0.4-0.6-0.8-0.6-0.8c0-0.1,0.2,0.2,0.5-0.8h-5l0,0.1l-0.6,0.1L-65-9.2v-0.1h-14l0.2,0.2
		c-0.1,0-0.1,0.1-0.1,0.1c0,0.1,0,0.2-0.1,0.3l-0.2-0.2l-0.3-0.3c0.1,0,0.2-0.1,0.2-0.1H-88c0,0-0.1,0.1-0.1,0.2
		c-0.4,0.5-1,1.1-1.6,1.9c0-0.8-0.1-1.1-0.1-2.1h-42.7l-0.1,0.1c0,0-0.1-0.1-0.2-0.1H-236v25.6c0-0.2,1-0.3,1.1-0.3
		c0.2,0,0.4,0.2,0.7,0.6c0,0,0,0.1-0.1,0.3c-0.1,0.1-0.3,0.2-0.3,0.2l-1.4-0.8v35.4h180.5l-0.6-0.8c0.5-0.4,0.8-0.6,0.8-0.6
		c0.1,0,0.5,0.3,1.2,0.9c-0.2,0.1-0.3,0.3-0.4,0.4c0,0,0,0.1,0,0.1h14.2c-0.1,0-0.1-0.8-0.2-1c0-0.3-0.1-0.6-0.1-0.6l0.1-0.2
		c0-0.1,0.2-0.3,0.5-0.6l0.5,1.7l-0.6,0.7h1.2c0,0-0.1-0.2-0.1-0.3c-0.1-0.1-0.2-0.3-0.4-0.5c0.6,0,1,0.1,1.1,0.2
		c0.1,0.1,0.3,0.6,0.5,0.6h2.6c0.1,0,0.2-0.3,0.2-0.4c0.1-0.2,0.3-0.5,0.6-0.8c0.2-0.2,0.4-0.5,0.7-0.9l-0.4,0.3
		c-0.1,0-0.2-0.1-0.4-0.1c-0.3-0.1-0.6-0.2-1-0.4c0.4-0.3,0.8-0.5,1.1-0.7c-0.3,0.1-0.6,0.3-1,0.4l-1,0.1c0.7-0.7,1.1-1.1,1.2-1.2
		l1.2-2c0.1,0.8,0.2,1.3,0.2,1.7c0,0-0.1,0-0.1,0c0.1,0.1-0.1,0.2-0.1,0.3v0.1c0,0.1,0.1,0.1,0.1,0.1c0,0,0.1,0.1,0.1,0.1
		c0,0,0,0,0,0c0.4-0.2,0.6-0.4,0.7-0.4c0,0,0.3,0.1,0.9,0.5l-1.2,1.1c0.4,1.1,0.6,2.2,0.6,2.2h0.9c0.2-1,0.3-1.2,0.4-1.6
		c0.2-0.6,0.3-1.1,0.4-1.3l1.2-0.9c0.1,0.3,0.1,0.5,0.2,0.7c0.1,0.2,0.1,0.4,0.2,0.5c0,0.2,0.1,0.3,0.1,0.4c-0.2,0.2-0.5,0.7-1,1.1
		c-0.3,0.3-0.5,1-0.9,1h13.5c-0.5-1-0.8-1.2-0.8-1.3c0,0,0.3-0.6,1.2-1.4c0.3,0.5,0.6,0.8,0.8,1.1c0.2,0.3,0.4,0.6,0.5,0.8l-0.3,0.8
		H10v-0.3l0.6,0c0,0,0.3,0.3,0.3,0.3H14v-7.7C14,44,14.2,44,14.1,44.1z M-235.2,27.6c-0.1-0.1-0.1-0.2-0.2-0.3h0.2c0,0,0,0.1,0,0.1
		c0,0,0,0,0,0.1l0.1,0.1L-235.2,27.6z M-234.7,23.6c0,0-0.1-0.1-0.1-0.2c0,0,0.1-0.1,0.2-0.1h0.1c0,0,0.1,0,0.1,0.1
		c0,0,0,0.1,0.1,0.2c-0.1,0-0.1,0-0.2,0.1H-234.7z M-234.3,34.4L-234.3,34.4h-0.2l0.1-0.1v-0.1h0.1c0,0,0.1,0,0.1,0.1
		C-234.2,34.3-234.3,34.4-234.3,34.4z M-79.9,9v0.2C-80,9.3-80,9.3-80,9.4c-0.1,0-0.2,0-0.4-0.1l0.1-0.4C-80.1,8.9-80,9-79.9,9z
		 M-80.3,4.6c0,0.2-0.1,0.3-0.2,0.4l0,0c0,0.1,0.1,0.2,0.1,0.3c0,0.1,0,0.1,0,0.1c0,0-0.1,0-0.1,0.1c0,0-0.1,0.1-0.1,0.1
		c0,0-0.1,0-0.1,0.1l-0.2-0.3c-0.2,0.1-0.4,0.2-0.6,0.3c-0.1,0-0.3-0.1-0.5-0.3c-0.3-0.3-0.4-0.5-0.4-0.7c0.1-0.1,0.2-0.3,0.4-0.5
		c0.1-0.2,0.3-0.3,0.5-0.6c0.2-0.2,0.4-0.5,0.7-0.9C-80.5,3.9-80.3,4.5-80.3,4.6z M-82.2,1.9l1-1.5c0.1,0.6,0.1,1,0.2,1.3
		c0,0-0.5,0-0.5,0c0.1,0.1-0.4,0.2-0.4,0.2v0.1c0,0,0.5,0.1,0.4,0.1c0,0,0.2,0,0.2,0.1c-0.1,0.1-0.4,0.3-1.1,0.6l-0.7,0.1
		C-82.6,2.3-82.2,1.9-82.2,1.9z M-82.4,4.7l-0.1,0.1l-0.1-0.1H-82.4z M-83.6,4.6l0.2,0.2l-0.2,0.2V4.6z M-85.6,6.2l0.1,0.2l0.2,0.1
		l-0.1,0.2l-0.3-0.3L-85.6,6.2z M-86.1,4.7c-0.1-0.4-0.1-0.7-0.2-0.9c0-0.2-0.1-0.4-0.1-0.5l0.1-0.1c0-0.1,0.2-0.2,0.4-0.4l0.4,1.2
		L-86.1,4.7z M-85.4,4c0.5,0,0.8,0,0.8,0.1c0.2,0.1,0.5,0.5,0.8,1.1l-0.4,0.3c-0.3-0.3-0.5-0.6-0.6-0.7c-0.1-0.2-0.2-0.3-0.3-0.3
		c0,0-0.1-0.1-0.1-0.2C-85.2,4.3-85.3,4.2-85.4,4z M-83.9-6.6l0.1,0.2L-84-6.5L-83.9-6.6z M-84.6-2.4c0.2,0.1,0.4,0.2,0.7,0.4
		l-0.5,0.3l-1.5-0.7l1-0.2C-84.9-2.5-84.7-2.4-84.6-2.4z M-86.3-6l0.4,0.3c0,0,0,0.1-0.1,0.1c-0.1,0.1-0.1,0.2-0.2,0.3
		c-0.1-0.1-0.2-0.1-0.3-0.2c0,0-0.1-0.1-0.1-0.1C-86.5-5.7-86.4-5.9-86.3-6z M-87.9,15.2l0.1-0.2l0.2,0.2V15l0.2,0.1l-0.2,0.1v-0.1
		L-87.9,15.2z M-89.7,4.5C-89.7,4.5-89.8,4.5-89.7,4.5c-0.1,0.1-0.1,0-0.1,0c0,0,0-0.1,0-0.1c0,0,0,0,0-0.1c0.1,0,0.1,0.1,0.2,0.1
		c0,0,0.1,0,0.1,0.1L-89.7,4.5z M-89.5,18.5l0.1,0.2h-0.2L-89.5,18.5z M-88.3,22.9l0.2,0.3l0.2,0.3l-2.3,0.6
		C-90.1,24.1-89.5,23.7-88.3,22.9z M-88.8,0.5l-0.4-0.3l0.1-0.3l0.2,0.2c0.1,0.1,0.2,0.1,0.2,0.1L-88.8,0.5z M-88.6,7.3
		C-88.6,7.4-88.5,7.4-88.6,7.3c0.1,0.1,0.2,0.2,0.3,0.2l-0.3,0.2c0-0.2-0.1-0.3-0.1-0.3L-88.6,7.3z M-88,6.2c0,0,0.1-0.1,0.1-0.1
		l0.1-0.1c0,0,0.1,0,0.1,0c0,0,0,0,0.1,0c0,0,0.1,0,0.1,0.1l-0.1,0.2L-88,6.2z M-87.7,3c-0.2-0.6-0.3-0.9-0.3-1l0.3-0.2l0.3-0.1
		l0.6,0.6l-0.4,0.3C-87.4,2.8-87.6,3-87.7,3z M-87.1,0.2c-0.1,0.1-0.2,0.2-0.3,0.3c-0.1,0.1-0.2,0.2-0.2,0.2l-1-0.7
		c-0.1-0.1-0.3-0.1-0.4-0.2l0.6-1c0.2,0.1,0.4,0.3,0.6,0.4c0.2,0.1,0.6,0.3,1.2,0.7C-86.9,0-87,0.1-87.1,0.2z M-88.4-3.1L-88.4-3.1
		l0.1-0.2h0.1c0,0,0.1,0,0.1,0.1c0,0-0.1,0.1-0.1,0.1V-3L-88.4-3.1z M-89.3-6.3c0,0,0.2,0,0.4,0c0.2,0,0.5,0.1,0.9,0.2
		c-0.1,0.7-0.2,1.1-0.2,1.1c-0.7,0.3-1.2,0.4-1.5,0.2C-89.8-5-90-5.6-90.4-6.4C-89.7-6.3-89.4-6.3-89.3-6.3z M-92.9-8.4l0.1,0.2
		c0,0,0,0,0,0c-0.1,0-0.1,0-0.2,0l-0.2-0.1L-92.9-8.4z M-93.5,6c0,0-0.1,0-0.1,0c-0.1-0.1-0.2-0.2-0.2-0.2c0.2-0.2,0.4-0.3,0.4-0.3
		l0.3,0.3L-93.5,6z M-93.1,7.4l0.9,0.7c-0.4,0.6-0.6,0.9-0.6,1c-0.4-0.5-0.6-0.8-0.6-0.9C-93.4,8.2-93.3,7.9-93.1,7.4z M-94.8,6.6
		l0,0.1L-95,6.7L-94.8,6.6z M-95.1,5.2l0.1,0.2h-0.2L-95.1,5.2z M-95.8,12.8V13l-0.2-0.1L-95.8,12.8z M-96.5,31.2c0.1,0,0.1,0,0.1,0
		c0.2,0,0.3,0,0.5,0.1C-96.1,31.3-96.3,31.3-96.5,31.2c-0.1,0.1-0.2,0.1-0.3,0.1C-96.7,31.3-96.6,31.2-96.5,31.2z M-98.3-0.7
		c0,0,0.1-0.1,0.1-0.1c0.1,0,0.3,0.1,0.6,0.2c-0.3,0.2-0.5,0.3-0.6,0.3c0,0-0.2-0.1-0.6-0.3L-98.3-0.7z M-97,31.5l-0.4,0.9
		c0,0-0.1,0-0.2-0.2L-97,31.5z M-99.5,5.9c-0.4-0.9-0.8-2.1-1.2-3.5C-98.2,2.6-97.8,3.7-99.5,5.9z M-98.6,19.1
		c0.1,0.4,0.1,0.8,0.2,1.2c0,0-0.1,0.1-0.1,0.2c0,0.1-0.1,0.1-0.1,0.2c-0.1,0.1-0.1,0.1-0.2,0.3c-0.1-0.1-0.2-0.2-0.3-0.3
		c-0.1-0.1-0.2-0.1-0.3-0.2c-0.1-0.1-0.2-0.1-0.2-0.1c-0.2-0.4-0.4-0.9-0.5-1.3c-0.2-0.5-0.3-1-0.5-1.5c0.1,0,0.3-0.1,0.4-0.2
		c0.1-0.1,0.3-0.2,0.5-0.2c0.2-0.1,0.4-0.2,0.6-0.3c0.2,0.6,0.3,0.9,0.3,0.9C-98.8,18.3-98.7,18.7-98.6,19.1z M-98.8,15.6v-0.2
		l0.2,0.1L-98.8,15.6z M-99.3,14.5l-0.5-0.1l0.3-0.3c0.1-0.1,0.2-0.1,0.2,0.1C-99.3,14.1-99.3,14.2-99.3,14.5z M-100.5,12.4
		c0,0-0.1,0-0.2-0.1c-0.2-0.2-0.4-0.3-0.5-0.5c0.6-0.2,0.9-0.3,0.9-0.2c0,0,0.2,0.2,0.5,0.5C-100.2,12.3-100.5,12.4-100.5,12.4z
		 M-100.4,6L-100.4,6l0.2-0.1L-100.4,6z M-100.9-0.6c0.5,0.1,0.9,0.2,1.3,0.2l-1.1,2.7c-0.2-0.1-0.3-0.1-0.3-0.2l-1.6-3.1
		C-102-0.8-101.4-0.7-100.9-0.6z M-101.5,33.5v0.2h-0.2c-0.1-0.1-0.1-0.2,0.1-0.2H-101.5z M-102,38.1c-0.3,0.3-0.5,0.4-0.6,0.5
		l-0.1-0.2C-102.3,38.2-102,38.1-102,38.1C-101.8,38.1-101.8,38.1-102,38.1z M-102.8,4.6C-102.7,4.6-102.7,4.6-102.8,4.6
		c0,0,0,0.1-0.1,0.3c0,0,0-0.1,0-0.1s0-0.1,0-0.1L-102.8,4.6z M-102.7,17.9l-0.2,0.1v-0.2L-102.7,17.9z M-107.4,22.7L-107.4,22.7
		l-0.6-0.4v0.4H-107.4l0-0.3c0,0,0-0.1-0.1-0.1c0,0,0.1-0.1,0.1-0.1c0.5-1.5,1.5-2.3,2.8-2.1c0,0,0.1,0,0.3,0.1
		c0.2,0,0.5,0.1,0.9,0.2c-0.4,0.6-0.6,0.9-0.6,0.9c-0.3,0.1-1.5,0.4-3.4,0.9l0,0.3C-107.2,22.4-107.2,22.7-107.4,22.7z M-107.1,17
		l0.6-0.5l1.2,2.1c0,0-0.1,0.3-0.4,0.7L-107.1,17z M-104.4,6.4C-104.4,6.4-104.4,6.4-104.4,6.4c0-0.1,0.1-0.1,0.1-0.1l0.3,0.1l0,0.1
		l-0.1,0.1L-104.4,6.4L-104.4,6.4z M-103.8,10.1l-1.6,0.6l-1-1c1.2-0.3,1.8-0.4,1.9-0.4C-104.5,9.3-104.2,9.6-103.8,10.1z M-105-2.8
		l-0.1,0.1l-0.1-0.1H-105z M-106.7-6.5l0.3,0.6l-1.2,0.1C-107.7-5.7-107.4-5.9-106.7-6.5z M-107.7-5.7L-107.7-5.7l-0.1-0.1
		L-107.7-5.7z M-108.4,18.2c0.1-0.1,0.3-0.2,0.4-0.3l1.2,1.8c0,0-0.2,0.3-0.6,0.7l-1-2.1C-108.5,18.3-108.4,18.2-108.4,18.2z
		 M-108.4,20.5L-108.4,20.5c0.1,0,0.1,0.1,0.2,0.2c-0.1,0-0.1,0-0.2,0L-108.4,20.5C-108.4,20.5-108.4,20.5-108.4,20.5z M-109,12.6
		C-109,12.6-109,12.7-109,12.6L-109,12.6c0,0.2,0,0.3,0,0.3l-0.1-0.3C-109.1,12.6-109,12.6-109,12.6z M-107.9,22.1
		c0.1-0.1,0.4,0.1,0.9,0.4l-0.6,0.7c0.1,0.1,0.2,0.2,0.2,0.3c0,0-0.1,0.2-0.4,0.6c-0.1-0.1-0.2-0.2-0.3-0.3l-0.1,0.1
		c-0.2-0.2-0.5-0.3-0.7-0.5s-0.5-0.4-0.7-0.6C-108.5,22.3-107.9,22.1-107.9,22.1z M-110.3,14.7c0.2,0.2,0.3,0.4,0.3,0.5l-0.6,1.3
		c-0.8-1-1.2-1.6-1.2-1.7c0,0,0.3-0.4,0.9-1C-110.6,14.2-110.4,14.5-110.3,14.7z M-111.7,20.9C-111.7,20.9-111.8,20.9-111.7,20.9
		l-0.4-0.1c0.2-0.1,0.4-0.2,0.4-0.2c0.1,0,0.2,0.1,0.4,0.2C-111.5,20.8-111.6,20.9-111.7,20.9z M-111.6,22.5
		C-111.6,22.6-111.6,22.6-111.6,22.5c-0.1,0.1-0.1,0.1-0.1,0.1L-111.6,22.5C-111.7,22.6-111.6,22.6-111.6,22.5z M-111.4,8.3h-0.2
		c-0.1,0-0.1,0-0.2,0c-0.1,0-0.2,0-0.3,0c0.2-0.4,0.3-0.7,0.3-0.7h0.2c0.1,0,0.2,0.1,0.2,0.1C-111.2,8-111.3,8.2-111.4,8.3z
		 M-111.9,1.9V1.7l0.2,0.1L-111.9,1.9z M-113.1-1.2c0.1-0.4,0.3-0.8,0.4-1.1c0.1,0,0.1,0,0.2-0.1c0.1-0.1,0.1-0.1,0.2-0.2
		c0.1-0.1,0.2-0.1,0.3-0.2c0.1,0.1,0.1,0.2,0.2,0.2c0,0,0.1,0.1,0.1,0.2c0,0.1,0.1,0.1,0.1,0.1c0,0.3-0.1,0.7-0.1,1
		c-0.1,0.3-0.1,0.7-0.2,1.2c0,0-0.1,0.3-0.3,0.8c-0.2-0.1-0.4-0.2-0.5-0.2c-0.2-0.1-0.3-0.1-0.4-0.2c-0.1-0.1-0.3-0.1-0.3-0.1
		C-113.3-0.4-113.2-0.8-113.1-1.2z M-113.5,4.6c0.1-0.1,0.1-0.1,0.2-0.1s0.2,0.1,0.6,0.3c-0.3,0.3-0.4,0.4-0.4,0.4
		c0,0-0.3,0-0.8-0.2C-113.8,4.8-113.6,4.7-113.5,4.6z M-114.7,6.5l-0.5,1.5l-0.6-0.8l-0.6-0.9c0.6-0.5,0.9-0.7,0.9-0.7
		C-115,5.9-114.7,6.2-114.7,6.5z M-114.7,23.5c0,0-0.1,0.1-0.3,0.2l-0.3-0.5l0,0c0,0,0.1,0,0.1,0c0.1-0.1,0.2-0.1,0.2-0.1l0.4,0.4
		C-114.6,23.4-114.6,23.5-114.7,23.5z M-114.2,26.6c-0.2,0.4-0.3,0.5-0.3,0.5c0,0.1-0.2,0-0.7-0.1l0.3-0.5c0-0.1,0-0.1,0-0.1
		L-114.2,26.6z M-115.1,17.4l-0.2-0.1c0-0.1,0-0.1,0-0.1s0-0.1,0-0.1C-115.1,17.3-115,17.4-115.1,17.4
		C-115,17.5-115,17.5-115.1,17.4z M-116.9,12.7c-0.1,0-0.7-0.1-1.9-0.4l1-1l1.6,0.6C-116.5,12.5-116.8,12.7-116.9,12.7z
		 M-116.3,15.6l-0.3,0.1c0,0,0-0.1,0-0.1c0,0,0,0,0-0.1v-0.1l0.2-0.1L-116.3,15.6L-116.3,15.6z M-118.7,5.5l-0.6-0.5l1.4-2.3
		c0.3,0.4,0.4,0.7,0.4,0.7L-118.7,5.5z M-117.2,7.4c0.1,0.1,0.1,0.2,0.1,0.2c0,0.1,0,0.1,0,0.2c0,0.1,0,0.1,0,0.1
		c-0.2,0.4-0.5,0.7-0.8,0.9c0,0.1-0.3,0-0.9-0.1l0.9-0.8L-117.2,7.4z M-115.4-0.1v-0.2l0.2,0.1L-115.4-0.1z M-115.7-5.3
		c0.2-0.1,0.3-0.2,0.4-0.2l0.1-0.2L-115-7c0,0.1,0,0.1,0,0.2c0,0.1,0,0.2-0.1,0.4l-0.2,0.6l-0.6,1.3l-0.6-0.3
		C-116.2-5-115.9-5.2-115.7-5.3z M-118.7-6.4L-118.7-6.4l-0.2-0.2L-118.7-6.4z M-118.8-6.2c-0.1,0.3-0.2,0.6-0.3,0.9
		c-0.1,0.3-0.3,0.7-0.4,1.1C-120.4-5.5-120.2-6.2-118.8-6.2z M-122.8-8.6l0.2,0.2l-0.2,0.2V-8.6z M-123.9,13c0,0,0.1-0.1,0.3-0.2
		c0.1,0.1,0.1,0.2,0.1,0.2v0.1c0,0.1,0,0.1-0.1,0.1s-0.1,0-0.1,0c0,0-0.1,0-0.2,0c0-0.1,0-0.1,0-0.1
		C-123.9,13.2-123.9,13.2-123.9,13L-123.9,13z M-124.5,15.5c0.1-0.2,0.3-0.3,0.5-0.6c0.2-0.2,0.4-0.5,0.7-0.9
		c0.4,1.1,0.5,1.7,0.5,1.9c-0.2,0.5-0.6,0.9-1.2,1.1c-0.1,0-0.3-0.1-0.5-0.3c-0.3-0.3-0.4-0.5-0.4-0.7
		C-124.8,15.9-124.7,15.7-124.5,15.5z M-128.4-0.5l-0.3-0.1c-0.1-0.1-0.2-0.2-0.2-0.4L-128.4-0.5z M-129.2-1.2
		C-129.1-1.1-129.1-1.1-129.2-1.2L-129.2-1.2C-129.1-1.1-129.1-1.1-129.2-1.2l-0.1,0.2L-129.2-1.2z M-129.9,19.8
		c0.3,2,0.3,3,0.2,3.1c-0.1,0.1-1,0.8-2.8,2.2c0.2-2,0.3-3.1,0.3-3.2l1.2-2.3l0.5,0.2C-130.2,19.8-130.1,19.8-129.9,19.8z
		 M-131.6,16.4c0.1,0,0.1-0.1,0.1-0.2c0-0.1,0-0.1,0-0.2c0-0.1,0-0.2,0-0.3l0.6,0.3l-0.2,0.6c-0.2-0.1-0.3-0.2-0.4-0.2
		C-131.5,16.4-131.6,16.4-131.6,16.4z M-131.1-7.6c0.1,0,0.2,0.1,0.3,0.3l0.3,0.2l-0.4,0.4l-0.2-0.1l-0.2-0.1
		C-131.3-6.9-131.3-7.2-131.1-7.6z M-131.4-5.4c0.1,0.1,0.2,0.3,0.3,0.4c-0.2,0.2-0.4,0.3-0.6,0.4l-0.5-0.7c0.4-0.2,0.6-0.3,0.6-0.3
		C-131.4-5.5-131.4-5.4-131.4-5.4z M-131.9-5.7l0.1,0.2c0,0-0.1,0-0.2,0.1l-0.1,0.1l-0.1-0.2L-131.9-5.7z M-132-0.1
		C-132-0.1-132-0.1-132-0.1l0.1,0.7h-0.4c0,0.1-0.1-0.1-0.2-0.5C-132.2-0.1-132.1-0.1-132-0.1z M-134.2-9.2l-0.1,0.2l-0.1-0.2
		H-134.2z M-135.3-7.6c0.1-0.1,0.3-0.2,0.4-0.3l1.2,1.8c0,0-0.2,0.3-0.6,0.7l-1-2.1C-135.4-7.5-135.4-7.5-135.3-7.6z M-137.5,14.5
		L-137.5,14.5c0.1,0,0.1,0,0.2,0c0,0,0.1,0,0.3,0.1l-0.2,0.3l-0.3-0.3L-137.5,14.5z M-138.3-0.8l0.2,0.4l-0.2-0.1
		c-0.1,0-0.1,0-0.1-0.1C-138.3-0.6-138.3-0.7-138.3-0.8z M-140.3,29.2l-0.2,0.1l0-0.2L-140.3,29.2z M-141.9-2
		c0.2,0.1,0.4,0.3,0.6,0.5l0.5,0.4l-1,0.8l-0.9-0.9L-141.9-2z M-142.6,4.4l0.2-0.2c0.1,0.1,0.1,0.2,0.1,0.2c0,0.1,0,0.1,0.1,0.1
		l-0.2,0.2c0,0,0-0.1-0.1-0.1c-0.1,0-0.1,0-0.2-0.1L-142.6,4.4z M-143.9,23.2l0.5,0.6c-0.1,0.1-0.1,0.2-0.3,0.3
		c-0.1,0.1-0.2,0.2-0.2,0.3l-0.4-0.7L-143.9,23.2z M-143.3,27.5l-0.1,0.1l-0.3-0.2c0,0,0,0,0,0c0,0,0-0.1,0.1-0.1L-143.3,27.5z
		 M-144.3,28.5c0.1-0.1,0.2-0.1,0.2,0l0.5,0.4c-0.1,0-0.1,0.1-0.2,0.1c0,0-0.1,0.1-0.2,0.1l-0.3,0.1c-0.2-0.4-0.3-0.6-0.3-0.5
		C-144.4,28.7-144.4,28.6-144.3,28.5z M-144.4,25.9v0.1l-0.1-0.1L-144.4,25.9z M-144.3,30.4l0.4,0.2c-0.1,0.1-0.2,0.2-0.3,0.3
		c-0.1,0.1-0.3,0.3-0.4,0.4L-144.3,30.4z M-145.3,35.1c0-0.1,0.2-0.3,0.5-0.7c0,0.1,0.2,0.4,0.5,0.9l-0.7,0.6
		C-145.2,35.4-145.3,35.1-145.3,35.1z M-145.1,42.3l0,0.1l-0.1-0.1L-145.1,42.3z M-145.2,20.3v0.1l-0.1-0.1L-145.2,20.3z
		 M-144.7,31.4c0.5,1,0.3,1.4-0.8,1.2c-0.7-0.1-1-0.3-0.9-0.6C-146.1,30.9-145.6,30.7-144.7,31.4z M-145.4,43.6l-0.1,0.2l-0.1-0.2
		H-145.4z M-146.1,40.2l-0.1,0.1c0,0.1,0,0.1-0.1,0c0,0,0-0.1,0-0.1c0,0,0-0.1,0-0.1L-146.1,40.2z M-148.5,9.2
		C-148.5,9.2-148.4,9.1-148.5,9.2L-148.5,9.2c0.1,0.1,0.1,0.1,0.1,0.1c-0.1,0-0.1,0-0.1,0h0v0c0,0,0,0,0,0S-148.6,9.3-148.5,9.2
		L-148.5,9.2z M-148.7,11.4c0.1,0,0.2,0.1,0.5,0.3c0.3,0.1,0.6,0.3,1.1,0.6c-0.2,0.1-0.4,0.1-0.5,0.1c-0.1,0-0.2,0.1-0.3,0.1
		c-0.1,0-0.2,0.1-0.2,0.1c0,0-0.4-0.2-1-0.5c0.2-0.3,0.3-0.4,0.4-0.5C-148.7,11.5-148.7,11.4-148.7,11.4z M-148.4,15l-0.5-0.6
		c0.1-0.1,0.2-0.2,0.2-0.1L-148.4,15z M-149.3-0.3l0.1,0.1c0,0.1,0,0.1,0,0.1s0,0,0,0h0c-0.1,0-0.1,0-0.2,0l0.1-0.1
		C-149.3-0.2-149.3-0.3-149.3-0.3z M-149.8,34.6h0.2c0.1,0,0.2,0.1,0.2,0.1c0.1,0.3,0,0.5,0,0.6h-0.2c-0.1,0-0.1,0-0.2,0
		c-0.1,0-0.2,0-0.3,0C-149.9,34.9-149.8,34.7-149.8,34.6z M-149.9,28.9v-0.2l0.2,0.1L-149.9,28.9z M-151.8,11.6
		c-0.1-0.5-0.4-1.3-0.6-2.1c0.7,0.7,1.2,1.2,1.6,1.6c0.4,0.4,0.7,0.7,0.8,0.9c0,0.1-0.1,0.2-0.1,0.3c-0.1,0.1-0.1,0.3-0.2,0.5
		c0,0.2-0.1,0.4-0.2,0.6l-1-0.7C-151.5,12.5-151.6,12.2-151.8,11.6z M-151.5,31.6c0.1-0.1,0.1-0.1,0.2-0.1s0.2,0.1,0.6,0.3
		c-0.3,0.3-0.4,0.4-0.4,0.4c0,0-0.3,0-0.8-0.2C-151.9,31.9-151.7,31.7-151.5,31.6z M-152.2,13.1v0.2h-0.2c-0.1-0.1-0.1-0.1,0-0.2
		H-152.2z M-150.3,6.3c-0.2,0.1-0.3,0.3-0.6,0.5c-0.7-0.6-1-0.9-1-0.9c0-0.3,0-1.2,0.1-2.9c0.6,0.7,1,1.2,1.4,1.7
		c0.4,0.4,0.6,0.8,0.8,1.1c-0.1,0.1-0.2,0.2-0.3,0.3C-150,6-150.1,6.2-150.3,6.3z M-149.5-5.2l0,0.2c0,0,0,0.1,0,0.1s-0.1,0-0.1,0
		c0,0,0,0-0.1,0l-0.2-0.1C-149.5-5.2-149.4-5.2-149.5-5.2z M-150.2,2.3c-0.3,0-0.6,0.4-0.8,0.4c-0.2,0-0.3,0-0.3,0
		c-0.1,0-0.4-0.3-0.9-0.2c0.3-0.7,0.4-1.3,0.5-1.4c0.2-0.1,0.7,0,1.3,0.2C-150.4,1.3-150.3,1.7-150.2,2.3z M-150.9-6.4
		c0.1,0.1,0.1,0.1,0.1,0.1s0,0,0.1,0c0,0,0.1,0.1,0.1,0.1c0,0.1,0,0.3-0.1,0.6c-0.1,0-0.2-0.1-0.3-0.2c0,0-0.1,0-0.1,0
		C-151.2-5.9-151.1-6.1-150.9-6.4z M-152.7-3.6l1.2,0.5c-0.7,0.2-1,0.3-1,0.3c-0.1,0-0.3-0.1-0.6-0.3
		C-152.8-3.4-152.7-3.6-152.7-3.6z M-153.5,1.8c0.1,0,0.1,0.1,0.2,0.1c0.1,0,0.2,0.1,0.3,0.1c0.1,0,0.2,0.1,0.3,0.1
		c0.1,0,0.2,0.1,0.2,0.1l-0.6-0.1c-0.2,0-0.3,0-0.5,0C-153.6,1.9-153.5,1.9-153.5,1.8z M-153.3,9.1l0.1-0.2c0.1,0,0.3,0.2,0.5,0.4
		c0.1,0.1,0.1,0.1,0,0C-152.7,9.3-152.9,9.2-153.3,9.1z M-153.1,20c0,0.1,0,0.1,0,0.2c0,0.1,0,0.2-0.1,0.4l-0.2,0.6l-0.6,1.3
		l-0.6-0.3c0.3-0.2,0.6-0.4,0.8-0.5c0.2-0.1,0.3-0.2,0.4-0.2l0.1-0.2L-153.1,20z M-153.8-1.2l0,0.1h-0.1L-153.8-1.2z M-154.6,4.4
		c0,0,0.1,0,0.2,0c0,0,0,0,0,0l-0.1,0.2l-0.3-0.2L-154.6,4.4z M-155.2-0.1L-155.2-0.1c0.1,0.1,0.1,0.1,0.1,0.1c0,0.1,0,0.1,0,0.1
		c0,0,0,0,0,0h0c-0.1,0-0.1,0-0.2,0L-155.2-0.1z M-155.9,15.3C-155.9,15.3-155.9,15.3-155.9,15.3l0.1,0.1
		C-155.8,15.4-155.8,15.4-155.9,15.3C-155.9,15.4-155.9,15.4-155.9,15.3L-155.9,15.3c0,0.1-0.1,0.2-0.1,0.3c0,0.1-0.1,0.2-0.1,0.3
		l-0.1-0.1L-155.9,15.3z M-160.8-1.1c0.4-0.1,0.7-0.2,0.9-0.3c0.1,0,0.2-0.1,0.3-0.1l1.6,1.2c-0.5,0.3-0.7,0.5-0.7,0.4
		C-158.8,0.1-159.5-0.3-160.8-1.1z M-160.6,5.9l-0.2,0.2l-0.1,0.2l-0.2-0.2l0.3-0.3L-160.6,5.9z M-162-5.4c0,0,1.3,0,1.3,0.1
		c0.2,0.1,1.1,0.9,2.4,2.2l-0.2,0.2c-0.1,0-0.4,0.1-0.5,0.3l-3-2.2V-5.4z M-164.3,1.2l2.3,2.8c-1.1,1.6-1.7,2.4-1.8,2.6
		c-0.1,0.2-0.3,1-0.4,2.4c-0.7-0.4-1.3-0.7-1.7-1c-0.4-0.3-0.7-0.4-0.8-0.5c-0.1-0.1-0.1-0.3,0-0.6c0.1-0.4,0.2-0.6,0.3-0.7
		c1.4-0.9,2.3-1.6,2.4-2C-163.8,3.7-163.9,2.7-164.3,1.2z M-165.1,28.2L-165.1,28.2C-165.1,28.2-165.1,28.2-165.1,28.2l-0.6-0.2
		l0.1-0.4C-165.4,27.9-165.2,28.1-165.1,28.2C-165.2,28.2-165.2,28.2-165.1,28.2L-165.1,28.2L-165.1,28.2
		C-165.1,28.2-165.1,28.3-165.1,28.2z M-165.2,25.1c-0.3-0.2-0.5-0.4-0.6-0.5c0,0-0.1,0-0.1,0l0,0c0,0,0,0,0,0l0.7-0.6
		c0,0,0.1,0,0.3,0.1c0.1,0.1,0.2,0.2,0.2,0.2L-165.2,25.1z M-166.1,16.2c0,0-0.2-0.3-0.1-0.9l0.3,0.7c0,0,0,0.2,0,0.4
		c0,0.2,0.3,0.6,0.2,1L-166.1,16.2z M-166.1,11.4c0.8-0.2,1.1-0.3,1.1-0.3c0,0,0.1,0,0.2,0c0.1,0,0.3,0,0.6,0.1
		c0.1,0.1,0.3,0.1,0.7,0.2c-0.2,0-0.3,0.1-0.4,0.1c-0.1,0-0.1,0-0.2,0c-0.1,0-0.3,0-0.7,0C-165,11.5-165.5,11.5-166.1,11.4z
		 M-164,13.5c0.2,0.1,0.4,0.2,0.6,0.3c0.2,0.1,0.5,0.2,0.6,0.2c0.2,0.1,0.3,0.1,0.4,0.2c0.2,0,0.3,0,0.4,0.1l0.1,0.1l-1.1-0.2v2
		c0-0.2-0.5-0.3-0.5-0.3c-0.1-0.2-0.4-1-1.1-2.5C-164.5,13.4-164.2,13.4-164,13.5z M-162.9,11c-0.3,0.2-0.5,0.4-0.5,0.4l-0.7-2.4
		l0.5,0.2l2.2,0.8C-162.1,10.4-162.5,10.8-162.9,11z M-162.9,8.1l0.2,0.1l-0.2,0.2L-162.9,8.1z M-166.3,28.5l0.3-0.3l-0.5,0.6
		l-0.2-0.2L-166.3,28.5z M-165.6,35.7c0.1,0,0.2,0.1,0.4,0.2c0.2,0.1,0.4,0.2,0.7,0.4l-0.5,0.3l-1.5-0.7L-165.6,35.7z M-164.7,31.8
		l0.1-0.1l0.1,0.2L-164.7,31.8z M-164.8,21.9c-0.6-0.6-0.5-1.2,0.1-2c0.3-0.5,0.5-0.7,1-0.6c0.3,0.1,0.8,0.3,1.8,0.7v0.1v0.1
		c0,0,0,0.1,0,0.2v0.1c-1-0.1-1.8,0.3-1.5,1.2c0.2,1,0.5,1.5-0.5,1.6v-0.1c0-0.1,0.3-0.2,0.1-0.2c-0.1-0.1-0.1-0.2-0.3-0.3
		C-164.5,22.3-164.6,22.1-164.8,21.9z M-162.8,40.1l1-1.5c0.1,0.6,0.1,1,0.2,1.3c0,0-0.2,0-0.2,0c0.1,0.1-0.1,0.2-0.1,0.2v0.1
		c0,0,0.2,0.1,0.1,0.1c0,0,0.1,0,0.1,0.1c-0.1,0.1-0.4,0.3-1.2,0.6l-0.7,0.1C-163.2,40.5-162.8,40.2-162.8,40.1z M-161.6,30.7h-0.1
		l-1.1-2.6c0.1,0.1,0.2,0,0.2,0l1.3,2c-0.1,0-0.1,0.3-0.2,0.3C-161.6,30.4-161.6,30.7-161.6,30.7z M-162.4-1.2l0.7,1l-0.3,0.4
		c-0.1,0.1-0.1,0.1-0.2,0.2c0,0.1-0.1,0.1-0.1,0.2c-0.3-0.7-0.5-1.1-0.5-1.1C-162.7-0.6-162.6-0.8-162.4-1.2z M-163.9-5.9
		c0.3,0.6,0.5,1,0.4,1c0,0.1-0.1,0.4-0.2,0.7c-0.1,0.4-0.3,0.9-0.6,1.6l-1.2-1.5L-163.9-5.9z M-165.5,3l-0.2,0.2l-0.1-0.2L-165.5,3z
		 M-166.6,0.1c-0.1,0.1-0.1,0.2-0.2,0.3c-0.1,0.1-0.1,0.1-0.2,0.2c-0.5-0.4-0.7-0.6-0.6-0.6c0-0.2,0.2-0.6,0.6-1c0,0,0.1,0,0.2,0.1
		c0.1,0.1,0.1,0.1,0.2,0.2c0.1,0.1,0.2,0.1,0.3,0.2L-166.6,0.1z M-167.1,14.1l-0.2,0.3c0-0.1,0.1-0.2,0.1-0.3c0-0.1,0.1-0.2,0.2-0.4
		l0.2,0.2L-167.1,14.1z M-167,22.5L-167,22.5l-0.1,0.2l-0.2-0.3C-167.1,22.3-167,22.4-167,22.5z M-167.2-6.6
		c0.1-0.1,0.2-0.1,0.2-0.2c0.4,0.1,0.6,0.3,0.6,0.6c0,0.4-0.2,0.6-0.6,0.6c0,0-0.1,0-0.2-0.1c-0.1-0.1-0.2-0.1-0.3-0.2
		c-0.1-0.1-0.3-0.1-0.4-0.2C-167.6-6.3-167.4-6.5-167.2-6.6z M-169.2-4.3l0.8,2.1c0.1,0-0.2-0.2-0.2-0.2l-0.5,0v-0.1l0.1,0.1
		l-0.8-1.9H-169.2z M-169.6,14.6c0,0,0.1,0.1,0.1,0.1c0,0,0,0.1,0.1,0.2c0.1,0.1,0.1,0.2,0.1,0.3c-0.1-0.1-0.1-0.1-0.2-0.2
		c-0.1-0.1-0.1-0.1-0.2-0.2L-169.6,14.6z M-173.8,17.4c0.1-0.1,0.3-0.2,0.4-0.3l1.2,1.8c0,0-0.2,0.3-0.6,0.7l-1-2.1
		C-173.9,17.5-173.9,17.4-173.8,17.4z M-174.5,11.9C-174.4,11.9-174.4,11.9-174.5,11.9L-174.5,11.9c0,0.2,0,0.3,0,0.3l-0.1-0.3
		C-174.6,11.8-174.5,11.9-174.5,11.9z M-173.3,21.3c0.1-0.1,0.4,0.1,0.9,0.4l-1.1,1.3c-0.2-0.2-0.5-0.3-0.7-0.5s-0.5-0.4-0.7-0.6
		C-173.9,21.5-173.4,21.3-173.3,21.3z M-175.7,13.9c0.2,0.2,0.3,0.4,0.3,0.5l-0.6,1.3c-0.8-1-1.2-1.6-1.2-1.7c0,0,0.3-0.4,0.9-1
		C-176.1,13.4-175.9,13.7-175.7,13.9z M-177.2,20.1C-177.2,20.1-177.2,20.1-177.2,20.1l-0.4-0.1c0.2-0.1,0.4-0.2,0.4-0.2
		c0.1,0,0.2,0.1,0.4,0.2C-177,20-177.1,20.1-177.2,20.1z M-177.1,21.7C-177.1,21.8-177.1,21.8-177.1,21.7c-0.1,0.1-0.1,0.1-0.1,0.1
		L-177.1,21.7C-177.1,21.8-177.1,21.8-177.1,21.7z M-176.8,7.5h-0.2c-0.1,0-0.1,0-0.2,0c-0.1,0-0.2,0-0.3,0c0.2-0.4,0.3-0.7,0.3-0.7
		h0.2c0.1,0,0.2,0.1,0.2,0.1C-176.7,7.2-176.7,7.4-176.8,7.5z M-177.3,1.1V0.9l0.2,0.1L-177.3,1.1z M-178.5-2
		c0.1-0.4,0.3-0.8,0.4-1.1c0.1,0,0.1,0,0.2-0.1c0.1-0.1,0.1-0.1,0.2-0.2c0.1-0.1,0.2-0.1,0.3-0.2c0.1,0.1,0.1,0.2,0.2,0.2
		c0,0,0.1,0.1,0.1,0.2c0,0.1,0.1,0.1,0.1,0.1c0,0.3-0.1,0.7-0.1,1c-0.1,0.3-0.1,0.7-0.2,1.2c0,0-0.1,0.3-0.3,0.8
		c-0.2-0.1-0.4-0.2-0.5-0.2c-0.2-0.1-0.3-0.1-0.4-0.2c-0.1-0.1-0.3-0.1-0.3-0.1C-178.8-1.2-178.7-1.6-178.5-2z M-178.9,3.8
		c0.1-0.1,0.1-0.1,0.2-0.1s0.2,0.1,0.6,0.3c-0.3,0.3-0.4,0.4-0.4,0.4c0,0-0.3,0-0.8-0.2C-179.2,4.1-179.1,3.9-178.9,3.8z
		 M-180.1,5.7l-0.5,1.5l-0.6-0.8l-0.6-0.9c0.6-0.5,0.9-0.7,0.9-0.7C-180.4,5.1-180.1,5.4-180.1,5.7z M-180.1,22.7
		c0,0-0.1,0.1-0.3,0.2l-0.3-0.5l0,0c0,0,0.1,0,0.1,0c0.1-0.1,0.2-0.1,0.2-0.1l0.4,0.4C-180,22.6-180.1,22.7-180.1,22.7z
		 M-179.7,25.8c-0.2,0.4-0.3,0.5-0.3,0.5c0,0.1-0.2,0-0.7-0.1l0.3-0.5c0-0.1,0-0.1,0-0.1L-179.7,25.8z M-180.5,16.6l-0.2-0.1
		c0-0.1,0-0.1,0-0.1s0-0.1,0-0.1C-180.5,16.5-180.5,16.6-180.5,16.6C-180.5,16.7-180.5,16.7-180.5,16.6z M-182.3,12
		c-0.1,0-0.7-0.1-1.9-0.4l1-1l1.6,0.6C-182,11.7-182.2,12-182.3,12z M-181.8,14.8l-0.3,0.1c0,0,0-0.1,0-0.1c0,0,0,0,0-0.1v-0.1
		l0.2-0.1L-181.8,14.8L-181.8,14.8z M-184.2,4.7l-0.6-0.5l1.4-2.3c0.3,0.4,0.4,0.7,0.4,0.7L-184.2,4.7z M-182.7,6.6
		c0.1,0.1,0.1,0.2,0.1,0.2c0,0.1,0,0.1,0,0.2c0,0.1,0,0.1,0,0.1c-0.2,0.4-0.5,0.7-0.8,0.9c0,0.1-0.3,0-0.9-0.1l0.9-0.8L-182.7,6.6z
		 M-180.9-0.9v-0.2l0.2,0.1L-180.9-0.9z M-181.2-6.1c0.2-0.1,0.3-0.2,0.4-0.2l0.1-0.2l0.3-1.2c0,0.1,0,0.1,0,0.2
		c0,0.1,0,0.2-0.1,0.4l-0.2,0.6l-0.6,1.3l-0.6-0.3C-181.6-5.8-181.4-6-181.2-6.1z M-189.4,12.2c0,0,0.1-0.1,0.3-0.2
		c0.1,0.1,0.1,0.2,0.1,0.2v0.1c0,0.1,0,0.1-0.1,0.1c-0.1,0-0.1,0-0.1,0c0,0-0.1,0-0.2,0c0-0.1,0-0.1,0-0.1
		C-189.4,12.4-189.4,12.4-189.4,12.2L-189.4,12.2z M-190,14.7c0.1-0.2,0.3-0.3,0.5-0.6c0.2-0.2,0.4-0.5,0.7-0.9
		c0.4,1.1,0.5,1.7,0.5,1.9c-0.2,0.5-0.6,0.9-1.2,1.1c-0.1,0-0.3-0.1-0.5-0.3c-0.3-0.3-0.4-0.5-0.4-0.7
		C-190.3,15.1-190.1,14.9-190,14.7z M-193.8-1.3l-0.3-0.1c-0.1-0.1-0.2-0.2-0.2-0.4L-193.8-1.3z M-194.6-2
		C-194.6-1.9-194.6-1.9-194.6-2L-194.6-2C-194.5-1.9-194.6-1.9-194.6-2l-0.1,0.2L-194.6-2z M-195.3,19c0.3,2,0.3,3,0.2,3.1
		c-0.1,0.1-1,0.8-2.8,2.2c0.2-2,0.3-3.1,0.3-3.2l1.2-2.3l0.5,0.2C-195.7,19-195.5,19-195.3,19z M-197.1,15.6c0.1,0,0.1-0.1,0.1-0.2
		c0-0.1,0-0.1,0-0.2c0-0.1,0-0.2,0-0.3l0.6,0.3l-0.2,0.6c-0.2-0.1-0.3-0.2-0.4-0.2C-197,15.6-197,15.6-197.1,15.6z M-197.5-0.9
		C-197.4-0.9-197.4-0.9-197.5-0.9l0.1,0.7h-0.4c0,0.1-0.1-0.1-0.2-0.5C-197.7-0.8-197.5-0.9-197.5-0.9z M-202.9,13.7L-202.9,13.7
		c0.1,0,0.1,0,0.2,0c0,0,0.1,0,0.3,0.1l-0.2,0.3l-0.3-0.3L-202.9,13.7z M-203.7-1.6l0.2,0.4l-0.2-0.1c-0.1,0-0.1,0-0.1-0.1
		C-203.7-1.4-203.7-1.5-203.7-1.6z M-205.7,28.4l-0.2,0.1l0-0.2L-205.7,28.4z M-207.3-2.8c0.2,0.1,0.4,0.3,0.6,0.5l0.5,0.4l-1,0.8
		l-0.9-0.9L-207.3-2.8z M-208,3.6l0.2-0.2c0.1,0.1,0.1,0.2,0.1,0.2c0,0.1,0,0.1,0.1,0.1L-208,4c0,0,0-0.1-0.1-0.1
		c-0.1,0-0.1,0-0.2-0.1L-208,3.6z M-209.4,22.4l0.5,0.6c-0.1,0.1-0.1,0.2-0.3,0.3c-0.1,0.1-0.2,0.2-0.2,0.3l-0.4-0.7L-209.4,22.4z
		 M-208.7,26.7l-0.1,0.1l-0.3-0.2c0,0,0,0,0,0c0,0,0-0.1,0.1-0.1L-208.7,26.7z M-209.7,27.7c0.1-0.1,0.2-0.1,0.2,0l0.5,0.4
		c-0.1,0-0.1,0.1-0.2,0.1c0,0-0.1,0.1-0.2,0.1l-0.3,0.1c-0.2-0.4-0.3-0.6-0.3-0.5C-209.9,27.9-209.8,27.8-209.7,27.7z M-209.9,25.1
		v0.1l-0.1-0.1L-209.9,25.1z M-209.8,29.6l0.4,0.2c-0.1,0.1-0.2,0.2-0.3,0.3c-0.1,0.1-0.3,0.3-0.4,0.4L-209.8,29.6z M-210.7,34.3
		c0-0.1,0.2-0.3,0.5-0.7c0,0.1,0.2,0.4,0.5,0.9l-0.7,0.6C-210.6,34.6-210.7,34.3-210.7,34.3z M-210.6,41.5l0,0.1l-0.1-0.1
		L-210.6,41.5z M-210.6,19.5v0.1l-0.1-0.1L-210.6,19.5z M-210.2,30.6c0.5,1,0.3,1.4-0.8,1.2c-0.7-0.1-1-0.3-0.9-0.6
		C-211.6,30.1-211,29.9-210.2,30.6z M-210.8,42.8l-0.1,0.2l-0.1-0.2H-210.8z M-211.5,39.4l-0.1,0.1c0,0.1,0,0.1-0.1,0
		c0,0,0-0.1,0-0.1c0,0,0-0.1,0-0.1L-211.5,39.4z M-214,8.4C-213.9,8.4-213.9,8.4-214,8.4L-214,8.4c0.1,0.1,0.1,0.1,0.1,0.1
		c-0.1,0-0.1,0-0.1,0h0v0c0,0,0,0,0,0S-214.1,8.5-214,8.4L-214,8.4z M-214.2,10.6c0.1,0,0.2,0.1,0.5,0.3c0.3,0.1,0.6,0.3,1.1,0.6
		c-0.2,0.1-0.4,0.1-0.5,0.1c-0.1,0-0.2,0.1-0.3,0.1c-0.1,0-0.2,0.1-0.2,0.1c0,0-0.4-0.2-1-0.5c0.2-0.3,0.3-0.4,0.4-0.5
		C-214.2,10.7-214.2,10.6-214.2,10.6z M-213.8,14.2l-0.5-0.6c0.1-0.1,0.2-0.2,0.2-0.1L-213.8,14.2z M-214.7-1.1l0.1,0.1
		c0,0.1,0,0.1,0,0.1s0,0,0,0h0c-0.1,0-0.1,0-0.2,0l0.1-0.1C-214.7-1-214.7-1.1-214.7-1.1z M-215.3,33.8h0.2c0.1,0,0.2,0.1,0.2,0.1
		c0.1,0.3,0,0.5,0,0.6h-0.2c-0.1,0-0.1,0-0.2,0c-0.1,0-0.2,0-0.3,0C-215.4,34.1-215.3,33.9-215.3,33.8z M-215.4,28.1v-0.2l0.2,0.1
		L-215.4,28.1z M-217.2,10.8c-0.1-0.5-0.4-1.3-0.6-2.1c0.7,0.7,1.2,1.2,1.6,1.6c0.4,0.4,0.7,0.7,0.8,0.9c0,0.1-0.1,0.2-0.1,0.3
		c-0.1,0.1-0.1,0.3-0.2,0.5c0,0.2-0.1,0.4-0.2,0.6l-1-0.7C-217,11.7-217.1,11.4-217.2,10.8z M-217,30.8c0.1-0.1,0.1-0.1,0.2-0.1
		s0.2,0.1,0.6,0.3c-0.3,0.3-0.4,0.4-0.4,0.4c0,0-0.3,0-0.8-0.2C-217.3,31.1-217.2,30.9-217,30.8z M-217.7,12.4v0.2h-0.2
		c-0.1-0.1-0.1-0.1,0-0.2H-217.7z M-215.7,5.5c-0.2,0.1-0.3,0.3-0.6,0.5c-0.7-0.6-1-0.9-1-0.9c0-0.3,0-1.2,0.1-2.9
		c0.6,0.7,1,1.2,1.4,1.7c0.4,0.4,0.6,0.8,0.8,1.1c-0.1,0.1-0.2,0.2-0.3,0.3C-215.5,5.3-215.6,5.4-215.7,5.5z M-214.9-6l0,0.2
		c0,0,0,0.1,0,0.1s-0.1,0-0.1,0c0,0,0,0-0.1,0l-0.2-0.1C-215-6-214.9-6-214.9-6z M-215.7,1.4c-0.3,0-0.6,0.3-0.8,0.3
		c-0.2,0-0.3,0-0.3,0c-0.1,0-0.4-0.2-0.9-0.1c0.3-0.7,0.4-1.3,0.5-1.4c0.2-0.1,0.7,0,1.3,0.2C-215.8,0.4-215.8,0.8-215.7,1.4z
		 M-216.4-7.2c0.1,0.1,0.1,0.1,0.1,0.1s0,0,0.1,0c0,0,0.1,0.1,0.1,0.1c0,0.1,0,0.3-0.1,0.6c-0.1,0-0.2-0.1-0.3-0.2c0,0-0.1,0-0.1,0
		C-216.6-6.7-216.5-6.9-216.4-7.2z M-218.1-4.4l1.2,0.5c-0.7,0.2-1,0.3-1,0.3c-0.1,0-0.3-0.1-0.6-0.3
		C-218.3-4.2-218.2-4.4-218.1-4.4z M-219,1c0.1,0,0.1,0.1,0.2,0.1c0.1,0,0.2,0.1,0.3,0.1c0.1,0,0.2,0.1,0.3,0.1
		c0.1,0,0.2,0.1,0.2,0.1l-0.6-0.1c-0.2,0-0.3,0-0.5,0C-219,1.1-219,1.1-219,1z M-218.7,8.3l0.1-0.2c0.1,0,0.3,0.2,0.5,0.4
		c0.1,0.1,0.1,0.1,0,0C-218.2,8.5-218.4,8.4-218.7,8.3z M-218.6,19.2c0,0.1,0,0.1,0,0.2c0,0.1,0,0.2-0.1,0.4l-0.2,0.6l-0.6,1.3
		l-0.6-0.3c0.3-0.2,0.6-0.4,0.8-0.5c0.2-0.1,0.3-0.2,0.4-0.2l0.1-0.2L-218.6,19.2z M-219.3-2l0,0.1h-0.1L-219.3-2z M-220,3.6
		c0,0,0.1,0,0.2,0c0,0,0,0,0,0l-0.1,0.2l-0.3-0.2L-220,3.6z M-220.7-0.9L-220.7-0.9c0.1,0.1,0.1,0.1,0.1,0.1c0,0.1,0,0.1,0,0.1
		c0,0,0,0,0,0h0c-0.1,0-0.1,0-0.2,0L-220.7-0.9z M-221.4,14.5C-221.3,14.5-221.3,14.5-221.4,14.5l0.1,0.1
		C-221.2,14.6-221.3,14.6-221.4,14.5C-221.3,14.6-221.3,14.6-221.4,14.5L-221.4,14.5c0,0.1-0.1,0.2-0.1,0.3c0,0.1-0.1,0.2-0.1,0.3
		l-0.1-0.1L-221.4,14.5z M-226.2-1.9c0.4-0.1,0.7-0.2,0.9-0.3c0.1,0,0.2-0.1,0.3-0.1l1.6,1.2c-0.5,0.3-0.7,0.5-0.7,0.4
		C-224.3-0.7-225-1.1-226.2-1.9z M-226,5.1l-0.2,0.2l-0.1,0.2l-0.2-0.2l0.3-0.3L-226,5.1z M-228-6.2c1,0,1.5,0,1.5,0.1
		c0.2,0.1,1.2,0.9,2.5,2.2l-0.1,0.2c-0.1,0-0.6,0.1-0.7,0.3l-3.2-2.2V-6.2z M-229.7,0.4l2.3,2.8c-1.1,1.6-1.7,2.4-1.8,2.6
		c-0.1,0.2-0.3,1-0.4,2.4c-0.7-0.4-1.3-0.7-1.7-1c-0.4-0.3-0.7-0.4-0.8-0.5c-0.1-0.1-0.1-0.3,0-0.6c0.1-0.4,0.2-0.6,0.3-0.7
		c1.4-0.9,2.3-1.6,2.4-2C-229.3,2.9-229.4,1.9-229.7,0.4z M-230.6,27.4L-230.6,27.4C-230.6,27.4-230.6,27.4-230.6,27.4l-0.6-0.2
		l0.1-0.4C-230.9,27.1-230.7,27.3-230.6,27.4C-230.6,27.4-230.6,27.4-230.6,27.4L-230.6,27.4L-230.6,27.4
		C-230.5,27.5-230.5,27.5-230.6,27.4z M-230.6,24.3c-0.3-0.2-0.5-0.4-0.6-0.5c0,0-0.1,0-0.1,0l0,0c0,0,0,0,0,0l0.7-0.6
		c0,0,0.1,0,0.3,0.1c0.1,0.1,0.2,0.2,0.2,0.2L-230.6,24.3z M-231.6,15.4c0,0,0-0.3,0.1-0.9l0.5,0.7c0,0,0,0.2,0,0.4c0,0.2,0,0.6,0,1
		L-231.6,15.4z M-231.5,10.7c0.8-0.2,1.1-0.3,1.1-0.3c0,0,0.1,0,0.2,0c0.1,0,0.3,0,0.6,0.1c0.1,0.1,0.3,0.1,0.7,0.2
		c-0.2,0-0.3,0.1-0.4,0.1c-0.1,0-0.1,0-0.2,0c-0.1,0-0.3,0-0.7,0C-230.5,10.7-230.9,10.7-231.5,10.7z M-229.5,12.7
		c0.2,0.1,0.4,0.2,0.6,0.3c0.2,0.1,0.5,0.2,0.6,0.2c0.2,0.1,0.3,0.1,0.4,0.2c0.2,0,0.3,0,0.4,0.1l0.3,0.1l-0.9-0.2v2
		c-1-0.2-0.7-0.3-0.7-0.3c-0.1-0.2-0.5-1-1.2-2.5C-229.8,12.6-229.6,12.7-229.5,12.7z M-228.3,10.2c-0.3,0.2-0.5,0.4-0.5,0.4
		l-0.7-2.4l0.5,0.2l2.2,0.8C-227.5,9.6-228,10-228.3,10.2z M-228.4,7.3l0.2,0.1l-0.2,0.2L-228.4,7.3z M-231.8,27.7l0.3-0.3l-0.5,0.6
		l-0.2-0.2L-231.8,27.7z M-231,34.9c0.1,0,0.2,0.1,0.4,0.2c0.2,0.1,0.4,0.2,0.7,0.4l-0.5,0.3l-1.5-0.7L-231,34.9z M-230.1,31
		l0.1-0.1l0.1,0.2L-230.1,31z M-230.2,21.2c-0.6-0.6-0.5-1.2,0.1-2c0.3-0.5,0.2-0.7,0.7-0.6c0.3,0.1,0.5,0.3,1.5,0.7v0.1v0.1
		c0,0,0,0.1,0,0.2v0.1c-1-0.1-1.3,0.3-1,1.2c0.2,1,0,1.5,0,1.6v-0.1c0-0.1,0-0.2-0.1-0.2c-0.1-0.1-0.2-0.2-0.4-0.3
		C-229.9,21.5-230,21.3-230.2,21.2z M-228.3,39.3l1-1.5c0.1,0.6,0.1,1,0.2,1.3c0,0-0.5,0-0.4,0c0.1,0.1-0.4,0.2-0.4,0.2v0.1
		c0,0,0.4,0.1,0.4,0.1c0,0,0.2,0,0.2,0.1c-0.1,0.1-0.4,0.3-1.2,0.6l-0.7,0.1C-228.7,39.7-228.3,39.4-228.3,39.3z M-227.1,29.7h-0.1
		l-1.1-2.5c0.1,0.1,0.2,0,0.2,0l1.3,2.1c-0.1,0-0.1,0.2-0.2,0.2C-227,29.5-227.1,29.7-227.1,29.7z M-227.9-2l0.7,1l-0.3,0.4
		c-0.1,0.1-0.1,0.1-0.2,0.2c0,0.1-0.1,0.1-0.1,0.2c-0.3-0.7-0.5-1.1-0.5-1.1C-228.2-1.4-228.1-1.6-227.9-2z M-229.4-6.7
		c0.3,0.6,0.5,1,0.4,1c0,0.1-0.1,0.4-0.2,0.7c-0.1,0.4-0.3,0.9-0.6,1.6l-1.2-1.5L-229.4-6.7z M-231,2.2l-0.2,0.2l-0.1-0.2L-231,2.2z
		 M-232-0.7c-0.1,0.1-0.1,0.2-0.2,0.3c-0.1,0.1-0.1,0.1-0.2,0.2c-0.5-0.4-0.7-0.6-0.6-0.6c0-0.2,0.2-0.6,0.6-1c0,0,0.1,0,0.2,0.1
		c0.1,0.1,0.1,0.1,0.2,0.2c0.1,0.1,0.2,0.1,0.3,0.2L-232-0.7z M-232.6,13.3l-0.2,0.3c0-0.1,0.1-0.2,0.1-0.3c0-0.1,0.1-0.2,0.2-0.4
		l0.2,0.2L-232.6,13.3z M-232.4,21.7L-232.4,21.7l-0.1,0.2l-0.2-0.3C-232.5,21.6-232.4,21.6-232.4,21.7z M-232.7-7.4
		c0.1-0.1,0.2-0.1,0.2-0.2c0.4,0.1,0.6,0.3,0.6,0.6c0,0.4-0.2,0.6-0.6,0.6c0,0-0.1,0-0.2-0.1c-0.1-0.1-0.2-0.1-0.3-0.2
		c-0.1-0.1-0.3-0.1-0.4-0.2C-233.1-7.1-232.9-7.3-232.7-7.4z M-235.1,14.2c-0.1-0.1-0.1-0.1-0.2-0.2l0.2-0.1c0,0,0.1,0.1,0.1,0.1
		c0,0,0,0.1,0.1,0.2c0.1,0.1,0.1,0.2,0.1,0.3C-235,14.3-235,14.2-235.1,14.2z M-235.1-5.3h0.5l0.8,2.2c0.1,0,0-0.1,0.1-0.1l-0.3,0
		v-0.1l-0.1,0L-235.1-5.3z M-234.4,4.6l-0.1-0.2l0.2,0.1L-234.4,4.6z M-234.3,2.5l-0.3-0.3l0.6-0.6l0.4,0.5l-0.5,0.6
		C-234,2.7-234.1,2.6-234.3,2.5z M-233.6,8.6c-0.2-0.5-0.3-0.8-0.3-0.8c0-0.1,0.2-0.3,0.6-0.7c0.1,0.1,0.1,0.1,0.2,0.2
		c0.1,0.1,0.1,0.1,0.1,0.2c0,0.1,0.1,0.1,0.1,0.1C-232.9,7.7-233.1,8-233.6,8.6z M-232.8,25.2c0,0,0.1-0.1,0.1-0.1h0.1l0.2,0.2
		c-0.1,0-0.2,0.1-0.3,0.2V25.2z M-232.3,31.4l0.4,0.3c0,0,0,0.1-0.1,0.1c-0.1,0.1-0.1,0.2-0.2,0.3c-0.1-0.1-0.2-0.1-0.3-0.2
		c0,0-0.1-0.1-0.1-0.1C-232.6,31.7-232.5,31.6-232.3,31.4z M-232.4,41.3c0-0.2-0.1-0.4-0.1-0.5l0.1-0.1c0-0.1,0.2-0.2,0.4-0.4
		l0.4,1.2l-0.6,0.7C-232.3,41.8-232.4,41.5-232.4,41.3z M-231.7,43.6l0.1,0.2l0.2,0.1l-0.1,0.2l-0.3-0.3L-231.7,43.6z M-230.6,49.6
		c-0.2,0.1-0.3,0.3-0.5,0.4c-0.1,0.1-0.2,0.2-0.3,0.3c-0.1-0.1-0.1-0.2-0.1-0.3c0-0.1,0-0.1-0.1-0.2c0-0.1-0.1-0.1-0.1-0.2
		c0.3-0.4,0.7-0.7,1.2-1l0.5,0.4L-230.6,49.6z M-230.2,43c-0.3-0.3-0.5-0.6-0.6-0.7c-0.1-0.2-0.2-0.3-0.3-0.3c0,0-0.1-0.1-0.1-0.2
		s-0.2-0.2-0.3-0.3c0.5,0,0.8,0,0.8,0.1c0.2,0.1,0.5,0.5,0.8,1.1L-230.2,43z M-229.2,44.8c0,0,0,0.1,0,0.1c0,0.1,0,0.1-0.1,0.3
		l-0.4-0.3l0.3-0.3C-229.1,44.6-229.1,44.7-229.2,44.8z M-228.5,42.2l-0.1-0.1h0.2L-228.5,42.2z M-226.6,42.5c0,0.1,0.1,0.2,0.1,0.3
		c0,0.1,0,0.1,0,0.1c0,0-0.1,0-0.1,0.1c0,0-0.1,0.1-0.1,0.1c0,0-0.1,0-0.1,0.1l-0.2-0.3c-0.2,0.1-0.4,0.2-0.6,0.3
		c-0.1,0-0.3-0.1-0.5-0.3c-0.3-0.3-0.4-0.5-0.4-0.7c0.1-0.1,0.2-0.3,0.4-0.5c0.1-0.2,0.3-0.3,0.5-0.6c0.2-0.2,0.4-0.5,0.7-0.9
		c0.4,1.1,0.5,1.7,0.5,1.9C-226.4,42.3-226.5,42.4-226.6,42.5L-226.6,42.5z M-225.7,23.2c0,0-0.1,0.1-0.1,0.2l-0.3-0.2l-0.3-0.2
		c0.1,0,0.4,0.1,0.6,0.1C-225.7,23.1-225.7,23.2-225.7,23.2z M-225.6,2.6c-0.1-0.1-0.1-0.2-0.2-0.3c0-0.1-0.1-0.1-0.1-0.2
		c0-0.1-0.1-0.1-0.1-0.2l0.4-0.9c0.1,0.1,0.2,0.1,0.3,0.2c0.1,0.1,0.1,0.1,0.2,0.2c0.1,0.1,0.1,0.1,0.2,0.1
		C-224.9,1.7-225.1,2-225.6,2.6z M-224.1,27.7L-224.1,27.7c-0.1,0-0.1,0-0.2-0.1l0-0.2c0.1,0,0.1,0,0.2,0
		C-224.1,27.7-224.1,27.7-224.1,27.7z M-224,24.7c0-0.1,0.2-0.3,0.5-0.6c0.3,0.4,0.4,0.6,0.4,0.6c-0.1,0.3-0.2,0.4-0.4,0.4
		C-223.9,25.1-224.1,25-224,24.7z M-220.2,42C-220.2,41.9-220.2,41.9-220.2,42c0-0.1-0.1-0.1-0.1-0.1v-0.1l0.2-0.1l0.1,0.1l0,0.1
		L-220.2,42z M-220.4,39c-0.1,0-0.7-0.1-1.9-0.4l1-1l1.6,0.6C-220.1,38.7-220.3,39-220.4,39z M-222.9,31.2l1.4-2.3
		c0.3,0.4,0.4,0.7,0.4,0.7l-1.2,2.1L-222.9,31.2z M-220.1,28.2c-0.2,0-0.3,0.1-0.3,0.1c-1.3,0.1-2.3-0.6-2.8-2.1c0,0-0.1,0-0.1,0
		c0,0,0.1,0.3,0.1,0.3l0,0.3h-0.8V26l0.8,0.6h0c0.2,0,0.2,0,0,0h0c1.9,0,3.1,0.5,3.4,0.6c0,0,0.3,0.2,0.6,0.8
		C-219.6,28.2-219.9,28.1-220.1,28.2z M-219,25.9l0.2,0.1l-0.2,0.1V25.9z M-218.6,43.6l-0.2-0.1c0-0.1,0-0.1,0-0.1s0-0.1,0-0.1
		C-218.6,43.5-218.6,43.6-218.6,43.6C-218.6,43.7-218.6,43.7-218.6,43.6z M-217.7,40.3c-0.3,0.1-0.7,0.1-1.1,0.2l1-1.9
		c0,0,0.1-0.1,0.2-0.1l0.7,1.6C-217.1,40.2-217.4,40.3-217.7,40.3z M-217.6,38.4c0.3-0.9-0.4-1.6,0.6-2.1v0l0.3,0.1l-0.2-0.1
		C-215.8,37.6-216.1,38.4-217.6,38.4z M-215.8,29.3c0,0.1,0,0.1-0.1,0l-0.3-0.3l0.4-0.1C-215.8,29.1-215.8,29.2-215.8,29.3z
		 M-216.3,26.6c-0.2-0.1-0.3-0.1-0.4-0.2c-0.1-0.1-0.3-0.1-0.3-0.1c0.1-0.5,0.3-0.9,0.4-1.3c0.1-0.4,0.3-0.8,0.4-1.1
		c0.1,0,0.1,0,0.2-0.1c0.1-0.1,0.1-0.1,0.2-0.2c0.1-0.1,0.2-0.1,0.3-0.2c0.1,0.1,0.1,0.2,0.2,0.2c0,0,0.1,0.1,0.1,0.2
		c0,0.1,0.1,0.1,0.1,0.1c0,0.3-0.1,0.7-0.1,1c-0.1,0.3-0.1,0.7-0.2,1.2c0,0-0.1,0.3-0.3,0.8C-215.9,26.8-216.1,26.7-216.3,26.6z
		 M-215.3,47.1C-215.3,47.1-215.3,47.1-215.3,47.1l-0.4-0.1c0.2-0.1,0.4-0.2,0.4-0.2c0.1,0,0.2,0.1,0.4,0.2
		C-215,47.1-215.2,47.1-215.3,47.1z M-214.1,42.8c-0.8-1-1.2-1.6-1.2-1.7c0,0,0.3-0.4,0.9-1c0.3,0.4,0.5,0.7,0.6,0.9
		c0.2,0.2,0.3,0.4,0.3,0.5L-214.1,42.8z M-212.8,30.4l-0.1-0.1l0.1,0V30.4z M-213.3,14.5c0,0-0.1,0-0.1,0c0,0-0.1,0-0.3-0.1
		c0.1,0,0.2,0,0.3,0s0.3,0,0.5,0C-213,14.5-213.1,14.5-213.3,14.5z M-212.5,39c0,0.1,0,0.2,0,0.2l-0.1-0.3
		C-212.6,38.9-212.6,38.9-212.5,39C-212.5,38.9-212.5,38.9-212.5,39L-212.5,39z M-213,5.1l-0.5-0.5c0.3-0.2,0.5-0.3,0.6-0.3
		c0,0,0.2,0.2,0.5,0.5C-212.7,4.9-212.9,5.1-213,5.1z M-212.2,10.3l0.2,0.1l-0.2,0.1V10.3z M-212.1,14.8l0.2,0c0,0,0.1,0.1,0.1,0.2
		c-0.1,0-0.1,0.1-0.2,0.1h0C-212,15-212.1,14.9-212.1,14.8z M-211,46.6l-1-2.1c0,0,0-0.1,0.1-0.1c0.1-0.1,0.3-0.2,0.4-0.3l1.2,1.8
		C-210.3,45.9-210.5,46.2-211,46.6z M-209.4,39.5c0,0,0.1,0,0.2,0.1c0.1,0.1,0.1,0.1,0.2,0.2c0.1,0.1,0.2,0.1,0.3,0.2
		c-0.5,0.3-0.8,0.4-0.8,0.4s-0.2-0.1-0.5-0.4L-209.4,39.5z M-209.2,42.8c-0.1,0-0.2-0.1-0.4-0.3c0.1,0,0.1-0.1,0.2-0.2
		c0,0,0.1,0,0.1,0l0.3,0.2L-209.2,42.8z M-208.9,46.5l0.3-0.2l0.1,0.2c0,0-0.1,0-0.2,0.1l-0.1,0.1L-208.9,46.5z M-208.3,47.5
		l-0.5-0.7c0.4-0.2,0.6-0.3,0.6-0.3c0,0,0.1,0.1,0.1,0.1c0.1,0.1,0.2,0.3,0.3,0.4C-207.9,47.2-208.1,47.3-208.3,47.5z M-207.5,45.4
		l-0.2-0.1l-0.2-0.1c0-0.1,0.1-0.3,0.2-0.7c0.1,0,0.2,0.1,0.3,0.3l0.3,0.2L-207.5,45.4z M-207.4,37.6
		C-207.5,37.6-207.5,37.6-207.4,37.6c-0.1,0-0.2,0.1-0.3,0.1c0,0,0-0.1,0-0.1c0,0,0,0,0-0.1c0,0,0-0.1,0.1-0.1
		C-207.6,37.5-207.6,37.5-207.4,37.6L-207.4,37.6z M-207.5,25.2h0.2l-0.1,0.2L-207.5,25.2z M-206.3,21.6c-1-0.7-1.6-1-1.6-1.1
		l1.9,0.5l-0.2,0.3L-206.3,21.6z M-205.7,36.1C-205.8,36.1-205.8,36.1-205.7,36.1c-0.1,0-0.1,0-0.2,0l0,0c0,0-0.1,0-0.1-0.1l0.3-0.2
		V36.1C-205.7,36.1-205.7,36.1-205.7,36.1z M-204.3,40.8C-204.4,40.8-204.4,40.9-204.3,40.8l-0.2-0.1c0.1-0.1,0.1-0.2,0.1-0.3
		l0.3,0.2C-204.3,40.7-204.3,40.8-204.3,40.8z M-204,10.4c-0.1,0.1-0.2,0.1-0.2,0.1c-0.3-0.4-0.5-0.7-0.6-1
		c-0.2-0.3-0.3-0.6-0.4-0.9c0-0.1,0.3-0.4,0.8-1.1l1.1,2.8C-203.7,10.3-203.9,10.4-204,10.4z M-202.4,20.1c-0.1,0.1-0.4,0.3-0.7,0.6
		c0.1-0.6,0.2-0.9,0.2-0.9c0,0,0.2-0.2,0.5-0.4c0,0.1,0.1,0.3,0.1,0.4l0.1,0.1C-202.1,19.9-202.2,20-202.4,20.1z M-201.2,16.2
		c-0.2-0.3-0.3-0.5-0.3-0.6c0,0,0.1-0.4,0.4-1.1c0.1,0.7,0.2,1,0.2,1.1C-200.9,15.7-201,15.9-201.2,16.2z M-199.7,30.8
		c-0.4-0.2-0.5-0.3-0.5-0.4c-0.1,0,0-0.2,0.2-0.6c0.4,0.2,0.5,0.3,0.5,0.4c0,0.1,0,0.1-0.1,0.2C-199.6,30.5-199.6,30.6-199.7,30.8z
		 M-199.4,43.6v-0.3l0.2,0.2L-199.4,43.6z M-199.1,33.6c-0.1,0.1-0.2,0.1-0.3,0.1l-0.1-0.3c0.1-0.1,0.2-0.1,0.3-0.1
		c0,0.1,0,0.1,0.1,0.2V33.6z M-198.8,9.8c-1.6-2.7-2.5-4.2-2.6-4.5c-0.1-0.5,0.2-1,0.8-1.7c0.6-0.8,1-1.1,1.4-1.1
		c0.2,0,1.3,0.7,3.2,2.2c-0.2,0.3-0.4,0.7-0.6,1.1c-0.3,0.4-0.5,0.9-0.8,1.5c-0.3,0.6-0.6,1-0.8,1.4C-198.4,9.2-198.6,9.5-198.8,9.8
		z M-198.1,36.8l0.4,0.3l0.4,0.3c-0.1-0.1,0.3,0.7,0.9,2.2l-1.2-0.4C-197.7,39-197.9,38.2-198.1,36.8z M-195.7,46.6
		c-0.1,0.3-0.3,0.7-0.4,1.1c-0.9-1.3-0.6-2,0.8-2C-195.5,46-195.6,46.3-195.7,46.6z M-195.3,45.6l-0.2-0.2L-195.3,45.6L-195.3,45.6z
		 M-195.5,34.2c-0.3,0.3-0.5,0.2-0.6-0.3c0-0.1,0-0.2,0-0.3c0-0.2,0.1-0.4,0.1-0.8c0.2,0.2,0.4,0.3,0.5,0.3c0.1,0.1,0.2,0.2,0.3,0.3
		c0.1,0.1,0.2,0.2,0.2,0.2C-195.3,34-195.5,34.2-195.5,34.2z M-193.8,1.2c0.3,0.6,0.5,1,0.5,1l-1,1.1l-0.5-0.7L-193.8,1.2z
		 M-194.1,15.8l-0.2,0.2l-0.4-0.4l0.2-0.2L-194.1,15.8z M-192.8,42.5v-0.5l0.2-0.1c0.1,0.2,0.1,0.4,0.1,0.6H-192.8z M-193.3,27.6
		c-0.1,0-0.5-0.2-1.4-0.7c0.7-0.6,1.1-0.8,1.1-0.8c0.2,0,0.5,0.3,1.1,0.8C-193,27.4-193.3,27.6-193.3,27.6z M-192.1,33.2
		c-0.3,0-0.3-0.1-0.1-0.2l0.5-0.4l0.2,0.6H-192.1z M-189.5,36.1c-0.1,0.1-0.2,0.1-0.3,0.2l-0.3,0.2l-0.9-1c0.5-0.4,0.8-0.5,0.8-0.5
		c0.1,0,0.5,0.3,1.2,0.9C-189.2,36-189.4,36-189.5,36.1z M-188.2,33.2c-0.1,0.2-0.1,0.2-0.2,0.2c-0.2,0-0.5-0.1-1.2-0.3
		c0.3-0.4,0.5-0.6,0.7-0.8c0.1-0.1,0.1-0.1,0.1-0.1c0,0,0,0,0,0c0,0,0,0,0,0c0.5,0.4,0.7,0.6,0.7,0.7
		C-188.1,33-188.1,33.1-188.2,33.2z M-188.2,28.6c-0.5,0.6-0.7,0.9-0.6,0.8c-0.3-0.8-0.5-1.3-0.5-1.3l2.2-3.8l0.8,1.6
		C-187.1,27.1-187.8,28-188.2,28.6z M-186.1,0.7L-186.1,0.7c-0.1,0-0.1,0-0.2-0.1l0-0.2c0.1,0,0.1,0,0.2,0
		C-186,0.6-186,0.7-186.1,0.7z M-185.7,28.3l0.1-0.1l0,0.1L-185.7,28.3z M-185.9-2.3c0-0.1,0.2-0.3,0.5-0.6c0.3,0.4,0.4,0.6,0.4,0.6
		c-0.1,0.3-0.2,0.4-0.4,0.4C-185.8-1.9-186-2-185.9-2.3z M-185.1-0.6l0,0.3h-0.8V-1l0.8,0.6h0C-184.9-0.3-184.9-0.6-185.1-0.6l0-0.1
		c1.9,0.5,3.1,0.7,3.4,0.8c0,0,0.3,0.3,0.6,0.9c-0.4,0.1-0.7,0.1-0.9,0.2c-0.2,0-0.3,0.1-0.3,0.1c-1.3,0.1-2.3-0.6-2.8-2.1
		c0,0-0.1,0.1-0.1,0.1C-185.2-0.8-185.2-0.6-185.1-0.6z M-184.9,41.9l-0.3-0.2c0.1-0.1,0.2-0.2,0.2-0.3c0.1,0.1,0.1,0.1,0.1,0.1
		c0,0,0.1,0,0.1,0.1l0,0C-184.7,41.6-184.7,41.7-184.9,41.9z M-184.4,46.3L-184.4,46.3L-184.4,46.3L-184.4,46.3z M-184.3,46.3
		c0,0,0.3-0.2,1-0.7l0.3,0.6L-184.3,46.3z M-182.8,33l0-0.2l0.1,0.1L-182.8,33z M-182,41.3c0,0.1,0,0.1,0,0.1l-0.3-0.3
		c0,0,0-0.1,0-0.1c0,0,0-0.1,0-0.1L-182,41.3C-182,41.2-182,41.2-182,41.3z M-180,30.1c0,0,0.1,0.1,0.2,0.2c0.1,0.1,0.1,0.2,0.1,0.1
		l0,0c-0.4,0.4-0.6,0.6-0.8,0.7c0,0-0.5-0.3-1.3-0.7C-180.8,30.2-180.2,30.1-180,30.1z M-181.7,49.3l-0.1-0.1h0.2L-181.7,49.3z
		 M-181.6,35.6l0.2,0.1l-0.1,0.1L-181.6,35.6z M-181.2,37.2L-181.2,37.2c-0.1,0-0.2,0-0.2,0l0-0.1
		C-181.3,37.1-181.3,37.1-181.2,37.2C-181.2,37.2-181.2,37.2-181.2,37.2L-181.2,37.2z M-180,40.5l-0.3,0.6l-0.6-1.4
		c0,0,0.2-0.4,0.6-1l0.7,1.2L-180,40.5z M-179.5,34.8L-179.5,34.8l-0.1,0l0.1-0.1L-179.5,34.8C-179.5,34.7-179.5,34.7-179.5,34.8
		c0.1-0.1,0.1,0,0.1,0C-179.5,34.8-179.5,34.8-179.5,34.8z M-179.4,24.5l0.1-0.1l0,0.2L-179.4,24.5z M-179.6,13.3
		c-0.3,0.1-0.7,0.1-1.1,0.2l1-1.9c0,0,0.1-0.1,0.2-0.1l0.7,1.6C-179,13.2-179.3,13.2-179.6,13.3z M-179.6,11.4
		c0.3-0.9,0.6-1.6,0.6-2.1v0l0.4,0.1l-0.2-0.1C-177.8,10.6-178,11.3-179.6,11.4z M-178.1,2l0.4-0.1c0,0.2,0,0.3,0,0.3
		c0,0.1,0,0.1-0.1,0L-178.1,2z M-177.8,25l0.3-0.2l0.2,0.2l-0.3,0.2L-177.8,25z M-177.3,27.7c0,0-0.1,0-0.1,0l-0.1-0.1l0.3-0.2
		l0.1,0.1l0.1,0.1C-177.2,27.7-177.2,27.7-177.3,27.7z M-176.5,30.9l-0.4-0.2c0.2-0.2,0.3-0.3,0.3-0.3l0.1-0.1
		c0.1,0.1,0.1,0.1,0.1,0.1c0,0,0,0.1,0.1,0.1l0.1,0L-176.5,30.9z M-173.6,27.3c0-0.1,0-0.1,0-0.2c0-0.1,0-0.2,0-0.3l-0.1-0.5
		l0.7,0.7L-173.6,27.3z M-173.8,26.2c-0.6-0.2-1-0.3-1.4-0.4c-0.4-0.1-0.6-0.1-0.8-0.2l1.8-0.7c0.2-0.1,0.6-0.1,1.1-0.2
		C-173.5,25.7-173.8,26.2-173.8,26.2z M-172.4,24.5c-0.1,0-0.3,0-0.5,0l0.3-0.2l0.3-0.2l0,0.1l0,0.1v0c0,0,0,0,0,0.1v0l0,0
		C-172.1,24.5-172.3,24.5-172.4,24.5z M-170.5,19.5l-0.1,0.1l-0.1-0.2l0.3-0.2l0.1,0.2C-170.4,19.4-170.5,19.5-170.5,19.5z
		 M-169.7,28.4c-0.1-0.1-0.1-0.2-0.2-0.3h0.2c0,0,0,0.1,0,0.1c0,0,0,0,0,0.1l0.1,0.1L-169.7,28.4z M-169.3,24.4c0,0-0.1-0.1-0.1-0.2
		c0,0,0.1-0.1,0.2-0.1h0.1c0,0,0.1,0,0.1,0.1c0,0,0,0.1,0.1,0.2c-0.1,0-0.1,0-0.2,0.1H-169.3z M-168.8,35.2L-168.8,35.2h-0.2
		l0.1-0.1V35h0.1c0,0,0.1,0,0.1,0.1C-168.8,35.1-168.8,35.2-168.8,35.2z M-168.8,17.7c-0.1,0.1-0.2,0.2-0.3,0.2l-1.3-0.8
		c0.6-0.2,1-0.3,1-0.3c0.2,0,0.4,0.2,0.7,0.6C-168.6,17.4-168.7,17.5-168.8,17.7z M-168.9,5.1l0.2,0.1l-0.2,0.2L-168.9,5.1z
		 M-168.8,3.3l-0.3-0.3l0.6-0.6L-168,3l-0.5,0.6C-168.5,3.5-168.6,3.4-168.8,3.3z M-168.2,9.4c-0.2-0.5-0.3-0.8-0.3-0.8
		c0-0.1,0.2-0.3,0.6-0.7c0.1,0.1,0.1,0.1,0.2,0.2c0.1,0.1,0.1,0.1,0.1,0.2c0,0.1,0.1,0.1,0.1,0.1C-167.4,8.5-167.7,8.8-168.2,9.4z
		 M-167.4,26c0,0,0.1-0.1,0.1-0.1h0.1l0.2,0.2c-0.1,0-0.2,0.1-0.3,0.2V26z M-166.9,32.2l0.4,0.3c0,0,0,0.1-0.1,0.1
		c-0.1,0.1-0.1,0.2-0.2,0.3c-0.1-0.1-0.2-0.1-0.3-0.2c0,0-0.1-0.1-0.1-0.1C-167.1,32.5-167,32.4-166.9,32.2z M-166.9,42.1
		c0-0.2-0.1-0.4-0.1-0.5l0.1-0.1c0-0.1,0.2-0.2,0.4-0.4l0.4,1.2l-0.6,0.7C-166.8,42.6-166.9,42.3-166.9,42.1z M-166.2,44.4l0.1,0.2
		l0.2,0.1l-0.1,0.2l-0.3-0.3L-166.2,44.4z M-165.2,50.4c-0.2,0.1-0.3,0.3-0.5,0.4c-0.1,0.1-0.2,0.2-0.3,0.3
		c-0.1-0.1-0.1-0.2-0.1-0.3c0-0.1,0-0.1-0.1-0.2c0-0.1-0.1-0.1-0.1-0.2c0.3-0.4,0.7-0.7,1.2-1l0.5,0.4L-165.2,50.4z M-164.7,43.8
		c-0.3-0.3-0.5-0.6-0.6-0.7c-0.1-0.2-0.2-0.3-0.3-0.3c0,0-0.1-0.1-0.1-0.2c-0.1-0.1-0.2-0.2-0.3-0.3c0.5,0,0.8,0,0.8,0.1
		c0.2,0.1,0.5,0.5,0.8,1.1L-164.7,43.8z M-163.7,45.6c0,0,0,0.1,0,0.1c0,0.1,0,0.1-0.1,0.3l-0.4-0.3l0.3-0.3
		C-163.7,45.4-163.6,45.5-163.7,45.6z M-163.1,43l-0.1-0.1h0.2L-163.1,43z M-161.1,43.3c0,0.1,0.1,0.2,0.1,0.3c0,0.1,0,0.1,0,0.1
		c0,0-0.1,0-0.1,0.1c0,0-0.1,0.1-0.1,0.1c0,0-0.1,0-0.1,0.1l-0.2-0.3c-0.2,0.1-0.4,0.2-0.6,0.3c-0.1,0-0.3-0.1-0.5-0.3
		c-0.3-0.3-0.4-0.5-0.4-0.7c0.1-0.1,0.2-0.3,0.4-0.5c0.1-0.2,0.3-0.3,0.5-0.6c0.2-0.2,0.4-0.5,0.7-0.9c0.4,1.1,0.5,1.7,0.5,1.9
		C-161,43.1-161,43.2-161.1,43.3L-161.1,43.3z M-160.3,24c0,0-0.1,0.1-0.1,0.2l-0.3-0.2l-0.3-0.2c0.1,0,0.4,0.1,0.6,0.1
		C-160.2,23.9-160.2,24-160.3,24z M-160.1,3.4c-0.1-0.1-0.1-0.2-0.2-0.3c0-0.1-0.1-0.1-0.1-0.2c0-0.1-0.1-0.1-0.1-0.2l0.4-0.9
		c0.1,0.1,0.2,0.1,0.3,0.2c0.1,0.1,0.1,0.1,0.2,0.2c0.1,0.1,0.1,0.1,0.2,0.1C-159.5,2.5-159.7,2.8-160.1,3.4z M-158.7,28.5
		L-158.7,28.5c-0.1,0-0.1,0-0.2-0.1l0-0.2c0.1,0,0.1,0,0.2,0C-158.6,28.5-158.6,28.5-158.7,28.5z M-158.5,25.5
		c0-0.1,0.2-0.3,0.5-0.6c0.3,0.4,0.4,0.6,0.4,0.6c-0.1,0.3-0.2,0.4-0.4,0.4C-158.5,25.9-158.6,25.8-158.5,25.5z M-154.7,42.8
		C-154.7,42.7-154.7,42.7-154.7,42.8c0-0.1-0.1-0.1-0.1-0.1v-0.1l0.2-0.1l0.1,0.1l0,0.1L-154.7,42.8z M-154.9,39.8
		c-0.1,0-0.7-0.1-1.9-0.4l1-1l1.6,0.6C-154.6,39.5-154.9,39.8-154.9,39.8z M-157.4,32l1.4-2.3c0.3,0.4,0.4,0.7,0.4,0.7l-1.2,2.1
		L-157.4,32z M-154.6,28.9c-0.2,0-0.3,0.1-0.3,0.1c-1.3,0.1-2.3-0.6-2.8-2.1c0,0-0.1,0-0.1,0c0,0,0.1-0.1,0.1-0.1l0-0.1h-0.2v0.2
		l0.2-0.2h0c0.2,1,0.2,0.2,0,0.1l0,0.1c1.9,0.5,3.1,0.8,3.4,0.9c0,0,0.3,0.3,0.6,1C-154.1,28.8-154.4,28.9-154.6,28.9z M-153.5,26.7
		l0.2,0.1l-0.2,0.1V26.7z M-153.1,44.4l-0.2-0.1c0-0.1,0-0.1,0-0.1s0-0.1,0-0.1C-153.2,44.3-153.1,44.4-153.1,44.4
		C-153.1,44.5-153.1,44.5-153.1,44.4z M-152.2,41.1c-0.3,0.1-0.7,0.1-1.1,0.2l1-1.9c0,0,0.1-0.1,0.2-0.1l0.7,1.6
		C-151.6,41-151.9,41-152.2,41.1z M-152.4,39.2c0.3-0.9,0.4-1.6,0.4-2.1v0l0.5,0.1l-0.2-0.1C-150.6,38.4-150.9,39.1-152.4,39.2z
		 M-150.3,30.1c0,0.1,0,0.1-0.1,0l-0.3-0.3l0.4-0.1C-150.3,29.9-150.3,30-150.3,30.1z M-150.8,27.4c-0.2-0.1-0.3-0.1-0.4-0.2
		c-0.1-0.1-0.3-0.1-0.3-0.1c0.1-0.5,0.3-0.9,0.4-1.3c0.1-0.4,0.3-0.8,0.4-1.1c0.1,0,0.1,0,0.2-0.1c0.1-0.1,0.1-0.1,0.2-0.2
		c0.1-0.1,0.2-0.1,0.3-0.2c0.1,0.1,0.1,0.2,0.2,0.2c0,0,0.1,0.1,0.1,0.2c0,0.1,0.1,0.1,0.1,0.1c0,0.3-0.1,0.7-0.1,1
		c-0.1,0.3-0.1,0.7-0.2,1.2c0,0-0.1,0.3-0.3,0.8C-150.4,27.6-150.6,27.5-150.8,27.4z M-149.8,47.9
		C-149.8,47.9-149.9,47.9-149.8,47.9l-0.4-0.1c0.2-0.1,0.4-0.2,0.4-0.2c0.1,0,0.2,0.1,0.4,0.2C-149.6,47.8-149.7,47.9-149.8,47.9z
		 M-148.6,43.6c-0.8-1-1.2-1.6-1.2-1.7c0,0,0.3-0.4,0.9-1c0.3,0.4,0.5,0.7,0.6,0.9c0.2,0.2,0.3,0.4,0.3,0.5L-148.6,43.6z
		 M-147.4,31.2l-0.1-0.1l0.1,0V31.2z M-147.8,15.3c0,0-0.1,0-0.1,0c0,0-0.1,0-0.3-0.1c0.1,0,0.2,0,0.3,0s0.3,0,0.5,0
		C-147.5,15.3-147.7,15.3-147.8,15.3z M-147,39.8c0,0.1,0,0.2,0,0.2l-0.1-0.3C-147.2,39.6-147.1,39.7-147,39.8
		C-147.1,39.7-147,39.7-147,39.8L-147,39.8z M-147.5,5.8l-0.5-0.5c0.3-0.2,0.5-0.3,0.6-0.3c0,0,0.2,0.2,0.5,0.5
		C-147.2,5.7-147.4,5.8-147.5,5.8z M-146.7,11.1l0.2,0.1l-0.2,0.1V11.1z M-146.6,15.6l0.2,0c0,0,0.1,0.1,0.1,0.2
		c-0.1,0-0.1,0.1-0.2,0.1h0C-146.6,15.8-146.6,15.7-146.6,15.6z M-145.5,47.4l-1-2.1c0,0,0-0.1,0.1-0.1c0.1-0.1,0.3-0.2,0.4-0.3
		l1.2,1.8C-144.9,46.7-145.1,47-145.5,47.4z M-144,40.3c0,0,0.1,0,0.2,0.1c0.1,0.1,0.1,0.1,0.2,0.2c0.1,0.1,0.2,0.1,0.3,0.2
		c-0.5,0.3-0.8,0.4-0.8,0.4s-0.2-0.1-0.5-0.4L-144,40.3z M-143.8,43.6c-0.1,0-0.2-0.1-0.4-0.3c0.1,0,0.1-0.1,0.2-0.2
		c0,0,0.1,0,0.1,0l0.3,0.2L-143.8,43.6z M-143.4,47.3l0.3-0.2l0.1,0.2c0,0-0.1,0-0.2,0.1l-0.1,0.1L-143.4,47.3z M-142.8,48.2
		l-0.5-0.7c0.4-0.2,0.6-0.3,0.6-0.3c0,0,0.1,0.1,0.1,0.1c0.1,0.1,0.2,0.3,0.3,0.4C-142.4,48-142.6,48.1-142.8,48.2z M-142.1,46.1
		l-0.2-0.1l-0.2-0.1c0-0.1,0.1-0.3,0.2-0.7c0.1,0,0.2,0.1,0.3,0.3l0.3,0.2L-142.1,46.1z M-142,38.4C-142,38.4-142,38.4-142,38.4
		c-0.1,0-0.2,0.1-0.3,0.1c0,0,0-0.1,0-0.1c0,0,0,0,0-0.1c0,0,0-0.1,0.1-0.1C-142.1,38.3-142.1,38.3-142,38.4L-142,38.4z M-142,26
		h0.2l-0.1,0.2L-142,26z M-140.8,22.4c-1-0.7-1.6-1-1.6-1.1l1.9,0.5l-0.2,0.3L-140.8,22.4z M-140.3,36.9
		C-140.3,36.9-140.3,36.9-140.3,36.9c-0.1,0-0.1,0-0.2,0l0,0c0,0-0.1,0-0.1-0.1l0.3-0.2V36.9C-140.2,36.8-140.2,36.9-140.3,36.9z
		 M-138.9,41.6C-138.9,41.6-139,41.7-138.9,41.6l-0.2-0.1c0.1-0.1,0.1-0.2,0.1-0.3l0.3,0.2C-138.8,41.5-138.9,41.6-138.9,41.6z
		 M-138.6,11.2c-0.1,0.1-0.2,0.1-0.2,0.1c-0.3-0.4-0.5-0.7-0.6-1c-0.2-0.3-0.3-0.6-0.4-0.9c0-0.1,0.3-0.4,0.8-1.1l1.1,2.8
		C-138.3,11.1-138.5,11.2-138.6,11.2z M-136.9,20.9c-0.1,0.1-0.4,0.3-0.7,0.6c0.1-0.6,0.2-0.9,0.2-0.9c0,0,0.2-0.2,0.5-0.4
		c0,0.1,0.1,0.3,0.1,0.4l0.1,0.1C-136.7,20.7-136.8,20.8-136.9,20.9z M-135.7,17c-0.2-0.3-0.3-0.5-0.3-0.6c0,0,0.1-0.4,0.4-1.1
		c0.1,0.7,0.2,1,0.2,1.1C-135.4,16.5-135.5,16.7-135.7,17z M-134.2,31.6c-0.4-0.2-0.5-0.3-0.5-0.4c-0.1,0,0-0.2,0.2-0.6
		c0.4,0.2,0.5,0.3,0.5,0.4c0,0.1,0,0.1-0.1,0.2C-134.1,31.3-134.1,31.4-134.2,31.6z M-133.9,44.4v-0.3l0.2,0.2L-133.9,44.4z
		 M-133.6,34.4c-0.1,0.1-0.2,0.1-0.3,0.1l-0.1-0.3c0.1-0.1,0.2-0.1,0.3-0.1c0,0.1,0,0.1,0.1,0.2V34.4z M-133.3,10.6
		c-1.6-2.7-2.5-4.2-2.6-4.5c-0.1-0.5,0.2-1,0.8-1.7c0.6-0.8,1-1.1,1.4-1.1c0.2,0,1.3,0.7,3.2,2.2c-0.2,0.3-0.4,0.7-0.6,1.1
		c-0.3,0.4-0.5,0.9-0.8,1.5c-0.3,0.6-0.6,1-0.8,1.4C-133,10-133.2,10.3-133.3,10.6z M-132.6,37.6l0.4,0.3l0.4,0.3
		c-0.1-0.1,0.3,0.7,0.9,2.2l-1.2-0.4C-132.3,39.8-132.4,39-132.6,37.6z M-130.3,47.4c-0.1,0.3-0.3,0.7-0.4,1.1c-0.9-1.3-0.6-2,0.8-2
		C-130,46.8-130.1,47.1-130.3,47.4z M-129.9,46.4l-0.2-0.2L-129.9,46.4L-129.9,46.4z M-130.1,35c-0.3,0.3-0.5,0.2-0.6-0.3
		c0-0.1,0-0.2,0-0.3c0-0.2,0.1-0.4,0.1-0.8c0.2,0.2,0.4,0.3,0.5,0.3c0.1,0.1,0.2,0.2,0.3,0.3c0.1,0.1,0.2,0.2,0.2,0.2
		C-129.9,34.8-130,35-130.1,35z M-128.3,2c0.3,0.6,0.5,1,0.5,1l-1,1.1l-0.5-0.7L-128.3,2z M-128.6,16.6l-0.2,0.2l-0.4-0.4l0.2-0.2
		L-128.6,16.6z M-127.4,43.3v-0.5l0.2-0.1c0.1,0.2,0.1,0.4,0.1,0.6H-127.4z M-127.8,28.4c-0.1,0-0.5-0.2-1.4-0.7
		c0.7-0.6,1.1-0.8,1.1-0.8c0.2,0,0.5,0.3,1.1,0.8C-127.5,28.2-127.8,28.4-127.8,28.4z M-126.7,33.9c-0.3,0-0.3-0.1-0.1-0.2l0.5-0.4
		l0.2,0.6H-126.7z M-124,36.9c-0.1,0.1-0.2,0.1-0.3,0.2l-0.3,0.2l-0.9-1c0.5-0.4,0.8-0.5,0.8-0.5c0.1,0,0.5,0.3,1.2,0.9
		C-123.8,36.7-123.9,36.8-124,36.9z M-122.8,34c-0.1,0.2-0.1,0.2-0.2,0.2c-0.2,0-0.5-0.1-1.2-0.3c0.3-0.4,0.5-0.6,0.7-0.8
		c0.1-0.1,0.1-0.1,0.1-0.1c0,0,0,0,0,0c0,0,0,0,0,0c0.5,0.4,0.7,0.6,0.7,0.7C-122.6,33.8-122.6,33.9-122.8,34z M-122.8,29.4
		c-0.5,0.6-0.7,0.9-0.6,0.8c-0.3-0.8-0.5-1.3-0.5-1.3l2.2-3.8l0.8,1.6C-121.6,27.9-122.3,28.8-122.8,29.4z M-120.6,1.5L-120.6,1.5
		c-0.1,0-0.1,0-0.2-0.1l0-0.2c0.1,0,0.1,0,0.2,0C-120.5,1.4-120.6,1.5-120.6,1.5z M-120.2,29.1l0.1-0.1l0,0.1L-120.2,29.1z
		 M-120.4-1.5c0-0.1,0.2-0.3,0.5-0.6c0.3,0.4,0.4,0.6,0.4,0.6c-0.1,0.3-0.2,0.4-0.4,0.4C-120.4-1.1-120.5-1.2-120.4-1.5z
		 M-119.7-0.2l0-0.1h-0.3v0.1l0.3-0.1h0C-119.5-0.3-119.5-0.2-119.7-0.2L-119.7-0.2c1.9,0.5,3.1,0.9,3.4,1c0,0,0.3,0.3,0.6,1
		c-0.4,0.1-0.7,0.1-0.9,0.2c-0.2,0-0.3,0.1-0.3,0.1c-1.3,0.1-2.3-0.6-2.8-2.1C-119.7-0.1-119.7-0.2-119.7-0.2
		C-119.7-0.2-119.7-0.2-119.7-0.2z M-119.4,42.7l-0.3-0.2c0.1-0.1,0.2-0.2,0.2-0.3c0.1,0.1,0.1,0.1,0.1,0.1c0,0,0.1,0,0.1,0.1l0,0
		C-119.2,42.4-119.3,42.5-119.4,42.7z M-118.9,47L-118.9,47L-118.9,47L-118.9,47z M-118.8,47c0,0,0.3-0.2,1-0.7l0.3,0.6L-118.8,47z
		 M-117.3,33.8l0-0.2l0.1,0.1L-117.3,33.8z M-116.6,42.1c0,0.1,0,0.1,0,0.1l-0.3-0.3c0,0,0-0.1,0-0.1c0,0,0-0.1,0-0.1L-116.6,42.1
		C-116.5,42-116.6,42-116.6,42.1z M-114.6,30.9c0,0,0.1,0.1,0.2,0.2c0.1,0.1,0.1,0.2,0.1,0.1l0,0c-0.4,0.4-0.6,0.6-0.8,0.7
		c0,0-0.5-0.3-1.3-0.7C-115.3,31-114.7,30.9-114.6,30.9z M-116.3,50.1l-0.1-0.1h0.2L-116.3,50.1z M-116.1,36.4l0.2,0.1l-0.1,0.1
		L-116.1,36.4z M-115.8,38L-115.8,38c-0.1,0-0.2,0-0.2,0l0-0.1C-115.9,37.9-115.8,37.9-115.8,38C-115.8,38-115.7,38-115.8,38
		L-115.8,38z M-114.5,41.3l-0.3,0.6l-0.6-1.4c0,0,0.2-0.4,0.6-1l0.7,1.2L-114.5,41.3z M-114.1,35.6L-114.1,35.6l-0.1,0l0.1-0.1
		L-114.1,35.6C-114,35.5-114,35.5-114.1,35.6c0.1-0.1,0.1,0,0.1,0C-114,35.5-114,35.6-114.1,35.6z M-113.9,25.3l0.1-0.1l0,0.2
		L-113.9,25.3z M-114.1,14.1c-0.3,0.1-0.7,0.1-1.1,0.2l1-1.9c0,0,0.1-0.1,0.2-0.1l0.7,1.6C-113.5,14-113.8,14-114.1,14.1z
		 M-114.3,12.2c0.3-0.9,0.4-1.6,0.4-2.1v0l0.6,0.1l-0.2-0.1C-112.6,11.4-112.8,12.1-114.3,12.2z M-112.7,2.8l0.4-0.1
		c0,0.2,0,0.3,0,0.3c0,0.1,0,0.1-0.1,0L-112.7,2.8z M-112.3,25.8l0.3-0.2l0.2,0.2l-0.3,0.2L-112.3,25.8z M-111.8,28.5
		c0,0-0.1,0-0.1,0l-0.1-0.1l0.3-0.2l0.1,0.1l0.1,0.1C-111.7,28.5-111.8,28.5-111.8,28.5z M-111,31.7l-0.4-0.2
		c0.2-0.2,0.3-0.3,0.3-0.3l0.1-0.1c0.1,0.1,0.1,0.1,0.1,0.1c0,0,0,0.1,0.1,0.1l0.1,0L-111,31.7z M-108.1,28.1c0-0.1,0-0.1,0-0.2
		c0-0.1,0-0.2,0-0.3l-0.1-0.5l0.7,0.7L-108.1,28.1z M-108.4,27c-0.6-0.2-1-0.3-1.4-0.4c-0.4-0.1-0.6-0.1-0.8-0.2l1.8-0.7
		c0.2-0.1,0.6-0.1,1.1-0.2C-108.1,26.5-108.3,27-108.4,27z M-106.9,25.3c-0.1,0-0.3,0-0.5,0l0.3-0.2l0.3-0.2l0,0.1l0,0.1v0
		c0,0,0,0,0,0.1v0l0,0C-106.7,25.3-106.8,25.3-106.9,25.3z M-105.5,33.8l-0.3-0.5l0.1-0.1c0,0.1,0.1,0.2,0.1,0.3
		C-105.6,33.6-105.6,33.6-105.5,33.8L-105.5,33.8C-105.5,33.7-105.5,33.7-105.5,33.8c0.1-0.1,0.1-0.1,0.1-0.1L-105.5,33.8
		C-105.5,33.7-105.5,33.7-105.5,33.8z M-104,44.6c-0.1,0-0.1,0-0.2,0l-0.2-0.1l0.3-0.2L-104,44.6C-104,44.6-104,44.6-104,44.6z
		 M-104.2,23.1l0.7-0.4l0.8,1.6l0.2,0.8c0,0.2,0.1,0.3,0.1,0.4c0,0.1,0,0.2,0,0.3l-0.3-1.4l-0.1-0.2c-0.1,0-0.2-0.1-0.4-0.3
		C-103.5,23.6-103.8,23.4-104.2,23.1z M-101.9,46.5c-0.1,0-0.2,0.1-0.4,0.1c-0.2,0-0.3,0.1-0.4,0.1c-0.1,0-0.2,0.1-0.3,0.1
		c0-0.1-0.1-0.2-0.1-0.3c0.2,0,0.4,0,0.6-0.1l0.7-0.1C-101.8,46.5-101.8,46.5-101.9,46.5z M-101,35.5c0.2-0.6,0.3-1.1,0.4-1.2
		l1.2-0.9c0.1,0.3,0.1,0.5,0.2,0.7c0.1,0.2,0.1,0.4,0.2,0.6c0,0.2,0.1,0.3,0.1,0.4c-0.2,0.2-0.5,0.5-1,1c-0.5,0.5-1.1,1.1-1.9,1.9
		C-101.4,36.9-101.1,36.1-101,35.5z M-99.3,49.7L-99.3,49.7h-0.2l0.1-0.1v-0.1h0.1c0,0,0.1,0,0.1,0.1
		C-99.3,49.6-99.3,49.7-99.3,49.7z M-99.4,47.7c-0.7,0.3-1.2,0.3-1.5,0.2c-0.1-0.1-0.3-0.6-0.6-1.4c0.6,0.1,1,0.2,1.1,0.2
		c0,0,0.2,0,0.4,0c0.2,0,0.5,0,0.9,0C-99.3,47.4-99.3,47.7-99.4,47.7z M-99.3,43.6c-0.4,0.5-1,1.2-1.6,1.9c-0.1-2-0.2-3.1-0.2-3.4
		c0,0,0.4-0.4,1.2-1.1c0.3,0.2,0.5,0.4,0.7,0.6c0.2,0.2,0.3,0.3,0.5,0.4c0.2,0.2,0.3,0.3,0.4,0.3C-98.5,42.7-98.8,43.1-99.3,43.6z
		 M-98.2,9c0,0-0.1-0.3-0.2-0.3h-0.2c0,0-0.2-0.3-0.3-0.8c0,0,0.1,0,0.1,0c-0.4-0.4-0.6-0.7-0.6-0.7c0-0.1,0.4-0.7,1.2-1.7l0.6,1.4
		c-0.1,0.1-0.2,0.6-0.3,0.8c-0.1,0.2-0.3,0-0.5,1c0,0,0,0,0,0h0.2C-98.1,8.7-98.1,8.6-98.2,9z M-96.8,34.3c0,0,0.1,0.1,0.3,0.1
		c0.1,0,0.3,0.1,0.4,0.1c0.2,0,0.3,0.1,0.6,0.2c-0.5,0.3-1,0.5-1.3,0.7c-0.3,0.2-0.5,0.3-0.6,0.3c0,0,0-0.1-0.1-0.2
		c-0.1-0.1-0.2-0.3-0.5-0.6C-97.2,34.5-96.9,34.3-96.8,34.3z M-95.3,42.6c-0.4,0.4-0.6,0.6-0.6,0.6c-0.1,0-0.3-0.1-0.7-0.3l0.6-0.6
		C-95.9,42.1-95.7,42.3-95.3,42.6z M-97,38.1c0,0,0,0.1-0.1,0.1v0.1c0,0-0.1,0-0.1-0.1h-0.1c0-0.1,0-0.1,0-0.1s0,0,0-0.1V38h0.1
		C-97.1,38-97.1,38.1-97,38.1z M-97.2,47.4c-0.1-0.1-0.2-0.1-0.3-0.2c0,0-0.1-0.1-0.1-0.1c0-0.1,0.1-0.2,0.2-0.4L-97,47
		c0,0,0,0.1-0.1,0.1C-97.2,47.2-97.2,47.3-97.2,47.4z M-95.6,51.1l-1.5-0.7l1-0.2c0.1,0,0.2,0.1,0.4,0.2c0.2,0.1,0.4,0.2,0.7,0.4
		L-95.6,51.1z M-95.2,46.3l0.1-0.1l0.1,0.2L-95.2,46.3z M-95.1,36.1v-0.2l0.2,0.1L-95.1,36.1z M-94.8,30.9l-0.2-0.1
		c0-0.1,0.1-0.2,0.1-0.2h0.1c0,0,0.1,0,0.2,0.1C-94.7,30.8-94.8,30.9-94.8,30.9z M-93.3,25.4l-0.2-0.1l0.2-0.1V25.4z M-94.8,11.8
		c-0.1-0.3,0.2-0.5,1-0.7c1.3-0.3,1.6,0.2,1,1.4C-93.7,13.3-94.4,13.1-94.8,11.8z M-92.2,13.1c0.1,0.1,0.2,0.2,0.3,0.3l-0.5,0.2
		l-0.3-1C-92.5,12.8-92.3,13-92.2,13.1z M-92.4,18.9l-0.2-0.1l0.2-0.1V18.9z M-92.4,15.6c0,0,0.1-0.2,0.3-0.6l0.3,0.2
		c0.1,0,0.1,0.1,0.2,0.1c0.1,0,0.1,0.1,0.2,0.1l-0.6,0.5c0,0-0.1,0-0.2-0.1C-92.4,15.8-92.4,15.7-92.4,15.6z M-91.9,22l-0.5-0.6
		l0.5-0.9c0.1,0.2,0.2,0.3,0.3,0.4c0.1,0.1,0.2,0.2,0.3,0.3L-91.9,22z M-91.4,17.4c0-0.1-0.1-0.1-0.1-0.2c0,0,0-0.1-0.1-0.1l0.3-0.2
		l0.1,0.2L-91.4,17.4z M-91.3,1.1C-91.3,1.1-91.3,1.1-91.3,1.1l-1.6,2.3c-0.2-0.2-0.4-0.3-0.6-0.4c-0.1,0-0.1-0.1-0.1-0.1l1.5-2.9
		c0.3,0.3,0.6,0.6,0.7,0.7c0.1-0.1,0.2-0.1,0.2,0l0.2,0.2L-91.3,1.1z M-91.2-6.1c-0.2,0-0.3,0.1-0.4,0.1c-0.1,0-0.2,0.1-0.3,0.1
		c0-0.1-0.1-0.2-0.1-0.3c0.2,0,0.4,0,0.6-0.1l0.7-0.1c-0.1,0-0.2,0.1-0.3,0.1C-90.9-6.2-91-6.1-91.2-6.1z M-90,43.7
		c0,0.1,0,0.1-0.1,0.3l-0.2-0.2l-0.3-0.3c0.1-0.1,0.2-0.1,0.3-0.1c0.1,0,0.1,0,0.1-0.1L-90,43.7C-90,43.7-90,43.7-90,43.7z
		 M-87.3,47l-0.6-0.5l1.4-2.3c0.3,0.4,0.4,0.7,0.4,0.7L-87.3,47z M-86.2,39.4c-0.6-0.8-0.9-1.2-0.9-1.3c0.1-0.3,0.3-0.6,0.4-1
		c0.2-0.4,0.4-0.8,0.7-1.2c0.1,0,0.1,0,0.3,0.1c0.1,0,0.4,0.1,0.7,0.2L-86.2,39.4z M-85,12.5c-0.1,0.1-0.2,0.2-0.3,0.3
		c-0.1-0.1-0.1-0.2-0.1-0.3c0-0.1,0-0.1-0.1-0.2c0-0.1-0.1-0.1-0.1-0.2c0.3-0.4,0.7-0.7,1.2-1l0.5,0.4l-0.6,0.6
		C-84.7,12.3-84.9,12.4-85,12.5z M-84.2,32.1c-0.1,0-0.1,0-0.1,0l-0.1-0.1l-0.1-0.1l0.3-0.3l0.2,0.4C-84,32-84.1,32.1-84.2,32.1z
		 M-83.5,25.1c-0.1,0.2-0.1,0.3-0.2,0.5c-0.4-0.3-0.6-0.5-0.6-0.5c0,0-0.1-0.3-0.2-1c0.3,0.3,0.6,0.5,0.8,0.7
		c0.2,0.2,0.3,0.3,0.3,0.3L-83.5,25.1z M-83.1,7.4c0,0,0,0.1,0,0.1c0,0.1,0,0.1-0.1,0.3l-0.4-0.3l0.3-0.3C-83.1,7.2-83,7.2-83.1,7.4
		z M-82.3,29.2c0.2,0.4,0.3,0.6,0.3,0.7c0,0.1-0.1,0.5-0.2,1.3c-0.3-0.8-0.5-1.2-0.5-1.3C-82.6,29.8-82.5,29.6-82.3,29.2z
		 M-81.7,46.7c0,0-0.3,0-0.8-0.2c0.1-0.1,0.3-0.2,0.4-0.4C-82,46-82,46-81.9,46s0.2,0.1,0.6,0.3C-81.5,46.5-81.7,46.7-81.7,46.7z
		 M-81.3,12.7c0-0.1,0.2-0.2,0.6-0.4c0.1,0.2,0.2,0.4,0.2,0.5c0.1,0.1,0.1,0.1,0.1,0.2c0,0.1-0.2,0.2-0.6,0.4
		C-81.3,12.9-81.4,12.7-81.3,12.7z M-80,49.8h-0.2c-0.1,0-0.1,0-0.2,0c-0.1,0-0.2,0-0.3,0c0.2-0.4,0.3-0.7,0.3-0.7h0.2
		c0.1,0,0.2,0.1,0.2,0.1C-79.9,49.5-79.9,49.7-80,49.8z M13.7,37.4v-0.2l0.2,0.1L13.7,37.4z M13.6,15.6l0,0.1l-0.1-0.1L13.6,15.6z
		 M13.4,17l-0.1,0.2L13.2,17H13.4z M12.8,0c0.1,0.1,0.1,0.2,0.1,0.3v0.1c0,0.1,0,0.1-0.1,0.1c-0.1,0-0.1,0-0.2,0.1L12.8,0z
		 M12.5,13.6c0,0,0-0.1,0-0.1l0.2,0.1l-0.1,0.1c0,0.1,0,0.1-0.1,0C12.4,13.6,12.5,13.6,12.5,13.6z M12.3,18.6
		c0.1-0.1,0.3-0.2,0.4-0.3l1.2,1.8c0,0-0.2,0.3-0.6,0.7l-1-2.1C12.2,18.6,12.2,18.6,12.3,18.6z M12.9,29.4l-1.6,0.6l-1-1
		c1.2-0.3,1.8-0.4,1.9-0.4C12.2,28.6,12.4,28.9,12.9,29.4z M9.4,42.9c0,0-0.1,0.2-0.4,0.6c-0.1-0.1-0.2-0.2-0.3-0.3l-0.1,0.1
		c-0.2-0.2-0.5-0.3-0.7-0.5S7.5,42.3,7.2,42c1-0.4,1.5-0.6,1.6-0.6c0.1-0.1,0.4,0.1,0.9,0.4l-0.6,0.7C9.3,42.6,9.4,42.7,9.4,42.9z
		 M5,40.2C4.9,40.2,4.9,40.2,5,40.2l-0.4-0.1C4.8,40,4.9,39.9,5,39.9c0.1,0,0.2,0.1,0.4,0.2C5.2,40.2,5,40.2,5,40.2z M5.1,41.9
		C5.1,41.9,5.1,41.9,5.1,41.9C5,42,5,42,4.9,42L5.1,41.9C5,41.9,5,41.9,5.1,41.9z M4.6,12.3c-0.4,0.5-0.7,0.8-0.7,0.8
		c-0.1,0-0.7-0.1-1.9-0.4l1-1L4.6,12.3z M3,1l0.3-0.2l0.3-0.1l0.6,0.6L3.8,1.5C3.6,1.7,3.4,1.9,3.3,1.9C3.1,1.4,3,1.1,3,1z M3,29.4
		L3,29.4l1,0.1v-0.1c1,1.4,0.3,2.1-1.2,2.1C3,30.7,3,30,3,29.4z M4.1,16.1C4.1,16.1,4.1,16.1,4.1,16.1C4,16,4,16,4,16v-0.1l0.2-0.1
		l0.1,0.1l0,0.1L4.1,16.1z M4.5,24.4l1.5-3l0.7,0.2c0.2,0.1,0.4,0.1,0.7,0.1c0.3,2.5,0.4,3.9,0.3,4c-0.1,0.1-1.3,1.1-3.6,2.8
		C4.3,25.9,4.5,24.6,4.5,24.4z M6.1,16.8l-0.3,0.8c-0.1-0.1-0.2-0.1-0.3-0.2c0.1,0.2,0.1,0.3,0.1,0.3c0,0,0,0,0,0l-0.2-0.1
		c0-0.1,0-0.1,0-0.1c0,0,0-0.1,0-0.1c-0.1-0.1-0.2-0.1-0.2-0.1c-0.1-0.1-0.1-0.1-0.2-0.1c0.1-0.1,0.1-0.1,0.1-0.2
		c0-0.1,0-0.2,0.1-0.2c0-0.1,0-0.2,0-0.3L6.1,16.8z M5.5,14.7l1-1.9c0,0,0.1-0.1,0.2-0.1l0.7,1.6c-0.2,0-0.5,0.1-0.8,0.1
		C6.3,14.5,5.9,14.6,5.5,14.7z M7.7,32L7.7,32c0,0.1,0,0.2,0,0.2l-0.1-0.3C7.6,32,7.6,32,7.7,32C7.7,32,7.7,32,7.7,32z M4.9,34.2
		c0,0,0.3-0.4,0.9-1C6,33.5,6.3,33.8,6.4,34c0.2,0.2,0.3,0.4,0.3,0.5l-0.6,1.3C5.3,34.9,4.9,34.3,4.9,34.2z M6.4,40.6
		c0-0.2,0.1-0.5,0.1-1C6.8,39.8,7,39.9,7.1,40c0.1,0.1,0.3,0.2,0.4,0.3c0.1,0.1,0.2,0.2,0.3,0.2c-0.4,0.5-0.6,0.8-0.7,0.8
		c-0.4,0.3-0.7,0.2-0.8-0.4C6.3,40.9,6.3,40.8,6.4,40.6z M8.2,39.9C8.3,39.9,8.3,39.9,8.2,39.9l0.2-0.1c0,0,0.1,0.1,0.1,0.2
		c-0.1,0-0.1,0-0.2,0L8.2,39.9z M9.3,39.7l-1-2.1c0,0,0-0.1,0.1-0.1c0.1-0.1,0.3-0.2,0.4-0.3L9.9,39C9.9,39.1,9.7,39.3,9.3,39.7z
		 M8.2,31.9c0.9-0.7,1.4-1.1,1.4-1c0.2,0,0.7,0.3,1.4,1c-0.6,0.6-0.9,0.9-1,0.9S9.4,32.5,8.2,31.9z M8.7,17.7l-0.5-0.5l0.3-0.3
		L9,17.5L8.7,17.7z M9.4,21.1C9.2,21.2,9,21.3,9,21.3c0,0-0.1,0-0.1,0l-0.3-0.1C8.8,21,8.9,20.9,9,20.9C9,20.9,9.2,21,9.4,21.1z
		 M11.7,13C11.7,13,11.7,13,11.7,13L11.7,13c0,0.2,0,0.3,0,0.3L11.5,13C11.6,13,11.6,13,11.7,13z M10.8,15.6l-0.6,1.3
		c-0.8-1-1.2-1.6-1.2-1.7c0,0,0.3-0.4,0.9-1c0.3,0.4,0.5,0.7,0.6,0.9C10.6,15.3,10.7,15.5,10.8,15.6z M9.3-4.6L8.9-4.7
		C8.8-4.9,8.7-5,8.6-5.2L9.3-4.6z M8.3-5.4C8.4-5.4,8.4-5.4,8.3-5.4L8.3-5.4C8.4-5.4,8.4-5.4,8.3-5.4L8.2-5.2L8.3-5.4z M9.4-1.3
		C9.8-0.5,10-0.1,10,0L8.7,1.4L8,0.5L9.4-1.3z M6.7,12.6C7,11.7,7.2,11,7.5,10.4C8.5,11.8,8.3,12.5,6.7,12.6z M6,4.7
		C5.7,3.8,5.3,2.6,4.8,1.2C7.3,1.3,7.7,2.5,6,4.7z M4.6-4.1C4.7-4.1,4.7-4.1,4.6-4.1l0.1,0.8H4.2c0,0.1-0.1-0.2-0.2-0.7
		C4.4-4,4.6-4,4.6-4.1z M2.5-2.3c0.1,0.1,0.2,0.1,0.3,0.2l0-0.1C3.5-2.1,4.1-2,4.6-1.8c0.5,0.1,0.9,0.2,1.3,0.2L4.8,1.1
		C4.5,1,4.4,0.9,4.4,0.9L3.2-1.5C3.1-1.4,3-1.2,3-1.1C2.9-1,2.9-1,2.8-0.9c0,0-0.3-0.1-0.9-0.4L2.5-2.3z M1.9-1.3l0.2,0.2
		C2.2-1,2.2-0.9,2.3-0.9L2.2-0.6L1.7-1L1.9-1.3z M-3.5-4.9l0.2,0.5l-0.2-0.1c-0.1,0-0.1,0-0.1-0.1C-3.5-4.7-3.5-4.8-3.5-4.9z
		 M-6,43.7C-6,43.8-6,43.8-6,43.7c-0.1,0.1-0.1,0.1-0.2,0.1c0,0-0.1,0-0.1,0l-0.1-0.1c0,0-0.1,0-0.1-0.1l0.4-0.3L-6,43.7z M-6.3,34
		l-0.1-0.3l0.3,0.1L-6.3,34z M-6.1,29c0,0.1-0.1,0.5-0.2,1.3C-6.6,29.4-6.7,29-6.7,29c0-0.1,0.1-0.3,0.3-0.7
		C-6.2,28.6-6.1,28.9-6.1,29z M-8.1-6.5c0.3,0.1,0.5,0.3,0.8,0.6l0.6,0.5L-8-4.3l-1.2-1.2L-8.1-6.5z M-6.5-1.6
		c-0.3,0.2-0.5,0.3-0.6,0.3c0,0-0.2-0.1-0.6-0.3l0.4-0.1c0,0,0.1-0.1,0.1-0.1C-7.1-1.8-6.8-1.7-6.5-1.6z M-12.1,5.3
		c0,0,0.1-0.1,0.1-0.1l0.1-0.1c0,0,0.1,0,0.1,0c0,0,0,0,0.1,0c0,0,0.1,0,0.1,0.1l-0.1,0.2L-12.1,5.3z M-11.7,14.2l-0.2,0.1l0.1-0.2
		L-11.7,14.2z M-12.3,22l0.2,0.3l0.2,0.3l-2.3,0.6C-14.2,23.2-13.5,22.8-12.3,22z M-13.7,17.8l0.1-0.2l0.1,0.2H-13.7z M-12.1,3.1
		l0.3-0.1c0-0.1,0.1-0.1,0,0c0,0.1-0.1,0.2-0.2,0.5c0,0-0.1-0.1-0.1-0.1C-12,3.3-12,3.2-12.1,3.1z M-11.3,35.4l0.5,0.3
		c-0.1,0.1-0.2,0.2-0.4,0.4c-0.2,0.2-0.3,0.3-0.5,0.5L-11.3,35.4z M-11.1,34c-0.2-0.5-0.3-0.8-0.3-0.7c0-0.1,0.1-0.2,0.2-0.3
		c0.1-0.1,0.2-0.1,0.3-0.1l0.7,0.6c-0.1,0-0.2,0.1-0.2,0.1c-0.1,0-0.1,0.1-0.2,0.1L-11.1,34z M-11.6,29.7l0.2-0.1v0.2L-11.6,29.7z
		 M-10.5,31.6C-10.4,31.6-10.4,31.5-10.5,31.6c0.1-0.1,0.1-0.2,0.1-0.3l0.4,0.3l-0.1,0.2L-10.5,31.6z M-10.4,27.2
		c-0.1,0.1-0.2,0.3-0.3,0.5l-0.6-1l0.5-0.6l0.7,0.8C-10.2,27-10.3,27.1-10.4,27.2z M-12.8-1.6c1.3,0.5,1.9,0.9,2.1,1
		c0,0-0.2,0.1-0.2,0.1c0.1,0-0.1,0-0.1,0.1v0.1c0,0.1,0.2,0.2,0.1,0.4c0,0,0.1,0,0.1,0c0,0.5-0.1,1.2-0.2,2.1l-1.5-2.5
		c-0.1-0.1-0.5-0.6-1.4-1.5L-12.8-1.6z M-14,16.5c-0.1,0-0.2,0.1-0.2,0.1h-0.1c0-0.1,0-0.2-0.1-0.3l0.2-0.1
		C-14,16.2-14,16.3-14,16.5z M-14.4,10.4l0.3,0.1l-0.3,0.1V10.4z M-15.3,2.5c0,0,0.3,0.2,0.7,0.6c-0.5,0.3-0.8,0.5-0.8,0.5l-0.6-0.7
		C-15.6,2.7-15.4,2.5-15.3,2.5z M-17.1,6.5l0.9,0.7c-0.2,0.4-0.4,0.6-0.5,0.8h0.1c0,0,0.1-0.1,0.1-0.1V8c0,0,0.1,0.1,0.1,0.1
		c-0.1,0-0.2,0.1-0.2,0.1h-0.1V8.2c0,0,0-0.1,0-0.1c0,0,0,0,0,0c0,0.1-0.1,0.1-0.1,0.1c-0.4-0.5-0.6-0.8-0.6-0.9
		C-17.5,7.3-17.4,7-17.1,6.5z M-17.8-4.2c0,0,0.1-0.1,0.1-0.2l0.2,0.2c0,0.1-0.1,0.2-0.1,0.2s0,0.1-0.1,0.1h-0.1
		c-0.1,0-0.2,0-0.2-0.1L-17.8-4.2z M-18.6,30.9c0,0-0.1,0.4-0.4,1c-0.3-0.1-0.5-0.2-0.7-0.3c-0.2-0.1-0.4-0.2-0.5-0.3
		c-0.2-0.1-0.3-0.2-0.5-0.2c0.1-0.2,0.1-0.4,0.2-0.6c0,0-0.1,0.1-0.1,0.1c-0.2,0-0.3,0-0.4,0c0.2,0,0.3-0.2,0.3-0.2
		c0.1,0,0.1-0.1,0.1-0.1c0,0,0,0,0,0c0.1-0.3,0.2-0.6,0.3-0.9c0.2-0.5,0.4-1,0.6-1.5c0.1,0,0.2,0,0.3-0.1c0.1-0.1,0.2-0.2,0.3-0.2
		c0.1-0.1,0.2-0.2,0.4-0.3c0.1,0.1,0.2,0.2,0.2,0.3c0.1,0.1,0.1,0.1,0.2,0.2c0,0.1,0.1,0.2,0.1,0.2c0,0.4-0.1,0.9-0.2,1.3
		C-18.4,29.8-18.5,30.3-18.6,30.9z M-18.3,33.4l-0.3,0.1v-0.3L-18.3,33.4z M-21.2,37.4h-0.1c0-0.1,0-0.1,0-0.1c0,0,0,0,0-0.1v-0.1
		h0.1c0,0,0.1,0,0.2,0.1c0,0,0,0.1-0.1,0.1v0.1c0.1-0.1,0.3-0.3,0.5-0.4c0.1-0.1,0.2-0.1,0.2-0.1s0.3,0.1,0.8,0.4
		c-0.3,0.3-0.5,0.5-0.6,0.5C-20.2,37.7-20.6,37.7-21.2,37.4C-21.2,37.4-21.2,37.4-21.2,37.4C-21.2,37.4-21.2,37.4-21.2,37.4z
		 M-22.7,18.2c0.1,0.4,0.1,0.8,0.2,1.2c0,0-0.1,0.1-0.1,0.2c0,0.1-0.1,0.1-0.1,0.2c-0.1,0.1-0.1,0.1-0.2,0.3
		c-0.1-0.1-0.2-0.2-0.3-0.3c-0.1-0.1-0.2-0.1-0.3-0.2c-0.1-0.1-0.2-0.1-0.2-0.1c-0.2-0.4-0.4-0.9-0.5-1.3c-0.2-0.5-0.3-1-0.5-1.5
		c0.1,0,0.3-0.1,0.4-0.2c0.1-0.1,0.3-0.2,0.5-0.2c0.2-0.1,0.4-0.2,0.6-0.3c0.2,0.6,0.3,0.9,0.3,0.9C-22.8,17.3-22.8,17.8-22.7,18.2z
		 M-22.9,14.7v-0.2l0.2,0.1L-22.9,14.7z M-23.6,24.1c0.2-0.2,0.4-0.3,0.5-0.3l0.1-0.3l0.3-1.6c0,0.1,0,0.2,0,0.3
		c0,0.1-0.1,0.3-0.1,0.5l-0.2,0.8l-0.8,1.7l-0.8-0.5C-24.2,24.5-23.8,24.3-23.6,24.1z M-23.2,30.6l0.3,0.1l-0.3,0.1V30.6z
		 M-22.8,41.1c0.2,0.2,0.3,0.3,0.4,0.3c-0.2,0.3-0.5,0.7-0.9,1.2c-0.4,0.5-1,1.2-1.6,1.9c-0.1-2-0.2-3.1-0.2-3.4
		c0,0,0.4-0.4,1.2-1.1c0.3,0.2,0.5,0.4,0.7,0.6C-23.1,40.9-23,41-22.8,41.1z M-22.9,7.8l0.1-0.1C-22.9,7.6-23,7.3-23.1,7
		c0.2,0,0.3,0,0.3,0c0.1,0,0.2,0,0.2,0h0.2c0.1,0.2,0.1,0.4,0.1,0.7c0,0,0,0.1-0.1,0.1c0.1,0.1,0.2,0.2,0.3,0.3
		c0.2,0.1,0.2,0.1,0.1,0.1C-22.2,8.1-22.4,8-22.9,7.8z M-20.9,33.4c0,0,0.1,0.1,0.3,0.1c0.1,0,0.3,0.1,0.4,0.1
		c0.2,0,0.3,0.1,0.6,0.2c-0.5,0.3-1,0.5-1.3,0.7c-0.3,0.2-0.5,0.3-0.6,0.3c0,0,0-0.1-0.1-0.2c-0.1-0.1-0.2-0.3-0.5-0.6
		C-21.3,33.6-20.9,33.4-20.9,33.4z M-21.5,13.3h-0.2c-0.1-0.1-0.2-0.2-0.1-0.3h0.3V13.3z M-21.1,30.6l-0.4,0.9c0,0-0.1,0-0.2-0.2
		L-21.1,30.6z M-18.7,12c-0.1,0.2-0.2,0.4-0.2,0.6c-0.1,0.2-0.1,0.5-0.2,0.8l-1.4-1c-0.1-0.2-0.2-0.7-0.4-1.4
		c-0.2-0.7-0.5-1.6-0.8-2.7c0.9,0.9,1.6,1.6,2.1,2.1c0.5,0.5,0.9,0.9,1.1,1.1C-18.6,11.7-18.7,11.9-18.7,12z M-19.8,4.9
		c-0.9-0.8-1.3-1.2-1.3-1.2c0-0.3,0.1-1.6,0.2-3.8c0.7,0.9,1.3,1.6,1.8,2.2c0.5,0.6,0.8,1,1,1.4c-0.1,0.1-0.3,0.2-0.5,0.4
		c-0.2,0.1-0.4,0.3-0.5,0.5C-19.2,4.5-19.5,4.7-19.8,4.9z M-18.9-1.4c-0.4,0-0.8,0.1-1,0.1c-0.2,0-0.4,0-0.4,0
		c-0.1,0-0.5,0.1-1.2,0.2c0.3-0.9,0.6-1.5,0.7-1.6c0.3-0.2,0.9-0.1,1.7,0.2C-19.1-2.6-19-2.2-18.9-1.4z M-22.1-8.6l1.6,0.6
		c-0.9,0.3-1.3,0.4-1.4,0.4c-0.1,0-0.3-0.1-0.8-0.4C-22.3-8.4-22.1-8.6-22.1-8.6z M-23.2-1.7c0.1,0,0.2,0.1,0.3,0.1
		c0.1,0,0.2,0.1,0.4,0.1c0.2,0,0.3,0.1,0.4,0.1c0.1,0,0.2,0.1,0.3,0.1l-0.8-0.1c-0.2,0-0.5-0.1-0.7-0.1C-23.2-1.4-23.2-1.5-23.2-1.7
		z M-23.1,6.6C-23.1,6.6-23.1,6.6-23.1,6.6c0.1,0.1,0.2,0.2,0.3,0.2l-0.3,0.2c0-0.2-0.1-0.3-0.1-0.3L-23.1,6.6z M-23.4,13.1
		c0,0,0,0.2,0,0.4l-0.5-0.1l0.3-0.3C-23.4,13-23.4,13-23.4,13.1z M-23.6-5.5l0.1,0.2h-0.2L-23.6-5.5z M-24.6,11.5c0,0-0.1,0-0.2-0.1
		c-0.2-0.2-0.4-0.3-0.5-0.5c0.6-0.2,0.9-0.3,0.9-0.2c0,0,0.2,0.2,0.5,0.5C-24.3,11.4-24.5,11.5-24.6,11.5z M-24.5,5.1L-24.5,5.1
		l0.2-0.1L-24.5,5.1z M-24.5,1.7c0,0,0.1,0.1,0.2,0.1c0,0,0.1,0,0.1,0.1l-0.1,0.3l-0.4-0.3L-24.5,1.7z M-25.4-4.1l0.1,0.1
		c0,0,0.1,0.1,0.1,0.1c0,0.1-0.1,0.2-0.1,0.2c0,0,0,0.1-0.1,0.1h-0.1c-0.1,0-0.2,0-0.2-0.1L-25.4-4.1z M-26.1,16.1
		c0,0-0.1-0.1-0.1-0.1c0,0,0,0,0,0l0,0c0,0.1-0.1,0.2-0.1,0.3c0,0.1-0.1,0.3-0.1,0.5l-0.2-0.1l0.5-0.7c0,0,0,0.1,0,0.1L-26.1,16.1z
		 M-26.8,23.4l0.2,0.8c0,0.2,0.1,0.3,0.1,0.4c0,0.1,0,0.2,0,0.3L-26.8,23.4l-0.1-0.2c-0.1,0-0.2-0.1-0.4-0.3
		c-0.2-0.2-0.5-0.4-0.9-0.6l0.7-0.4L-26.8,23.4z M-27,17.1v-0.2l0.2,0.1L-27,17.1z M-26.6,0.7c0,0.2,0.1,0.3,0.1,0.4
		c0,0.1,0,0.1,0,0.2c0.1,0.2,0,0.3-0.2,0.1l-0.4-0.4L-26.6,0.7z M-28.3,7c0,0,0.3,0.1,0.8,0.4c-0.1,0.1-0.2,0.1-0.3,0.2
		c-0.1,0.1-0.1,0.1-0.2,0.2C-28.1,7.9-28.1,8-28.1,8l-0.6-0.5C-28.5,7.2-28.3,7-28.3,7z M-28.4,5c0.2-0.2,0.4-0.3,0.4-0.3l0.3,0.3
		L-28,5.2c0,0-0.1,0-0.1,0C-28.2,5.1-28.3,5-28.4,5z M-31.4-5.8c0.2,0,0.3-0.1,0.4-0.1l1.7,1.3c-0.2-0.2-0.5-0.4-0.7-0.7
		c0,0,0-0.1,0.1-0.2c0-0.1,0.1-0.2,0.1-0.3c0-0.1,0.1-0.2,0.2-0.4c0.1,0.1,0.2,0.2,0.4,0.4c0.2,0.1,0.4,0.3,0.6,0.5l0.9,0.8
		l-0.7,0.6C-28.6-4-28.8-4.2-29-4.4l0,0c-0.6,0.4-1,0.6-1,0.5c-0.1,0-1-0.6-2.7-1.6C-32.2-5.5-31.8-5.7-31.4-5.8z M-35.6,24
		c0.3,1.3-0.3,2-0.3,2.1V26c0-0.1-0.1-0.2-0.2-0.3c-0.2-0.1-0.3-0.3-0.5-0.4c-0.2-0.1-0.2-0.2-0.4-0.3c-0.8,0.3-1.3,0.5-1.6,0.6
		c-0.6,0.1-1-0.1-1.3-0.7c-0.7-0.9-0.7-1.7-0.1-2.3c0.2-0.2,0.5-0.4,1-0.7c0.2-0.2,0-0.3,0.2-0.4c0.2-0.1,0-0.2,0-0.3v-0.1
		c1,0.1,0.8,0.4,0.8,0.9c0-0.1,0.3-0.1,0.3-0.2c0.4-0.6,0.8-0.8,1.4-0.8c0.4,0.1,0.5,0.4,2.5,0.9v0.1v0.1c0,0,0,0.1,0,0.2v0.1
		C-36,22.3-36,22.8-35.6,24z M-38.8,37.4l-0.6,0.2l0.9-2.8c0,0,0.2,0.2,0.6,0.5c0.4,0.3,0.9,0.7,1.6,1.2L-38.8,37.4z M-37.4,37.3
		l-0.2-0.1l0.1-0.1L-37.4,37.3z M-37.7,38.5l-0.2,0.1l0.1-0.2L-37.7,38.5z M-42.9,31.7c0-0.1-0.1-0.2-0.1-0.4l0.2,0.3l0.3,0.3
		l-0.2,0.2C-42.8,32-42.9,31.8-42.9,31.7z M-42.9,41.5c0,0-0.1,0.1-0.1,0.1v0.1l-0.3-0.1l0.1-0.1v-0.1h0.1
		C-43,41.4-42.9,41.4-42.9,41.5z M-43.1,17.5c0.2,0.1,0.3,0.2,0.4,0.2l-0.2,0.2H-43c0,0-0.1,0-0.1-0.1V17.5z M-43.2,2.7l0.3,0.1
		L-43.1,3L-43.2,2.7z M-42.7,21.9L-42.7,21.9c0,0.1-0.1,0.2-0.2,0.2l0.2-0.4L-42.7,21.9z M-42.6,10.6c-0.2-0.2-0.2-0.3-0.2-0.4
		c0,0,0.1,0,0.1-0.1c0.1-0.1,0.2-0.2,0.3-0.2c0,0.1,0.1,0.2,0.2,0.3c0,0,0.1,0.1,0.1,0.1L-42.6,10.6z M-42.1,14.5l0.6,0.7l-0.4-0.3
		l-0.4-0.2L-42.1,14.5z M-41,27.7c0,0.5,0,0.9,0,1.2c0,0.3,0,0.4,0,0.5l-0.6,0.9c-0.1-0.7-0.2-1-0.2-1L-41,27.7z M-39.5,10.9
		c1-0.2,1.5-0.3,1.4-0.3c0,0,0.1,0,0.3,0c0.2,0,0.4,0.1,0.7,0.1c0.1,0.1,0.4,0.2,1,0.2c-0.2,0-0.4,0.1-0.5,0.1c-0.1,0-0.2,0-0.2,0
		c-0.1,0-0.4,0-0.9,0C-38.1,11-38.7,10.9-39.5,10.9z M-39,16.9c0,0,0,0.2,0,0.5c0,0.3,0.2,0.7,0.1,1.3l-0.8-1.6c0,0-0.1-0.4,0.1-1.2
		L-39,16.9z M-39.8,11.3l-0.1-0.1l0.2-0.1L-39.8,11.3z M-40.5,15.3C-40.5,15.3-40.5,15.3-40.5,15.3L-40.5,15.3
		C-40.5,15.2-40.5,15.3-40.5,15.3L-40.5,15.3L-40.5,15.3C-40.5,15.3-40.5,15.3-40.5,15.3c-0.1,0.1-0.3,0.3-0.6,0.7l-0.1-0.5
		L-40.5,15.3z M-41,14.7c0-0.1,0.1-0.3,0.1-0.4c0-0.1,0.1-0.3,0.2-0.5l0.3,0.2l-0.3,0.3L-41,14.7z M-40.6,18.9l0.6,1
		c0,0-0.1,0.1-0.2,0.2c-0.2,0.1-0.3,0.2-0.4,0.1l-0.8-0.7c-0.1,0-0.1,0,0,0l0,0c0,0,0,0,0.1-0.1C-41.2,19.4-40.9,19.2-40.6,18.9z
		 M-40.6,25.2L-40.6,25.2l-0.1,0.2l-0.2-0.4C-40.7,25-40.6,25.1-40.6,25.2z M-40.7,29.9c-0.1,0-0.2,0.1-0.4,0.2v-0.3
		c0,0,0.1-0.1,0.1-0.1h0.1L-40.7,29.9z M-39.9,34.6c0.4,0,0.7,0,0.8,0c0,0,0.1,0,0.2,0c0.1,0,0.2,0.1,0.4,0.1
		c-0.5,0-0.8,0.1-0.9,0.2c-0.3,0-0.5,0.1-0.6,0.1c-0.1,0-0.2,0-0.3,0c0,0-0.4-0.1-1.3-0.3C-40.9,34.7-40.4,34.7-39.9,34.6z
		 M-38.6,29.6c0,0-0.4-0.2,0.6-0.4v2.3l1.2-0.2l-0.3,0.1c-0.1,0-0.2,0.1-0.4,0.1c-0.1,0.1-0.2,0.2-0.4,0.2c-0.2,0.1-0.4,0.2-0.7,0.3
		c-0.1,0-0.1,0-0.2,0.1c0.2,0.2,0.3,0.4,0.4,0.4c0,0,0,0.1,0,0.1l0.1,0.1h-0.1c0.1,0-0.8-0.1-0.8-0.2v0c0,0,0.4,0,0.4,0l-0.6-0.2
		l0.1-0.1c-0.1,0-0.1,0.1-0.1,0.1c-0.2,0.1-0.5,0.1-0.7,0.2C-39.1,30.8-38.7,29.8-38.6,29.6z M-39.2,27.8l0.9-0.8c0,0,0.2,0,0.4,0.1
		c0.2,0.1,0.3,0.2,0.3,0.3l-0.6,1.1c-0.4-0.3-0.6-0.5-0.8-0.7C-39.2,27.8-39.2,27.8-39.2,27.8L-39.2,27.8
		C-39.3,27.8-39.3,27.8-39.2,27.8z M-39.4,32.6l-0.6,0.8l-0.3-0.2l0.5-0.3L-39.4,32.6z M-35.5,20.4l0.3-0.2l0.3-0.2
		c0,0.1,0,0.1,0.1,0.2c0,0,0.1,0.1,0.1,0.2C-35.1,20.4-35.4,20.4-35.5,20.4z M-35,14.5V17c-1-0.2-0.9-0.4-0.9-0.4
		c-0.1-0.2-0.5-0.9-1.1-2.2l-0.8,1.3c0,0-0.1,0-0.2,0.1L-37,14c-0.1-0.2-0.2-0.4-0.3-0.7c0.2,0,0.4,0.4,0.6,0.4l0.2-0.1h0.1
		c0,0,0.1-0.2,0.2-0.2c0.1,0,0.1-0.1,0.2-0.1l-0.3,0.4c0.1,0.1,0.3,0.1,0.4,0.2c0.3,0.1,0.6,0.2,0.8,0.3c0.2,0.1,0.4,0.1,0.5,0.2
		c0.2,0,0.4,0,0.5,0.1l0.3,0.1L-35,14.5z M-35.3,10.3c-0.4,0.3-0.6,0.5-0.7,0.5l-1-3.2l0.6,0.2l2.8,1C-34.3,9.6-34.9,10-35.3,10.3z
		 M-35.4,6.6l0.3,0.1l-0.2,0.2L-35.4,6.6z M-34.1,6.4c0-0.1,0.4-0.7,1.2-1.7l0.6,1.3c-0.1,0.1-0.2,0.3-0.3,0.5
		c-0.2,0.2-0.4,0.5-0.6,0.9C-33.8,6.8-34.1,6.4-34.1,6.4z M-32.2-0.4l0.5-1.2c0.1,0.1,0.3,0.2,0.3,0.3c0.1,0.1,0.2,0.2,0.3,0.3
		c0.1,0.1,0.2,0.1,0.2,0.1c0,0.1-0.3,0.5-0.8,1.3c-0.1-0.1-0.2-0.3-0.2-0.3c0-0.1-0.1-0.2-0.1-0.3C-32.1-0.2-32.2-0.3-32.2-0.4z
		 M-30.8,10.3l1.4,2.5c0,0-0.1,0.3-0.5,0.8l-1.7-2.7L-30.8,10.3z M-30.5,8c0.1-0.1,0.1-0.1,0.1,0l0.1,0.1l-0.2,0.1
		c0-0.1,0-0.1,0-0.1C-30.5,8-30.5,8-30.5,8z M-29.9,2.8L-30,3l-0.2-0.2l0.4-0.4l0.1,0.3L-29.9,2.8z M-29.6,4.5l0.1,0.2h-0.2
		L-29.6,4.5z M-29.5,6l0.1-0.1l0,0.1L-29.5,6z M-32.5,3.6l0.2,0.2L-32.5,4l-0.1,0.2L-32.9,4L-32.5,3.6z M-34.7-5.4l1,1.3l-0.4,0.5
		c-0.1,0.1-0.2,0.2-0.2,0.3c0,0.1-0.1,0.2-0.1,0.2c-0.4-0.9-0.6-1.4-0.6-1.4C-35.1-4.7-35-5-34.7-5.4z M-36.7,1.4
		c0.2-0.5,0-1.8-0.4-3.8l3,3.6c-1.5,2-2.2,3.1-2.3,3.4c-0.2,0.2-0.4,1.3-0.5,3.1c-0.9-0.5-1.6-0.9-2.2-1.3c-0.3-0.2-0.5-0.3-0.6-0.4
		c-0.3,0.2-0.6,0.3-0.7,0.4c-0.2,0.1-0.3,0.2-0.4,0.2l-0.5-0.1c0,0,0,0.1,0.1,0.1c0.1,0.1,0.1,0.2,0.2,0.3c0,0.1,0.1,0.1,0.1,0.1
		c0,0-0.3,0.5-1,1.2c-0.3-0.7-0.4-1-0.3-1c0-0.1,0.2-0.3,0.6-0.7l-0.3,0l1.7-0.8l0.1,0c-0.1-0.1-0.1-0.4,0-0.8
		c0.1-0.5,0.2-0.8,0.4-1C-38,2.7-37,1.9-36.7,1.4z M-38.7-0.1l-0.2,0.2L-39-0.1L-38.7-0.1z M-39.9-6.8c0.1,0,0.2,0,0.4,0.1v0.2
		c-0.1,0.1-0.1,0.1-0.1,0.2c-0.1,0-0.2,0-0.4-0.1L-39.9-6.8z M-41.3-4c0-0.3,0.3-0.8,0.8-1.3c0,0,0.1,0,0.3,0.1
		c0.1,0.1,0.2,0.2,0.3,0.2c0.1,0.1,0.3,0.2,0.4,0.3l-0.6,0.8c-0.1,0.2-0.2,0.3-0.3,0.4c0,0-0.1,0.1-0.1,0.1c0.1,0,0.1-0.1,0.2-0.1
		c0.1,0.2,0.2,0.4,0.2,0.5C-40-2.9-40-2.8-40-2.8c0,0.1-0.2,0.2-0.6,0.4C-40.9-2.8-41-3-40.9-3c0,0,0.1-0.1,0.3-0.2
		C-41.2-3.7-41.4-4-41.3-4z M-40.7-1.9l0.5,1l0.6,1l-1.1,1.9c-0.6-1.1-1-1.6-1-1.7L-40.7-1.9z M-42.5-0.8l0.5,0.7l-0.6,0.8
		c-0.1,0-0.2-0.2-0.4-0.3L-43.3,0L-42.5-0.8z M-44.1,15c0,0,0.1,0.1,0.1,0.1c0,0,0,0.1,0.1,0.2c0.1,0.2,0.1,0.3,0.1,0.3
		c-0.1-0.1-0.2-0.2-0.3-0.3c-0.1-0.1-0.2-0.2-0.3-0.3L-44.1,15z M-44.8,7.1L-44.8,7.1c0,0.1,0,0.1,0.1,0.2c0,0-0.1,0.1-0.1,0.1h-0.1
		V7.3L-45,7.2L-44.8,7.1z M-43.7,17.8c0.2,0,0.5,0.3,0.9,0.8c0,0,0,0.2-0.1,0.3c-0.2,0.2-0.3,0.3-0.3,0.3l-1.7-1
		C-44.2,17.9-43.8,17.8-43.7,17.8z M-43.2,27.6c-0.1,0-0.2,0-0.2,0.1h-0.1c0,0-0.1-0.1-0.1-0.3c0,0,0.1-0.1,0.2-0.1h0.1
		c0,0,0.1,0,0.1,0.1S-43.3,27.5-43.2,27.6z M-44,32.6l-0.2,0.1c-0.1-0.1-0.2-0.2-0.2-0.3h0.3c0,0,0,0.1,0,0.1
		C-44.1,32.5-44.1,32.5-44,32.6L-44,32.6z M-45.4,28.6c0,0-0.4-0.1-1.2-0.4l1.5-0.9c0,0,0.1,0.1,0.3,0.2c0.1,0.2,0.2,0.3,0.1,0.3
		C-45,28.3-45.2,28.5-45.4,28.6z M-44.7,42l-0.2,0.1l0.1-0.2L-44.7,42z M-45.5,30.4c0,0,0,0.1-0.1,0.3c0,0.1-0.1,0.1-0.1,0.2
		c0,0,0,0.1-0.1,0.1l-0.2-0.1c0.1-0.1,0.2-0.2,0.2-0.2C-45.7,30.6-45.6,30.5-45.5,30.4z M-46.1,15.4c0-0.1,0.1-0.2,0.2-0.3l0.2,0.1
		l-0.1,0.1c0,0,0,0.1,0,0.1c0,0,0,0,0,0.1H-46.1z M-45.4,19.9c0-0.1,0-0.2,0.1-0.2h0.1c0,0,0.1,0.1,0.2,0.1c0,0.1-0.1,0.1-0.1,0.2
		c0,0,0,0.1-0.1,0.1h-0.1C-45.3,20-45.3,20-45.4,19.9z M-48.2-8.4C-48.2-8.3-48.1-8.3-48.2-8.4c0.1,0.1,0.2,0.2,0.3,0.2l-0.3,0.2
		c0-0.2-0.1-0.3-0.1-0.3L-48.2-8.4z M-52.7-8.3l0.9,0.7c-0.4,0.6-0.6,0.9-0.6,1C-52.8-7.1-53-7.4-53-7.5C-53-7.5-52.9-7.8-52.7-8.3z
		 M-53.9-7.6c0.4,0.2,0.5,0.3,0.5,0.4c0,0.1,0,0.1-0.1,0.2c0,0.1-0.1,0.3-0.2,0.5C-54-6.8-54.2-7-54.2-7C-54.3-7-54.2-7.2-53.9-7.6z
		 M-53.5-5.3c-0.1,0-0.2,0.1-0.2,0.1l-0.1-0.2c0,0,0.1-0.1,0.1-0.1h0.1C-53.6-5.6-53.6-5.5-53.5-5.3z M-54.4-9.1l0,0.1L-54.6-9
		L-54.4-9.1z M-53.4,0.7l-0.3,0.8c-1-0.7-1.4-1.1-1.4-1L-53.4,0.7z M-53.4,12.6L-53.4,12.6c-0.1,0.1-0.1,0.1-0.1,0.2
		c0,0-0.1,0.1-0.1,0.2l-0.1-0.1c0-0.1-0.2-0.2-0.3-0.4l0.5-0.2L-53.4,12.6z M-54.4,16.1l-0.2,0.2l-0.3-0.2l0.2-0.2c0,0,0.1,0,0.1,0
		c0.1,0,0.2,0,0.3,0.1L-54.4,16.1z M-54.4,22.8c0,0-0.1-0.1-0.1-0.1l-0.1-0.1C-54.5,22.7-54.5,22.7-54.4,22.8
		C-54.4,22.7-54.4,22.8-54.4,22.8z M-55,18.7l0.3,0.3l-0.2,0.2l-0.3-0.3L-55,18.7z M-55.3,0.5L-55.3,0.5l-0.1,0.1L-55.3,0.5z
		 M-55.5-2.9v0.2l-0.2-0.1L-55.5-2.9z M-56.2,37.3l-0.1-0.1l-0.6,0.1v-0.1c0-0.7-0.2-1.5-0.5-2.5C-55.7,34.9-55,35.7-56.2,37.3z
		 M-57.1,34.7c-0.2,0-0.2-0.1-0.2-0.1l-1.2-2.2c0.5,0.1,0.9,0.2,1.3,0.2c0.3,0.1,0.7,0.1,0.9,0.2L-57.1,34.7z M-58.2,21.5
		c0.2,0.1,0.3,0.1,0.3,0.2c0.1,0.1,0.1,0.1,0.1,0.1l-0.5,0.5c0,0-0.1,0-0.2-0.1c0,0-0.1-0.1-0.1-0.1l-0.1-0.1L-58.2,21.5z
		 M-58.6,17.6c0.5-0.2,0.8-0.3,0.8-0.2c0,0,0.2,0.2,0.4,0.6l-0.9,0.3c0,0,0-0.1-0.1-0.2L-58.6,17.6z M-58.4,28.8
		C-58.3,28.7-58.3,28.7-58.4,28.8c0,0,0,0.2-0.1,0.3c0,0-0.1-0.1-0.1-0.1s0-0.1-0.1-0.2L-58.4,28.8z M-56.8,19.5l-0.1,0.3l-0.2-0.2
		L-56.8,19.5z M-57.3,7.6L-57.3,7.6c0.1,0.1,0.1,0.1,0.2,0.1c0,0-0.1,0-0.1,0c0,0,0,0-0.1,0l-0.1,0.1l-0.1-0.1L-57.3,7.6z
		 M-58.4,2.9l0.3,0.2c-0.1,0.1-0.1,0.1-0.2,0.1c0,0-0.1,0.1-0.1,0.1l-0.1-0.1C-58.4,3.2-58.4,3.1-58.4,2.9z M-58.4,11.8
		c0.2,0.1,0.6,0.3,1,0.8l-0.1,0.1c0,0,0,0-0.1,0.2c-0.1,0.2-0.2,0.2-0.2,0.2c-0.2,0-0.9-0.1-2.1-0.4C-58.9,12.1-58.4,11.8-58.4,11.8
		z M-62.6,42.6l1.4,2.5c0,0-0.1,0.3-0.5,0.8l-1.7-2.7L-62.6,42.6z M-63.6,5c0.1,0,0.1-0.1,0.2-0.2c0,0,0.1,0,0.1,0l0.3,0.2l-0.3,0.3
		C-63.2,5.3-63.4,5.2-63.6,5z M-62.8,9l0.3-0.2l0.1,0.2c0,0-0.1,0-0.2,0.1l-0.1,0.1L-62.8,9z M-61.6,39.8l-1-1c0.7-0.2,1-0.3,1-0.2
		c0.4,0.3,0.7,0.6,0.9,1c0,0,0,0.1-0.1,0.2c0,0.1-0.1,0.2-0.1,0.2c0,0.1,0,0.2-0.1,0.3L-61.6,39.8z M-61.5,35.8l-1.2-1.2
		c1.4-0.3,2.1-0.5,2.2-0.5c0.1,0,0.4,0.3,0.9,0.9L-61.5,35.8z M-60.2,30.9L-60.2,30.9c0-0.1,0-0.1,0-0.1c0,0,0,0,0-0.1l0.3,0.2
		l-0.1,0.1L-60,31L-60.2,30.9z M-60-1.4l0.3-0.2l0,0.2c0,0,0,0.1,0,0.1c0,0-0.1,0-0.1,0c0,0,0,0-0.1,0L-60-1.4
		C-59.9-1.4-59.9-1.4-60-1.4z M-59.6,6.8l0.1-0.2l0.2,0.1L-59.6,6.8z M-59.3,4.8l0.1,0.1h0.1c0,0-0.1,0.1-0.1,0.1
		c0,0-0.1,0.1-0.2,0.1L-59.3,4.8C-59.3,4.8-59.3,4.8-59.3,4.8z M-59.9-4.1c0,0,0.2,0.2,0.5,0.5c-0.5,0.2-0.7,0.3-0.8,0.3
		s-0.1,0-0.2-0.1c-0.2-0.2-0.4-0.3-0.5-0.5C-60.2-4.1-59.9-4.1-59.9-4.1z M-60.7,9.8l-0.2,0.2L-61,9.8L-60.7,9.8z M-61.6,0.1
		C-61.6,0.1-61.6,0.1-61.6,0.1c0-0.1,0-0.1,0.1-0.1c0,0,0,0.1,0,0.1l0.1,0c0,0-0.1,0-0.1,0C-61.5,0.1-61.5,0.2-61.6,0.1
		C-61.6,0.2-61.6,0.1-61.6,0.1z M-61.7,6.9c0.1,0,0.2,0.1,0.3,0.3l0.3,0.2l-0.4,0.4l-0.2-0.1l-0.2-0.1C-61.9,7.6-61.8,7.3-61.7,6.9z
		 M-61.9,9.1c0.1,0.1,0.2,0.3,0.3,0.4c-0.2,0.2-0.4,0.3-0.6,0.4l-0.5-0.7C-62.3,9.1-62,9-62,9C-62,9-61.9,9.1-61.9,9.1z M-63.2-8.6
		l1.2,1.3c0,0.1-0.2,0.4-0.5,1.2l-1.3-1.6L-63.2-8.6z M-65.8-6.2c0.3-1.1,0.9-1.3,1.7-0.6c0.1,0.3,0.2,0.5,0.2,0.7
		c0.1,0.1,0.3,0.3,0.4,0.5L-65.1-5l-1-1c0.1,0,0.1,0,0.2-0.1C-65.9-6.1-65.9-6.2-65.8-6.2z M-65.4,6.6l1.2,1.8c0,0-0.2,0.3-0.6,0.7
		l-1-2.1c0,0,0-0.1,0.1-0.1C-65.7,6.9-65.6,6.8-65.4,6.6z M-65.7,2c0,0,0-0.1,0-0.1c0,0,0-0.1,0-0.1l0.2,0.1L-65.5,2
		C-65.5,2.1-65.6,2.1-65.7,2z M-64.9,5.3h0.2l-0.1,0.2L-64.9,5.3z M-64.7,4l0.2-0.1l0,0.1L-64.7,4z M-64.3-2.4
		c-0.2-0.4-0.3-0.7-0.3-0.7c0-0.1,0.2-0.3,0.5-0.7c0,0.1,0.2,0.4,0.5,0.9L-64.3-2.4z M-66.2,7C-66.2,7-66.2,7-66.2,7l-0.3,0.3
		c0,0,0-0.1,0-0.1c0,0,0-0.1,0-0.1l0.3-0.3C-66.2,6.9-66.2,6.9-66.2,7z M-66.5,1.4C-66.4,1.4-66.4,1.4-66.5,1.4L-66.5,1.4
		c0,0.2,0,0.3,0,0.3l-0.1-0.3C-66.6,1.4-66.5,1.4-66.5,1.4z M-68,10.6C-68,10.6-68,10.6-68,10.6c0,0-0.1-0.1-0.1-0.2
		c-0.1-0.2-0.4-0.5-0.8-0.9c0.7-0.2,1.2-0.4,1.3-0.4c0.1,0,0.2,0.1,0.3,0.3c0.1,0.2,0.1,0.3,0.1,0.4C-67.2,9.9-67.5,10.2-68,10.6
		C-68,10.7-68,10.7-68,10.6z M-69.2,9.6C-69.2,9.6-69.2,9.6-69.2,9.6l-0.4-0.1c0.2-0.1,0.4-0.2,0.4-0.2c0.1,0,0.2,0.1,0.4,0.2
		C-69,9.6-69.1,9.6-69.2,9.6z M-67.8,3.3c0,0,0.1,0.1,0.1,0.2c0.2,0.2,0.3,0.4,0.3,0.5L-68,5.3c-0.2-0.3-0.4-0.6-0.6-0.8l-0.1,0.1
		l-0.6,0.5c0.1-0.5,0.1-1,0.2-1.4c0-0.1-0.1-0.1-0.1-0.1c0,0,0-0.1,0.1-0.2c0.2-1.2,0.4-1.9,0.5-2.1l2-0.6
		C-67.2,1.8-67.6,2.7-67.8,3.3z M-69.2-3.6h0.2c0.1,0,0.2,0.1,0.2,0.1c0,0.2,0,0.3,0,0.4c0.1,0,0.1,0,0.1,0c0,0,0,0,0,0v0
		c0,0.1,0,0.2,0,0.2l-0.1-0.3c0,0.1,0,0.1-0.1,0.2H-69c-0.1,0-0.1,0-0.2,0c-0.1,0-0.2,0-0.3,0C-69.3-3.3-69.2-3.6-69.2-3.6z
		 M-70.9-6.7c0.1-0.1,0.1-0.1,0.2-0.1s0.2,0.1,0.6,0.3c-0.3,0.3-0.4,0.4-0.4,0.4c0,0-0.3,0-0.8-0.2C-71.2-6.4-71.1-6.5-70.9-6.7z
		 M-71.6-1.6c0.2,0.5,0.2,1,0.4,1.4c0.1-0.4,0.2-0.7,0.2-1v0l0.4,0.1l-0.1-0.1c0.8,1.1,0.9,1.8,0,2c0.1,0.1,0.1,0.3,0.2,0.4
		C-72.5,1.1-72.8,0.2-71.6-1.6z M-71.7,1.1c0,0,0.1-0.1,0.2-0.1l0.7,1.6c-0.2,0-0.5,0.1-0.8,0.1C-71.9,2.9-72.2,3-72.7,3L-71.7,1.1z
		 M-72.7,5.9c0,0,0-0.1,0-0.1c0.1,0.2,0.1,0.3,0.1,0.3c0,0,0,0,0,0l-0.2-0.1C-72.7,6-72.7,6-72.7,5.9z M-74.3,1.5
		c-0.1,0-0.7-0.1-1.9-0.4l1-1l1.6,0.6C-74,1.2-74.2,1.5-74.3,1.5z M-73.8,4.3l-0.3,0.1c0,0,0-0.1,0-0.1c0,0,0,0,0-0.1V4.3l0.2-0.1
		L-73.8,4.3L-73.8,4.3z M-75.2,9c-0.1,0-0.1,0.1-0.3,0.2c-0.1,0.1-0.2,0.2-0.4,0.3c-0.1,0.1-0.3,0.2-0.5,0.4
		c-0.1-0.4-0.1-0.7-0.1-0.9c0-0.2,0-0.3,0-0.4c0.1-0.5,0.4-0.7,0.7-0.4C-75.7,8.3-75.5,8.6-75.2,9z M-75.4-8.6
		c0.3,0.4,0.4,0.7,0.4,0.7l-1.2,2.1l-0.6-0.5L-75.4-8.6z M-77,5.8h0.3c0,0.2,0,0.4-0.1,0.6L-77,6.3V5.8z M-78.5,19.9
		c2.1,1.6,3.2,2.4,3.2,2.5c0.1,0.1,0,1.3-0.3,3.6c-0.2,0-0.4,0-0.6,0.1l-0.6,0.2l-1.3-2.7C-78.2,23.4-78.3,22.2-78.5,19.9z
		 M-77.4,30.4c0-0.1,0-0.2,0-0.2s0-0.1-0.1-0.2c0.1,0,0.1,0,0.2-0.1c0.1-0.1,0.2-0.2,0.4-0.3l0.3,0.7l-0.7,0.4
		C-77.4,30.6-77.4,30.5-77.4,30.4z M-77,46.5c0.3-1.1,0.9-1.3,1.7-0.6c0.5,1,0.3,1.4-0.8,1.2C-76.8,47-77.1,46.8-77,46.5z
		 M-75.5,50.3c-0.2-0.4-0.3-0.7-0.3-0.7c0-0.1,0.2-0.3,0.5-0.7c0,0.1,0.2,0.4,0.5,0.9L-75.5,50.3z M-73.7,46.6L-75,45l0.6-0.8
		l1.2,1.3C-73.2,45.5-73.4,45.9-73.7,46.6z M-74.8,30l0.4-0.4l0.3,0.2l-0.4,0.5L-74.8,30z M-73.6,17.7c0,0.1-0.4-0.2-1.3-0.9
		c1-0.5,1.6-0.8,1.6-0.8s0.4,0.3,0.9,0.8C-73,17.4-73.4,17.7-73.6,17.7z M-71.4,10.3l-0.5-0.4c-0.2-0.2-0.2-0.3,0.1-0.3h0.6
		L-71.4,10.3z M-70.8,51.4C-70.8,51.4-70.9,51.4-70.8,51.4c-0.1,0-0.1,0-0.2,0l0,0c0,0-0.1,0-0.1-0.1l0.3-0.2V51.4
		C-70.8,51.3-70.8,51.4-70.8,51.4z M-70.4,1.3v0.1l-0.2,0.2L-70.4,1.3z M-69.5,5.7l0.4,0.2c0.1,0.1,0.3,0.1,0.4,0.2
		c0.1,0.1,0.3,0.2,0.5,0.3c-0.8,0.7-1.2,1.1-1.3,1.1c-0.1,0-0.4-0.2-1-0.6L-69.5,5.7z M-68.2,33.7c0,0.1,0,0.1-0.1,0.3
		c-0.2-0.1-0.4-0.1-0.4-0.2v-0.1c0-0.1,0-0.1,0-0.1c0,0,0-0.1,0-0.1c0.1,0,0.2,0,0.2,0c0,0,0,0,0.1,0S-68.2,33.6-68.2,33.7
		L-68.2,33.7z M-68,32.7c-0.3-0.4-0.6-0.8-0.8-1c-0.2-0.3-0.4-0.5-0.5-0.7c-0.2-0.2-0.3-0.4-0.4-0.5c0-0.2,0.1-0.5,0.4-0.8
		c0.2-0.2,0.4-0.4,0.5-0.4c0.8,0.2,1.3,0.7,1.4,1.3C-67.4,30.7-67.6,31.4-68,32.7z M-68.5,15.5c0-0.1,0.2-0.6,0.5-1.5
		c-0.1-0.1,0.2,0.3,0.7,0.9c0.5,0.7,1.3,1.7,2.3,3.1l-1,1.9L-68.5,15.5z M-64.9,47.5l-0.1-0.2c0,0,0.1-0.1,0.1-0.1h0.1
		c0,0,0.1,0.1,0.1,0.2C-64.8,47.5-64.8,47.5-64.9,47.5z M-64.8,46.1c-0.4-0.2-0.5-0.3-0.5-0.4c-0.1,0,0-0.2,0.2-0.6
		c0.4,0.2,0.5,0.3,0.5,0.4c0,0.1,0,0.1-0.1,0.2C-64.6,45.8-64.7,45.9-64.8,46.1z M-64.2,48.9c-0.1,0.1-0.2,0.1-0.3,0.1l-0.1-0.3
		c0.1-0.1,0.2-0.1,0.3-0.1c0,0.1,0,0.1,0.1,0.2V48.9z M-64.2,15.3l-0.1-0.1l0.2-0.1L-64.2,15.3z M-63.4,2c0,0,0.1,0,0.2,0.1
		c0.1,0.1,0.1,0.1,0.2,0.2c0.1,0.1,0.2,0.1,0.3,0.2C-63.2,2.8-63.5,3-63.5,3s-0.2-0.1-0.5-0.4L-63.4,2z M-59.8,48
		c-0.2,0.1-0.5,0.2-1.1,0.3c0.1,0.1,0.2,0.1,0.2,0.2c0.1,0.1,0.2,0.2,0.3,0.3c0.1,0.1,0.2,0.2,0.2,0.2c-0.3,0.4-0.5,0.6-0.5,0.6
		c-0.3,0.3-0.5,0.2-0.6-0.3c0-0.1,0-0.2,0-0.3c0-0.1,0-0.3,0.1-0.5c-0.6,0.2-1.5,0.4-2.6,0.6l0,0.3c0.2,0,0.2,0.3,0,0.3h0l-0.3-0.5
		v0.5h0.3l0-0.3c0,0-0.1-0.1-0.1-0.1c0,0,0.1-0.1,0.1-0.1c0.6-1.8,1.7-2.6,3.2-2.5c0,0,0.2,0,0.4,0.1c0.2,0.1,0.6,0.1,1,0.2
		C-59.5,47.6-59.7,48-59.8,48z M-58.9,42.5c0,0-0.4-0.3-1-0.8l0.8-1.1l0.7-0.9l0.6,1.7C-57.9,41.7-58.3,42.1-58.9,42.5z M-57.2,48.4
		c-0.3,0-0.3-0.1-0.1-0.2l0.5-0.4l0.2,0.6H-57.2z M-56.3,43.8c0,0-0.1,0-0.2-0.1c-0.2-0.2-0.4-0.3-0.5-0.5c0.6-0.2,0.9-0.3,0.9-0.2
		c0,0,0.2,0.2,0.5,0.5C-56,43.7-56.3,43.8-56.3,43.8z M-55.1,45.8l-0.5-0.1l0.3-0.3c0.1-0.1,0.2-0.1,0.2,0.1
		C-55.1,45.4-55.1,45.6-55.1,45.8z M-54.6,24.8c0,0,0.1-0.1,0.1-0.1c0.1,0,0.3,0.1,0.5,0.2c-0.3,0.2-0.4,0.2-0.5,0.2
		c0,0-0.2-0.1-0.5-0.2L-54.6,24.8z M-54.5,40.1c0-0.1-0.2-0.4-0.3-0.9c0.2,0,0.3,0,0.3,0c0.1,0,0.2,0,0.2,0h0.2
		c0.1,0.2,0.1,0.4,0.1,0.7c0,0-0.1,0.1-0.2,0.1H-54.5z M-54.4,46.8l-0.2,0.1v-0.2L-54.4,46.8z M-53.3,48.5c-0.1,0.2-0.1,0.2-0.2,0.2
		c-0.2,0-0.5-0.1-1.2-0.3c0.3-0.4,0.5-0.6,0.7-0.8c0.1-0.1,0.1-0.1,0.1-0.1c0,0,0,0,0,0c0,0,0,0,0,0c0.5,0.4,0.7,0.6,0.7,0.7
		C-53.2,48.3-53.2,48.4-53.3,48.5z M-52.8,31.9c-0.2,0.3-0.4,0.6-0.8,1c-0.7-0.8-1.1-1.2-1-1.2c0-0.2,0.5-0.8,1.4-2l0.8,1.6
		C-52.5,31.4-52.6,31.6-52.8,31.9z M-50.3,2.1l-1.2-0.4c-0.1-0.2-0.3-1-0.5-2.4l0.4,0.3l0.4,0.3C-51.3-0.1-51,0.6-50.3,2.1z
		 M-49.3,8.3c-0.1,0.3-0.2,0.6-0.3,0.9c-0.1,0.3-0.3,0.7-0.4,1.1C-50.9,9-50.7,8.3-49.3,8.3z M-49.4,7.9l0.2,0.2v0.1L-49.4,7.9z
		 M-49.7,16.7l-0.9,0.8l0.1-0.6c0-0.2,0.1-0.3,0.1-0.3c0-0.1,0-0.2,0.1-0.2L-49.7,16.7z M-50.7,7.2C-50.9,7-51,6.8-51,6.8l-0.1-0.1
		c0-0.1,0-0.2,0.1-0.5c0-0.2,0.1-0.5,0.2-0.9l0.6,0.7L-50.7,7.2z M-51.5-2.3l-0.5,0.2l-0.3-1c0.2,0.2,0.4,0.4,0.5,0.5
		C-51.6-2.5-51.5-2.4-51.5-2.3z M-51.7-3.6l0.1-0.2l0.1,0.2H-51.7z M-52.2,18.1c0.4-0.1,1-0.2,1.6-0.4c0,0,0.3,0.6,0.9,1.8
		c-0.6-0.1-1.1-0.2-1.3-0.3l-2.1-0.9C-53,18.2-52.6,18.2-52.2,18.1z M-53.3,6.2V5.9l0.2,0.2L-53.3,6.2z M-51,21.9
		c0.3-0.2,0.5-0.4,0.8-0.6l1.3,1.6c-0.7,0.4-1,0.6-1.1,0.5c-0.1,0-0.7-0.2-1.9-0.7C-51.6,22.4-51.3,22.1-51,21.9z M-51.3,34.2
		C-51.3,34.2-51.3,34.3-51.3,34.2c-0.1,0.1-0.2,0.1-0.2,0.1l0.2-0.4C-51.3,34-51.3,34-51.3,34.2L-51.3,34.2z M-50.1,28.2
		c-0.2-0.2-0.3-0.3-0.5-0.3c-0.1,0-0.1-0.1-0.1-0.1l1.2-2.4c0.5,0.5,0.8,0.8,0.8,0.8L-50.1,28.2z M-48.6,19.6L-48.6,19.6
		c0,0.1,0,0.2,0,0.1v0.1l-0.1,0.1l-0.1,0.1l-0.4-0.2l-0.4-0.3c0.2,0,0.4,0.1,0.5,0.1C-48.8,19.6-48.6,19.6-48.6,19.6L-48.6,19.6z
		 M-49.3,5.9C-49.4,5.9-49.7,6-50.2,6c0.1-0.1,0.2-0.3,0.3-0.3c0.1-0.1,0.1-0.2,0.1-0.2c0,0,0.1-0.1,0.3-0.3
		c0.1-0.2,0.4-0.4,0.6-0.7l0.4,0.3C-48.9,5.3-49.1,5.7-49.3,5.9z M-48.6-4.8c-0.2,0.1-0.5,0.2-1.1,0.3c0.1,0.1,0.2,0.1,0.2,0.2
		c0.1,0.1,0.2,0.2,0.3,0.3c0.1,0.1,0.2,0.2,0.2,0.2c-0.3,0.4-0.5,0.6-0.5,0.6C-49.8-3-50-3.1-50.1-3.5c0-0.1,0-0.2,0-0.3
		c0-0.1,0-0.3,0.1-0.5c-0.6,0.1-1.3,0.3-2.2,0.5c0,0.2-0.1,0.4-0.2,0.6c-1,0.8-1.6,0.6-2-0.7c-0.1-0.3,0.2-0.5,1-0.7
		c0.6-0.1,1-0.1,1.2,0.1c0.6-1.2,1.6-1.8,2.9-1.6c0,0,0.2,0,0.4,0.1c0.2,0.1,0.6,0.1,1,0.2C-48.3-5.1-48.6-4.8-48.6-4.8z
		 M-47.8,48.3l0-0.2l0.1,0.1L-47.8,48.3z M-47.3,5.3l0.1-0.1l0.1,0.1H-47.3z M-46.8,4.6c0.2-0.2,0.4-0.3,0.5-0.3
		c0.2,0.1,0.4,0.2,0.6,0.3l0.2-0.3c0.1,0.1,0.1,0.1,0.1,0.1c0,0,0,0,0.1,0.1c0,0,0.1,0.1,0.1,0.1c0,0,0,0.1,0,0.1
		c0,0.1,0,0.2-0.1,0.3l0,0c0.1,0.1,0.2,0.3,0.2,0.4c0,0.2-0.2,0.8-0.5,1.9c-0.3-0.4-0.5-0.7-0.7-0.9c-0.2-0.2-0.4-0.4-0.5-0.6
		c-0.2-0.2-0.3-0.4-0.4-0.5C-47.2,5.1-47,4.8-46.8,4.6z M-47,25.2l0.2,0.2c0.1,0.1,0.1,0.1,0.2,0.1l-0.1,0.2l-0.3-0.3L-47,25.2z
		 M-46.6,51.1l0-0.2l0.2,0.1L-46.6,51.1z M-45.6,46.5c0,0-0.5-0.3-1.3-0.7c1.1-0.2,1.7-0.3,1.8-0.3c0,0,0.1,0.1,0.2,0.2
		c0.1,0.1,0.1,0.2,0.1,0.1l0,0C-45.1,46.2-45.4,46.4-45.6,46.5z M-44.6,50.1L-44.6,50.1l-0.1,0l0.1-0.1L-44.6,50.1
		C-44.5,50-44.5,50-44.6,50.1c0.1-0.1,0.1,0,0.1,0C-44.5,50-44.5,50.1-44.6,50.1z M-44.3,45.2l-0.7-0.7l0.3-0.3
		c0.2-0.2,0.3-0.3,0.4-0.3l0.6,0.7L-44.3,45.2z M-43.7,38.9c-0.5-0.5-0.7-0.7-0.7-0.8c0,0,0.1-0.3,0.3-0.9c0.6,0.7,0.9,1.1,0.9,1.1
		c0,0-0.1,0-0.1,0.1c0,0.1-0.1,0.2-0.2,0.2C-43.5,38.7-43.6,38.8-43.7,38.9z M-42,48.9c-0.1,0.1-0.2,0.1-0.3,0.2
		c-0.1,0.1-0.2,0.1-0.2,0.1c-0.5-0.5-0.7-0.9-0.7-1.2c-0.1,0,0.1-0.2,0.7-0.7c0,0,0.1,0.1,0.2,0.2c0.1,0.1,0.2,0.2,0.2,0.4l0.6,0.7
		C-41.8,48.7-41.9,48.8-42,48.9z M-41.5,46.2l-0.4-0.2c0.2-0.2,0.3-0.3,0.3-0.3l0.1-0.1c0.1,0.1,0.1,0.1,0.1,0.1c0,0,0,0.1,0.1,0.1
		l0.1,0L-41.5,46.2z M-41.2,44.6l0.1-0.2l0.2,0.2L-41.2,44.6z M-39.5,46.7c0.4-1.8,0.5-2.9,0.4-3.4c-0.1-0.2-0.3-0.4-0.5-0.6
		l-0.3-0.1l0.1,0c-0.5-0.4-1.2-0.9-2.1-1.5c-0.2-0.1-0.3-0.4-0.4-0.9c-0.1-0.4-0.1-0.7,0-0.7c0.2-0.1,0.5-0.3,1-0.6
		c0.2-0.1,0.5-0.3,0.8-0.5c0,0,0,0,0,0c0,0-0.1-0.1-0.1-0.1c0-0.1,0.1-0.3,0.3-0.5l0.4,0.3c0.2-0.1,0.4-0.2,0.7-0.4
		c0.2,1.6,0.3,2.6,0.5,2.8c0.1,0.2,0.8,1.2,2.1,3L-39.5,46.7z M-37.4,49.4c-0.2-0.4-0.4-0.7-0.4-0.7c0,0,0.2-0.5,0.6-1.3
		c0,0,0.1,0.1,0.1,0.2c0,0.1,0.1,0.2,0.2,0.2l0.4,0.4L-37.4,49.4z M-36.1,48.3l-0.3-0.5l0.1-0.1c0,0.1,0.1,0.2,0.1,0.3
		C-36.1,48.1-36.1,48.1-36.1,48.3L-36.1,48.3C-36,48.2-36,48.2-36.1,48.3c0.1-0.1,0.1-0.1,0.1-0.1L-36.1,48.3
		C-36,48.2-36,48.2-36.1,48.3z M-35.4,41.3l-0.4-0.4l0.2-0.2l0.1,0.2l0.2,0.2L-35.4,41.3z M-34.1,45.4c-0.1,0.1-0.2,0.2-0.2,0.2
		c-0.1,0.1-0.2,0.2-0.3,0.2l-0.4-1c0,0,0.1-0.1,0.1-0.2c0-0.1,0.1-0.2,0.1-0.2c0-0.1,0.1-0.2,0.2-0.3c0.5,0.7,0.7,1.1,0.7,1.2
		C-34,45.2-34,45.3-34.1,45.4z M-33.5,35.3c-0.1,0-0.1,0.4-0.2,0.4h-0.1l-1.4-3.3c0.2,0.1,0.3,0,0.3,0l1.7,2.8
		C-33.4,35.2-33.5,35.3-33.5,35.3z M-33.2,15.2l-0.1-0.2c0,0,0.1-0.1,0.1-0.1h0.1c0,0,0.1,0.1,0.1,0.2C-33,15.2-33.1,15.2-33.2,15.2
		z M-32,48.2h-0.2c-0.1-0.1-0.1-0.2,0.1-0.2h0.2V48.2z M-31.9,27.1c0,0-0.1,0.1-0.1,0.2l-0.3-0.2l-0.3-0.3c0.2,0,0.5,0.1,0.8,0.1
		C-31.9,27-31.9,27.1-31.9,27.1z M-32.3,19.1c-0.4-0.4-0.6-0.6-0.6-0.7c-0.1-0.3,0.1-0.5,0.5-0.5c0.3,0,0.4,0.2,0.5,0.5
		C-31.8,18.4-32,18.7-32.3,19.1z M-31.9,16.8L-31.9,16.8c0.2-0.1,0.2-0.1,0-0.1h0l-1,0.2v-0.2h1L-31.9,16.8c0-0.1-0.1,0-0.1,0
		C-32,16.8-32,16.8-31.9,16.8c0.6-1.8,1.7-2.6,3.2-2.4c0,0,0.2,0,0.4,0.1c0.2,0.1,0.6,0.1,1,0.2c-0.5,0.7-0.7,1.1-0.8,1.1
		C-28.4,15.9-29.7,16.2-31.9,16.8z M-29.9,33L-29.9,33c-0.1,0-0.2,0-0.2-0.1l0.1-0.3c0.1,0,0.2,0,0.3,0.1
		C-29.8,32.9-29.8,33-29.9,33z M-29.8,30.2C-29.8,30.2-29.8,30.3-29.8,30.2l-0.4-0.6l0.2-0.1c0,0.2,0.1,0.3,0.1,0.4
		C-29.9,30.1-29.9,30.1-29.8,30.2L-29.8,30.2C-29.8,30.2-29.8,30.2-29.8,30.2c0.1,0,0.1,0,0.1-0.1L-29.8,30.2z M-29.7,29.1
		c0-0.1,0.2-0.3,0.6-0.8c0.3,0.5,0.5,0.7,0.5,0.8c-0.1,0.3-0.3,0.5-0.6,0.5C-29.6,29.6-29.8,29.5-29.7,29.1z M-28.9,48.1l-0.1,0.1
		l-0.2-0.3c0,0,0.1-0.1,0.2-0.1h0.1c0,0,0.1,0,0.1,0.1c0,0,0,0.1,0.1,0.2C-28.8,48-28.9,48.1-28.9,48.1z M-28.8,30.9
		c0,0,0.1-0.1,0.1-0.1l0-0.1H-29v0.1l0.3-0.1h0c0.2,1,0.2,0.2,0,0.1l0,0.1c2.5,0.6,4,1,4.4,1.2c0,0,0.2,0.2,0.4,0.6l0.4-0.3
		c0.1,0.3,0.1,0.5,0.2,0.7c0.1,0.2,0.1,0.4,0.2,0.6c0,0.2,0.1,0.3,0.1,0.4c-0.2,0.2-0.5,0.5-1,1c-0.5,0.5-1.1,1.1-1.9,1.9
		c0.3-1,0.6-1.8,0.7-2.5c0.1-0.4,0.2-0.7,0.3-1c-0.1,0-0.2,0.1-0.3,0.1c-1.7,0.2-2.9-0.7-3.6-2.7C-28.7,30.9-28.7,30.9-28.8,30.9z
		 M-27.4,38.2l-0.8-0.6l1.9-3c0.4,0.6,0.6,0.9,0.5,0.9L-27.4,38.2z M-26.1,37.2c-0.3,0.3-0.5,0.4-0.6,0.5l-0.1-0.2
		C-26.4,37.3-26.1,37.2-26.1,37.2C-25.9,37.1-25.9,37.2-26.1,37.2z M-27.5,46l-0.4,0.9c0,0-0.1,0-0.2-0.2L-27.5,46z M-28.3,43
		l-0.2-0.1l0.3-0.2l0.1,0.2c0,0,0,0.1-0.1,0.1C-28.2,42.9-28.2,42.9-28.3,43z M-27.3,49.9c-0.3,0.2-0.5,0.3-0.6,0.3
		c0,0,0-0.1-0.1-0.2c-0.1-0.1-0.2-0.3-0.5-0.6c0.7-0.4,1.1-0.6,1.2-0.6c0,0,0.1,0.1,0.3,0.1c0.1,0,0.3,0.1,0.4,0.1
		c0.2,0,0.3,0.1,0.6,0.2C-26.6,49.5-27,49.8-27.3,49.9z M-25.6,50.6v-0.2l0.2,0.1L-25.6,50.6z M-24.7,51.4
		C-24.7,51.4-24.7,51.3-24.7,51.4c-0.1-0.1-0.1-0.2-0.1-0.2v-0.1l0.3-0.1l0.1,0.1l0.1,0.1L-24.7,51.4z M-23.4,46.8
		c-0.5,0.2-0.8,0.2-1.1,0.2c-0.3,0.3-0.4,0.5-0.5,0.5c-0.1,0-0.9-0.1-2.5-0.5l1.2-1.3c-0.1,0-0.1,0-0.1,0c-0.2,0-0.3,0.1-0.4,0.1
		c-0.1,0-0.2,0.1-0.3,0.1c0-0.1-0.1-0.2-0.1-0.3c0.2,0,0.4,0,0.6-0.1l0.7-0.1c-0.1,0-0.2,0.1-0.3,0.1c0,0-0.1,0-0.1,0l0.7,0.3
		c-0.1-0.1-0.1-0.3-0.2-0.5c0.6,0.1,1,0.2,1.1,0.2c0,0,0.2,0,0.4,0c0.2,0,0.5,0,0.9,0.1C-23.3,46.4-23.4,46.8-23.4,46.8z
		 M-21.5,49.3c-0.4,0.1-0.9,0.2-1.4,0.3l0.7-1.3l-0.1,0.2c0,0,0.1,0.3,0.2,0.3h0l0.5-1.3c0,0,0.1-0.2,0.3-0.3l0.9,2.1
		C-20.8,49.2-21.1,49.2-21.5,49.3z M-21.6,46.8c0.3-1.1,0.6-2,0.6-2.8V44l0.6,0.1l-0.3-0.1C-19.3,45.8-19.6,46.7-21.6,46.8z
		 M-20,42.2c-0.1,0-0.3-0.1-0.7-0.3l0.6-0.6c0.1,0,0.3,0.1,0.8,0.4C-19.7,42-19.9,42.2-20,42.2z M-19.2,35.1L-19.2,35.1
		c0,0-0.1,0-0.1-0.1l-0.3-0.4l0.5-0.1c0,0.2,0,0.4,0,0.4l0.2,0.1L-19.2,35.1z M-17.9,41.8h-0.2c-0.1,0-0.2,0-0.3,0
		c-0.1,0-0.2,0-0.4,0c0.2-0.6,0.3-0.9,0.4-1h0.3c0.2,0,0.3,0.1,0.3,0.1C-17.8,41.3-17.8,41.6-17.9,41.8z M-17.4,24.5l-0.2-0.1
		l0.2-0.1V24.5z M-18.9,10.9c-0.1-0.3,0.2-0.5,1-0.7c1-0.2,1.4,0.1,1.2,0.8c0.1,0,0.2,0.1,0.3,0.1c0.3,0.2,0.8,0.4,1.4,0.8
		c-0.3,0.1-0.5,0.2-0.6,0.2c-0.2,0-0.3,0.1-0.5,0.1c-0.1,0-0.1,0-0.1,0c0.1,0.1,0.2,0.2,0.2,0.2l-0.5,0.2l-0.2-0.5
		c-0.2-0.1-0.4-0.2-0.7-0.4C-18,12.3-18.6,12-18.9,10.9z M-17,14.5l0.5,1l-0.7-0.8C-17.1,14.5-17,14.5-17,14.5z M-16.5,17.9
		l-0.2-0.1l0.2-0.1V17.9z M-16.5,14.7c0,0,0.1-0.2,0.3-0.6l0.3,0.2c0.1,0,0.1,0.1,0.2,0.1c0.1,0,0.1,0.1,0.2,0.1l-0.6,0.5
		c0,0-0.1,0-0.2-0.1C-16.5,14.9-16.5,14.8-16.5,14.7z M-15.2,15.8c-0.2,0-0.4,0.1-0.6,0.1c0,0-0.1,0-0.2,0c-0.1,0-0.2-0.1-0.4-0.1
		c0.1,0,0.2,0,0.4,0S-15.5,15.8-15.2,15.8z M-16.4,20.6l0.5-0.9c0.1,0.2,0.2,0.3,0.3,0.4c0.1,0.1,0.2,0.2,0.3,0.3l-0.6,0.7
		L-16.4,20.6z M-15.3,36.4l-0.2-0.1l0.2-0.1V36.4z M-15.5,16.4c0-0.1-0.1-0.1-0.1-0.2c0,0,0-0.1-0.1-0.1l0.3-0.2l0.1,0.2L-15.5,16.4
		z M-14.8,47.5c0,0.1,0,0.2-0.1,0.3l-0.2-0.5c0.1,0,0.2,0.1,0.2,0.1C-14.8,47.4-14.8,47.4-14.8,47.5L-14.8,47.5z M-14.1,42.8
		c0,0.1,0,0.1-0.1,0.3l-0.2-0.2l-0.3-0.3c0.1-0.1,0.2-0.1,0.3-0.1c0.1,0,0.1,0,0.1-0.1L-14.1,42.8C-14.1,42.7-14.1,42.8-14.1,42.8z
		 M-13.7,48.2c0,0.1-0.1,0.1-0.2,0c0,0,0-0.1,0.1-0.1c0,0,0.1-0.1,0.1-0.2l0.2,0.1L-13.7,48.2z M-14.1,37.5c0.4-1.5,1.2-1.7,2.3-0.8
		c0.7,1.3,0.3,1.9-1.1,1.6C-13.8,38.1-14.2,37.9-14.1,37.5z M-12.4,50.9l-0.2-0.1l0.3-0.1L-12.4,50.9z M-12.5,41.4
		c0-0.1,0.2-0.4,0.6-1c0,0.1,0.3,0.5,0.7,1.2l-1,0.8C-12.4,41.9-12.5,41.5-12.5,41.4z M-11.1,49.5c0,0-0.3-0.2-0.6-0.6l0.8-0.6
		c0,0,0.1,0,0.2,0.1c0.1,0.1,0.2,0.2,0.3,0.3c0.1,0.1,0.2,0.2,0.4,0.3C-10.7,49.3-11,49.5-11.1,49.5z M-10.3,38.4
		c-0.6-0.8-0.9-1.2-0.9-1.3c0.1-0.3,0.3-0.6,0.4-1c0.2-0.4,0.4-0.8,0.7-1.2c0.1,0,0.1,0,0.3,0.1c0.1,0,0.4,0.1,0.7,0.2L-10.3,38.4z
		 M-9,2.2c-0.1,0-0.2,0-0.3-0.1L-9,1.8l0.2-0.2c0.1,0.1,0.1,0.2,0.1,0.3c0,0.1,0,0.1,0.1,0.1l-0.3,0.3C-8.9,2.2-9,2.2-9,2.2z
		 M-8.4,23.8c0-0.2-0.1-0.4-0.1-0.8c0.3,0.3,0.6,0.5,0.8,0.7c0.2,0.2,0.3,0.3,0.3,0.3l0,0l1.1,0.3l-0.2,0.4l-0.2,0.4
		c-0.3-0.2-0.6-0.4-0.9-0.6c0,0,0,0.1,0,0.1c-0.4-0.3-0.6-0.5-0.6-0.5c0,0,0,0,0,0c-0.3-0.2-0.5-0.4-0.6-0.4L-8.4,23.8z M-6.8,32.5
		L-6.8,32.5c0,0.1,0,0.2-0.1,0.2c-0.1,0-0.1,0-0.1,0c0,0-0.1,0-0.2,0c0-0.1,0-0.1,0-0.1c0,0,0-0.1,0-0.1v-0.1c0,0,0.1-0.1,0.3-0.2
		C-6.9,32.3-6.8,32.4-6.8,32.5z M-8.1,29.8L-8.2,30l-0.1-0.3H-8.1z M-8.4,45.8c0,0-0.1,0-0.2,0.1c0,0,0-0.1,0-0.1c0,0,0-0.1,0-0.1
		c0,0,0-0.1,0.1-0.1c0,0,0,0.1,0.1,0.1l0.1,0.1C-8.3,45.8-8.4,45.8-8.4,45.8z M-8.4,31.2L-8.4,31.2L-8.5,31l0.3-0.3l0.2,0.4
		c-0.2,0-0.3,0.1-0.3,0.1C-8.3,31.2-8.4,31.2-8.4,31.2z M-7.8,36c-0.3-0.3-0.4-0.5-0.4-0.7c0.1-0.1,0.2-0.3,0.4-0.5
		c0.1-0.2,0.3-0.3,0.5-0.6c0.2-0.2,0.4-0.5,0.7-0.9c0.4,1.1,0.5,1.7,0.5,1.9c-0.2,0.5-0.6,0.9-1.2,1.1C-7.5,36.3-7.6,36.2-7.8,36z
		 M-4.3,49.9c0,0-0.1,0.1-0.1,0.1l-0.2-0.2c0.1-0.1,0.2-0.2,0.2-0.5l0.3,0.3C-4.2,49.8-4.2,49.9-4.3,49.9z M-6.1,48.7
		c-0.5,0.6-0.7,0.9-0.6,0.8c-0.3-0.8-0.5-1.3-0.5-1.3l2.2-3.8l0.8,1.6C-4.9,47.2-5.6,48.1-6.1,48.7z M-5.3,11.8
		c0-0.1,0.2-0.2,0.6-0.4c0.1,0.2,0.2,0.4,0.2,0.5c0.1,0.1,0.1,0.1,0.1,0.2c0,0.1-0.2,0.2-0.6,0.4C-5.4,12-5.4,11.8-5.3,11.8z
		 M-3.9,10.5c-0.1,0.1-0.2,0.1-0.3,0.1C-4.5,10.2-4.8,9.7-5,9.3c-0.2-0.4-0.4-0.8-0.5-1.1c0-0.1,0.3-0.5,1-1.4l1.4,3.6
		C-3.5,10.5-3.7,10.5-3.9,10.5z M-1.2-1.1c0.6,0.6,0.9,0.9,0.9,1l-0.4,0.6c0.5-0.1,0.8-0.1,0.8-0.1c0.1,0,0.5,0.4,1.2,1.3l-2.7,1
		l-0.5-0.5l-0.1,0.2C-2.1,2.2-2.3,2-2.5,1.9c-0.1,0-0.1-0.1-0.1-0.1l0.2-0.4L-2.9,1c0.3-0.1,0.5-0.1,0.8-0.2L-1.2-1.1z M-1.9,15
		l-0.3,0.5L-2.5,15l0.1-0.1l0.1-0.1c0,0,0.1,0,0.2,0C-2.2,14.9-2,14.9-1.9,15z M-2.1,48.2c-0.1,0-0.2-0.1-0.5-0.1
		c0.1-0.5,0.2-0.7,0.2-0.6H-2L-2.1,48.2C-2.1,48.2-2,48.2-2.1,48.2z M0.1,35.1C0.1,35.1,0.1,35,0.1,35.1C0,35,0,35,0,34.9v-0.1
		l0.2-0.1l0.1,0.1l0,0.1L0.1,35.1z M-0.2,32.1c-0.1,0-0.7-0.1-1.9-0.4l1-1l1.6,0.6C0.1,31.8-0.1,32.1-0.2,32.1z M-1.7,29.1
		c0.1,0,0.1,0,0.2-0.1c0.1-0.1,0.2-0.2,0.4-0.3l0.3,0.7l-0.7,0.4c0-0.1,0-0.2,0-0.3c0-0.1,0-0.2,0-0.2C-1.6,29.2-1.6,29.1-1.7,29.1z
		 M0.4,25c-0.2,0-0.4,0-0.6,0.1l-0.6,0.2l-1-2c-0.2,0.2-0.4,0.4-0.7,0.6c0.1-0.8,0.2-1.2,0.3-1.2c0,0,0.1-0.1,0.1-0.1l0,0
		c-0.1-0.1-0.2-1.3-0.4-3.7c2.1,1.6,3.2,2.4,3.2,2.5C0.8,21.6,0.7,22.8,0.4,25z M-0.5,17.3c0,0,0.2-0.5,0.5-1.4
		c0.1,0.9,0.2,1.3,0.2,1.4c0,0.1-0.1,0.3-0.3,0.8C-0.4,17.7-0.5,17.4-0.5,17.3z M0.5,8.3C0.4,8.4,0.2,8.5,0.1,8.6
		C0,8.7-0.2,8.8-0.4,9c-0.1-0.4-0.1-0.7-0.1-0.9c0-0.2,0-0.3,0-0.4c0.1-0.5,0.4-0.7,0.7-0.4c0.1,0,0.3,0.2,0.6,0.7
		C0.7,8.1,0.6,8.2,0.5,8.3z M1,36.5c-0.1,0,0-0.3,0.3-0.8C1.8,36,2,36.1,2,36.2c0,0.1,0,0.1-0.1,0.2c0,0.1-0.1,0.3-0.2,0.6
		C1.3,36.7,1,36.6,1,36.5z M1.4,42.4C1.5,42.4,1.5,42.4,1.4,42.4c0.2-0.1,0.3-0.2,0.3-0.1l0.4,0.4c0,0-0.1,0.1-0.1,0.1
		S1.9,43,1.7,43L1.4,42.4L1.4,42.4z M2.1,46.5c0,0.1-0.2,0-0.7-0.1l0.3-0.5c0-0.1,0-0.1,0-0.1L2.5,46C2.3,46.3,2.2,46.5,2.1,46.5z
		 M2.5,40.6c-0.1,0.1-0.3,0.1-0.4,0.1L2,40.3c0.1-0.1,0.3-0.1,0.4-0.1c0,0.1,0,0.1,0.1,0.2V40.6z M2.8,44.6l0.1-0.1l0,0.2L2.8,44.6z
		 M2.6,33.4c-0.3,0.1-0.7,0.1-1.1,0.2l1-1.9c0,0,0.1-0.1,0.2-0.1l0.7,1.6C3.1,33.3,2.9,33.4,2.6,33.4z M4.7,47.9L4.7,47.9l-0.3-0.1
		c-0.1-0.2-0.3-1.2-0.6-3.1l0.5,0.4l0.1,0.1l0.3-0.2l0.2,0.2l-0.2,0.2l0.2,0.2c-0.1-0.1,0.3,0.9,1.2,2.8L4.7,47.9
		C4.7,47.9,4.7,47.9,4.7,47.9z M8.6,47.4c0-0.1,0-0.1,0-0.2c0-0.1,0-0.2,0-0.3l-0.1-0.5l0.7,0.7L8.6,47.4z M8.3,46.3
		c-0.6-0.2-1-0.3-1.4-0.4c-0.4-0.1-0.6-0.1-0.8-0.2L8,45c0.2-0.1,0.6-0.1,1.1-0.2C8.6,45.8,8.4,46.3,8.3,46.3z M9.7,44.7
		c-0.1,0-0.3,0-0.5,0l0.3-0.2l0.3-0.2l0,0.1l0,0.1v0c0,0,0,0,0,0.1v0l0,0C10,44.7,9.9,44.7,9.7,44.7z M9.6,36.4l0.6-0.5l1.2,2.1
		c0,0-0.1,0.3-0.4,0.7L9.6,36.4z M11.5,40c-0.3,0-0.4-0.1-0.1-0.3l0-0.1l0.3-0.2l0,0.1l0.3-0.3l0.2,0.8H11.5z"/>
</g>
</svg>
