<svg height="67" viewBox="0 0 67 67" width="67" xmlns="http://www.w3.org/2000/svg"><path d="M43.527 41.34c-.278 0-.478.078-.6.244-.121.156-.18.424-.18.796v.896h1.543v-.896c0-.372-.062-.64-.185-.796-.116-.166-.313-.244-.578-.244zm-6.018-.031c.234 0 .417.076.544.23.123.154.185.383.185.682v4.584c0 .286-.053.487-.153.611-.1.127-.256.189-.47.189a.975.975 0 0 1-.421-.096 1.497 1.497 0 0 1-.415-.313v-5.531c.119-.122.239-.213.36-.271a.83.83 0 0 1 .37-.085zm5.239 3.349v1.672c0 .468.057.792.17.974.118.181.313.269.592.269.289 0 .491-.076.606-.229.114-.153.175-.489.175-1.013v-.405h1.795v.456c0 .911-.217 1.596-.657 2.059-.435.459-1.089.687-1.958.687-.781 0-1.398-.242-1.847-.731-.448-.486-.676-1.157-.676-2.014v-3.986c0-.768.249-1.398.742-1.882.493-.485 1.128-.727 1.911-.727.799 0 1.413.225 1.843.674.429.448.642 1.093.642 1.935v2.264h-3.338zm-3.125 3.837c-.271.336-.669.501-1.187.501-.343 0-.646-.062-.912-.192a2.238 2.238 0 0 1-.746-.601v.681h-1.764V36.852h1.764v3.875a2.68 2.68 0 0 1 .748-.617c.267-.142.534-.211.805-.211.554 0 .975.189 1.265.565.294.379.438.933.438 1.66v4.926c0 .628-.137 1.109-.411 1.445zm-7.665.389v-.976c-.325.361-.658.636-1.009.822a2.098 2.098 0 0 1-1.014.282c-.405 0-.705-.129-.913-.396-.201-.266-.305-.658-.305-1.189v-7.422h1.744v6.809c0 .211.037.362.107.457.077.095.196.141.358.141.128 0 .292-.062.488-.188a2.48 2.48 0 0 0 .542-.475v-6.744H33.7v8.878h-1.742zM25.916 38.6v10.284h-1.968V38.6h-2.034v-1.748h6.036V38.6h-2.034zm8.078-5.622c0-.001 12.08.018 13.514 1.45 1.439 1.435 1.455 8.514 1.455 8.555 0 0-.012 7.117-1.455 8.556C46.074 52.969 33.994 53 33.994 53s-12.079-.031-13.516-1.462c-1.438-1.435-1.441-8.502-1.441-8.556 0-.041.004-7.12 1.441-8.555 1.438-1.431 13.516-1.45 13.516-1.449zm9.526-3.723h-1.966v-1.08c-.358.397-.736.703-1.13.909-.392.208-.771.312-1.14.312-.458 0-.797-.146-1.027-.437-.229-.291-.345-.727-.345-1.311v-8.172h1.962v7.497c0 .231.045.399.127.502.08.104.216.156.399.156.143 0 .327-.069.548-.206.22-.137.423-.312.605-.527v-7.422h1.966v9.779zm-10.673-1.667c.139.147.339.219.6.219.266 0 .476-.075.634-.223.157-.152.235-.358.235-.618v-5.327a.638.638 0 0 0-.241-.519c-.16-.131-.37-.196-.628-.196-.241 0-.435.065-.586.196a.665.665 0 0 0-.225.519v5.327c0 .267.072.473.211.622zm-1.439-7.685c.528-.449 1.241-.674 2.132-.674.812 0 1.48.237 2.001.711.517.473.777 1.083.777 1.828v5.051c0 .836-.255 1.491-.762 1.968-.513.476-1.212.714-2.106.714-.858 0-1.547-.246-2.064-.736-.513-.492-.772-1.153-.772-1.984v-5.068c-.001-.759.263-1.362.794-1.81zM25.262 16h-2.229l2.634 8.003v5.252h2.213v-5.5L30.454 16h-2.25l-1.366 5.298h-.139L25.262 16zM34 64C17.432 64 4 50.568 4 34 4 17.431 17.432 4 34 4s30 13.431 30 30c0 16.568-13.432 30-30 30z" fill-rule="evenodd" clip-rule="evenodd" fill="#cf3427"/></svg>